<!DOCTYPE svg PUBLIC "-//W3C//DTD SVG 20010904//EN" "http://www.w3.org/TR/2001/REC-SVG-20010904/DTD/svg10.dtd">
<svg version="1.0" xmlns="http://www.w3.org/2000/svg" width="1056px" height="414px" viewBox="0 0 10560 4140" preserveAspectRatio="xMidYMid meet">
<g id="layer101" fill="#060505" stroke="none">
 <path d="M0 2070 l0 -2070 5280 0 5280 0 0 2070 0 2070 -5280 0 -5280 0 0 -2070z"/>
 </g>
<g id="layer102" fill="#212021" stroke="none">
 <path d="M0 2070 l0 -2070 5280 0 5280 0 0 2070 0 2070 -5280 0 -5280 0 0 -2070z m4395 -95 c26 -25 32 -45 16 -45 -6 0 -16 9 -24 20 -21 30 -58 40 -95 24 -59 -24 -72 -116 -23 -165 36 -36 73 -37 107 -4 32 32 47 32 33 1 -21 -45 -88 -59 -139 -29 -63 37 -69 140 -12 206 24 28 106 23 137 -8z m205 5 c27 -27 27 -89 -1 -124 -26 -33 -79 -36 -109 -6 -26 26 -28 105 -3 132 23 25 87 24 113 -2z m90 -44 c0 -70 12 -90 52 -84 21 3 23 8 26 76 3 86 22 97 22 13 0 -63 15 -91 49 -91 30 0 41 22 41 87 0 35 4 63 10 63 13 0 13 -126 0 -151 -12 -22 -59 -26 -78 -7 -10 10 -17 10 -32 0 -25 -16 -63 -15 -78 0 -10 10 -15 10 -22 -2 -7 -10 -10 14 -10 73 0 51 4 87 10 87 6 0 10 -28 10 -64z m280 8 c0 -67 13 -94 45 -94 32 0 45 27 45 94 0 31 5 56 10 56 6 0 10 -28 10 -64 0 -70 12 -90 52 -84 21 3 23 8 26 76 4 94 22 94 22 -1 0 -80 -9 -97 -50 -97 -14 0 -31 5 -38 12 -9 9 -15 9 -24 0 -16 -16 -60 -15 -77 1 -11 10 -14 10 -18 0 -13 -36 -23 -4 -23 72 0 50 4 85 10 85 6 0 10 -25 10 -56z m400 -31 c0 -49 -4 -83 -10 -83 -6 0 -10 27 -10 60 0 47 -4 64 -20 80 -46 46 -80 14 -80 -76 0 -36 -4 -64 -10 -64 -13 0 -13 126 0 151 9 16 20 19 70 17 l60 -3 0 -82z m80 24 c0 -67 10 -87 45 -87 35 0 45 20 45 87 0 35 4 63 10 63 13 0 13 -126 0 -151 -12 -21 -74 -27 -85 -9 -5 8 -11 7 -21 -1 -12 -10 -14 2 -14 75 0 51 4 86 10 86 6 0 10 -28 10 -63z m190 -22 c0 -50 -4 -85 -10 -85 -6 0 -10 35 -10 85 0 50 4 85 10 85 6 0 10 -35 10 -85z m174 63 c22 -31 8 -43 -16 -13 -23 29 -44 32 -70 8 -21 -19 -25 -95 -5 -110 27 -21 48 -22 67 -3 24 24 30 25 30 5 0 -35 -74 -46 -110 -17 -28 23 -31 103 -4 133 25 27 88 26 108 -3z m188 -53 c-3 -38 -9 -76 -14 -82 -13 -16 -72 -17 -99 -3 -20 11 -27 40 -9 40 6 0 10 -4 10 -10 0 -5 9 -14 19 -20 27 -14 71 4 71 29 0 16 -9 21 -45 27 -49 7 -75 25 -75 53 0 31 22 41 85 39 l60 -3 -3 -70z m118 65 c0 -5 -7 -10 -15 -10 -12 0 -15 -14 -15 -65 0 -51 3 -65 15 -65 8 0 15 -4 15 -10 0 -5 -6 -10 -14 -10 -9 0 -16 -13 -18 -32 -3 -28 -5 -30 -12 -13 -4 11 -12 29 -18 40 -8 14 -8 20 1 23 7 2 11 30 11 71 0 37 3 71 7 74 10 11 43 8 43 -3z m50 -75 c0 -50 -4 -85 -10 -85 -6 0 -10 35 -10 85 0 50 4 85 10 85 6 0 10 -35 10 -85z m182 68 c26 -23 25 -106 -2 -133 -30 -30 -83 -27 -109 6 -28 35 -28 97 -1 124 25 25 86 27 112 3z m88 -42 c0 -66 15 -91 55 -91 32 0 45 27 45 94 0 31 5 56 10 56 17 0 12 -123 -6 -148 -16 -24 -53 -29 -85 -12 -13 7 -19 7 -19 0 0 -5 -4 -10 -10 -10 -6 0 -10 35 -10 85 0 50 4 85 10 85 6 0 10 -26 10 -59z m-800 -160 c0 -6 -4 -13 -10 -16 -5 -3 -10 1 -10 9 0 9 5 16 10 16 6 0 10 -4 10 -9z m530 -7 c0 -8 -4 -12 -10 -9 -5 3 -10 10 -10 16 0 5 5 9 10 9 6 0 10 -7 10 -16z"/>
 <path d="M4507 1972 c-20 -22 -22 -82 -4 -104 22 -28 47 -29 73 -3 30 30 32 77 4 105 -25 25 -52 26 -73 2z"/>
 <path d="M5890 1974 c-18 -21 5 -43 53 -51 32 -5 37 -3 37 14 0 43 -64 70 -90 37z"/>
 <path d="M6260 1970 c-29 -29 -27 -83 6 -109 42 -33 84 -4 84 59 0 62 -50 90 -90 50z"/>
 </g>
<g id="layer103" fill="#313131" stroke="none">
 <path d="M0 2070 l0 -2070 5280 0 5280 0 0 2070 0 2070 -5280 0 -5280 0 0 -2070z m4398 -94 c17 -16 23 -30 18 -42 -6 -16 -10 -14 -32 14 -42 54 -113 41 -134 -24 -16 -48 -5 -99 27 -124 34 -27 69 -25 99 5 14 14 29 25 34 25 17 0 11 -20 -15 -45 -43 -43 -134 -27 -164 29 -17 32 -18 96 -1 137 26 61 119 75 168 25z m205 2 c24 -29 23 -98 -3 -126 -26 -28 -90 -30 -112 -4 -39 44 -27 133 20 151 36 13 73 5 95 -21z m745 20 c21 0 22 -4 22 -84 0 -49 -4 -84 -10 -84 -5 0 -10 21 -10 48 0 63 -7 86 -31 100 -14 9 -25 10 -39 2 -17 -9 -20 -21 -20 -80 0 -56 -3 -70 -15 -70 -12 0 -15 14 -15 70 0 58 4 74 21 91 16 16 28 19 47 14 15 -4 37 -7 50 -7z m458 -13 c14 -14 22 -30 19 -36 -4 -6 -16 0 -30 16 -28 29 -33 30 -63 9 -16 -11 -22 -25 -22 -54 0 -61 47 -91 84 -54 24 23 39 13 21 -14 -20 -28 -84 -31 -108 -4 -52 58 -17 159 56 161 10 1 29 -10 43 -24z m177 12 c27 0 27 0 27 -67 0 -87 -11 -102 -74 -98 -33 2 -53 9 -60 20 -14 23 1 36 17 14 19 -25 82 -19 82 9 0 14 -10 21 -38 27 -60 12 -77 25 -77 58 0 36 25 52 65 44 17 -4 42 -7 58 -7z m137 -2 c0 -8 -7 -15 -15 -15 -12 0 -15 -14 -15 -65 0 -51 3 -65 15 -65 8 0 15 -4 15 -10 0 -5 -7 -10 -15 -10 -10 0 -15 -10 -15 -31 0 -17 -4 -28 -10 -24 -5 3 -10 15 -10 25 0 10 -8 24 -17 30 -17 10 -17 10 0 20 13 9 17 25 17 80 0 67 5 77 38 79 6 1 12 -6 12 -14z m214 3 c45 -20 55 -108 18 -150 -22 -26 -86 -24 -112 4 -22 24 -27 86 -9 119 18 35 62 46 103 27z m-1644 -54 c0 -67 13 -94 44 -94 30 0 36 16 36 91 0 46 3 59 15 59 12 0 15 -14 15 -63 0 -65 11 -87 42 -87 25 0 38 31 38 94 0 31 5 56 10 56 15 0 13 -143 -2 -158 -15 -15 -53 -16 -78 -2 -13 7 -21 7 -25 0 -9 -14 -68 -13 -83 2 -9 9 -12 9 -12 0 0 -7 -4 -12 -10 -12 -6 0 -10 35 -10 85 0 50 4 85 10 85 6 0 10 -25 10 -56z m282 -10 c4 -67 14 -84 51 -84 23 0 37 38 37 101 0 74 19 59 22 -17 3 -74 21 -99 56 -78 13 8 18 27 20 78 2 36 7 66 12 66 15 0 12 -144 -2 -158 -15 -15 -60 -16 -76 0 -8 8 -15 8 -25 0 -8 -7 -37 -11 -66 -10 l-51 2 0 83 c0 99 16 111 22 17z m478 3 c0 -67 10 -87 45 -87 35 0 45 20 45 87 0 35 4 63 10 63 16 0 13 -145 -3 -159 -8 -6 -39 -10 -70 -8 l-57 2 0 83 c0 66 3 82 15 82 12 0 15 -14 15 -63z m190 -22 c0 -50 -4 -85 -10 -85 -6 0 -10 35 -10 85 0 50 4 85 10 85 6 0 10 -35 10 -85z m530 0 c0 -50 -4 -85 -10 -85 -6 0 -10 35 -10 85 0 50 4 85 10 85 6 0 10 -35 10 -85z m270 31 c0 -68 23 -102 63 -92 26 6 27 9 27 76 0 56 3 70 15 70 12 0 15 -14 15 -66 0 -95 -8 -105 -80 -102 l-60 2 0 83 c0 49 4 83 10 83 6 0 10 -24 10 -54z m-800 -171 c0 -8 -4 -15 -10 -15 -5 0 -10 7 -10 15 0 8 5 15 10 15 6 0 10 -7 10 -15z m530 0 c0 -8 -4 -15 -10 -15 -5 0 -10 7 -10 15 0 8 5 15 10 15 6 0 10 -7 10 -15z"/>
 <path d="M4510 1970 c-24 -24 -27 -82 -4 -104 35 -35 94 -4 94 50 0 26 -36 74 -56 74 -8 0 -23 -9 -34 -20z"/>
 <path d="M5890 1974 c-18 -21 5 -43 53 -51 33 -5 37 -3 37 15 0 23 -34 52 -61 52 -9 0 -22 -7 -29 -16z"/>
 <path d="M6261 1964 c-25 -32 -27 -61 -5 -92 18 -26 56 -29 78 -6 23 22 20 80 -4 104 -27 27 -44 25 -69 -6z"/>
 </g>
<g id="layer104" fill="#414041" stroke="none">
 <path d="M0 2070 l0 -2070 5280 0 5280 0 0 2070 0 2070 -5280 0 -5280 0 0 -2070z m4373 -71 c31 -14 62 -65 46 -75 -7 -4 -22 7 -36 25 -65 83 -172 -10 -129 -113 24 -58 81 -72 122 -31 14 14 29 25 34 25 17 0 11 -20 -15 -45 -18 -19 -35 -25 -68 -25 -56 0 -93 28 -107 81 -11 39 -9 57 12 112 19 48 87 71 141 46z m221 -10 c22 -17 26 -28 26 -70 0 -62 -23 -89 -78 -89 -62 0 -95 56 -73 123 19 56 78 73 125 36z m96 -43 c0 -65 14 -96 44 -96 24 0 35 25 38 90 2 36 8 65 13 65 6 0 11 -29 13 -65 3 -69 13 -90 43 -90 25 0 39 37 39 106 0 30 5 54 10 54 15 0 13 -153 -2 -168 -15 -15 -74 -16 -83 -2 -5 8 -11 8 -19 1 -7 -6 -38 -10 -69 -9 l-57 2 0 81 c0 45 3 85 7 88 17 17 23 2 23 -57z m280 6 c0 -67 20 -105 53 -100 20 3 23 11 27 78 6 91 23 95 30 8 6 -71 13 -88 39 -88 31 0 41 22 41 93 0 50 3 68 13 65 15 -6 21 -94 9 -140 -7 -28 -13 -33 -41 -36 -18 -2 -38 1 -45 7 -10 8 -21 7 -41 -3 -19 -10 -35 -12 -51 -6 -13 5 -31 7 -39 4 -13 -5 -15 8 -15 85 0 54 4 91 10 91 6 0 10 -26 10 -58z m353 47 c16 -9 22 -9 25 0 2 6 8 11 13 11 5 0 9 -40 9 -90 0 -73 -3 -90 -15 -90 -12 0 -15 14 -15 64 0 55 -3 67 -22 80 -15 11 -26 12 -40 5 -15 -8 -18 -22 -18 -79 0 -56 -3 -70 -15 -70 -12 0 -15 15 -15 74 0 66 3 77 22 90 27 19 42 20 71 5z m127 -59 c0 -62 15 -90 50 -90 28 0 40 30 40 99 0 34 4 61 10 61 16 0 13 -155 -3 -169 -7 -6 -39 -10 -70 -9 l-57 2 0 81 c0 45 3 85 6 88 15 15 24 -8 24 -63z m190 -21 c0 -68 -3 -90 -12 -87 -9 3 -14 30 -16 78 -3 77 1 100 18 100 6 0 10 -35 10 -91z m164 70 c14 -11 26 -27 26 -35 0 -20 -10 -17 -36 11 -28 30 -38 31 -64 5 -55 -55 5 -155 61 -104 26 23 43 14 24 -14 -24 -33 -87 -31 -114 4 -64 81 24 195 103 133z m148 10 c14 -8 23 -8 31 0 22 22 27 10 27 -62 0 -92 -11 -110 -71 -109 -32 1 -48 6 -61 22 -24 30 -11 46 16 21 24 -22 52 -27 75 -12 24 16 4 38 -40 45 -54 9 -69 21 -69 57 0 43 47 62 92 38z m168 -3 c0 -8 -7 -16 -15 -20 -11 -4 -15 -21 -15 -66 0 -47 3 -60 15 -60 8 0 15 -4 15 -10 0 -5 -7 -10 -15 -10 -10 0 -15 -10 -15 -30 0 -22 -4 -28 -15 -24 -8 4 -15 17 -15 29 0 13 -6 26 -12 29 -10 5 -10 7 0 12 8 4 12 28 12 69 0 44 5 68 16 79 19 20 44 21 44 2z m60 -82 c0 -68 -3 -84 -15 -84 -12 0 -15 16 -15 83 0 46 3 87 6 90 17 16 24 -11 24 -89z m154 85 c48 -22 59 -107 19 -151 -23 -25 -87 -24 -113 2 -30 30 -28 103 5 135 26 27 51 31 89 14z m106 -38 c0 -59 14 -99 36 -108 33 -12 49 11 54 81 7 87 24 90 28 4 4 -97 -5 -109 -78 -106 l-60 2 0 88 c0 52 4 88 10 88 6 0 10 -22 10 -49z m-800 -187 c0 -9 -5 -14 -12 -12 -18 6 -21 28 -4 28 9 0 16 -7 16 -16z m538 4 c-6 -18 -28 -21 -28 -4 0 9 7 16 16 16 9 0 14 -5 12 -12z"/>
 <path d="M4510 1970 c-40 -40 -16 -120 37 -120 26 0 41 18 49 58 5 25 1 36 -19 56 -31 31 -41 32 -67 6z"/>
 <path d="M5903 1983 c-14 -5 -18 -39 -5 -47 4 -2 24 -7 45 -11 33 -6 37 -5 37 13 0 33 -44 59 -77 45z"/>
 <path d="M6263 1964 c-20 -20 -24 -31 -19 -56 8 -41 23 -58 51 -58 51 0 75 80 35 120 -26 26 -36 25 -67 -6z"/>
 </g>
<g id="layer105" fill="#b22418" stroke="none">
 <path d="M0 2070 l0 -2070 5280 0 5280 0 0 2070 0 2070 -5280 0 -5280 0 0 -2070z m4379 -74 c30 -16 56 -62 40 -71 -5 -4 -22 7 -38 24 -35 37 -75 41 -108 9 -30 -28 -33 -114 -5 -148 25 -31 90 -32 110 -2 16 25 42 29 42 8 0 -27 -50 -56 -95 -56 -75 0 -125 67 -110 148 16 86 90 126 164 88z m216 -8 c49 -42 30 -147 -29 -162 -61 -15 -112 37 -103 107 10 73 78 101 132 55z m95 -42 c0 -65 14 -96 44 -96 26 0 36 26 36 93 0 50 3 68 13 65 7 -3 13 -29 15 -68 3 -71 15 -92 46 -88 19 3 22 11 26 77 3 47 10 76 18 79 9 3 12 -16 12 -75 0 -43 -4 -83 -8 -90 -12 -20 -55 -25 -77 -10 -17 13 -22 13 -42 -1 -19 -11 -29 -12 -47 -4 -13 6 -33 8 -45 5 -20 -5 -21 -2 -21 79 0 47 3 88 7 91 17 17 23 2 23 -57z m283 -2 c5 -73 22 -100 55 -89 18 5 22 15 24 78 2 55 6 72 17 72 12 0 14 -14 12 -61 -2 -46 2 -65 14 -78 40 -40 65 -11 65 77 0 50 3 68 13 65 14 -5 21 -86 12 -136 -8 -44 -42 -60 -82 -40 -26 13 -32 13 -51 0 -18 -12 -28 -12 -47 -4 -14 6 -32 9 -40 6 -13 -5 -15 8 -15 85 0 105 15 122 23 25z m356 54 c11 -10 14 -10 18 0 13 35 23 2 23 -78 0 -73 -3 -90 -15 -90 -12 0 -15 14 -15 64 0 70 -12 90 -52 84 -21 -3 -23 -8 -26 -75 -2 -56 -6 -73 -17 -73 -23 0 -21 137 2 162 19 21 63 24 82 6z m121 -52 c0 -64 14 -96 43 -96 31 1 41 21 45 89 6 97 22 90 22 -9 0 -74 -2 -81 -25 -96 -20 -13 -31 -15 -49 -6 -13 6 -33 8 -45 5 -20 -5 -21 -2 -21 86 0 74 3 91 15 91 12 0 15 -14 15 -64z m190 -26 c0 -73 -3 -90 -15 -90 -12 0 -15 16 -15 83 0 46 3 87 7 90 18 18 23 0 23 -83z m170 70 c11 -11 20 -27 20 -35 0 -22 -27 -18 -33 5 -7 27 -62 28 -77 1 -33 -64 27 -147 70 -96 14 17 40 20 40 6 0 -13 -50 -51 -66 -51 -49 0 -84 44 -84 106 0 70 83 111 130 64z m156 9 c4 -8 9 -8 17 0 22 22 27 10 27 -62 0 -91 -12 -112 -69 -112 -46 0 -94 36 -75 55 7 7 16 4 29 -10 21 -23 57 -26 75 -5 17 21 6 32 -40 38 -22 3 -47 11 -55 17 -21 17 -19 67 3 79 23 14 79 14 88 0z m154 -3 c0 -8 -7 -16 -15 -20 -11 -4 -15 -21 -15 -66 0 -47 3 -60 15 -60 8 0 15 -4 15 -9 0 -5 -7 -11 -15 -15 -8 -3 -15 -17 -15 -32 0 -32 -24 -27 -29 7 -1 13 -8 28 -15 32 -8 6 -8 10 2 14 8 3 12 27 12 68 0 35 3 70 6 79 8 20 54 21 54 2z m58 -79 c2 -73 0 -87 -13 -87 -12 0 -15 16 -15 91 0 68 3 90 13 87 8 -3 13 -33 15 -91z m172 75 c15 -12 24 -33 27 -63 7 -61 -26 -103 -81 -103 -53 0 -79 30 -78 91 0 39 5 52 27 70 31 28 75 30 105 5z m100 -57 c6 -75 24 -100 58 -79 13 9 18 28 20 83 2 61 6 72 19 69 9 -2 16 -6 15 -10 -1 -5 -2 -36 -2 -71 0 -77 -14 -100 -61 -99 -87 3 -79 -6 -79 94 0 67 3 89 13 86 7 -3 14 -31 17 -73z m-810 -160 c0 -8 -7 -15 -15 -15 -8 0 -15 7 -15 15 0 8 7 15 15 15 8 0 15 -7 15 -15z m540 0 c0 -8 -7 -15 -15 -15 -8 0 -15 7 -15 15 0 8 7 15 15 15 8 0 15 -7 15 -15z"/>
 <path d="M4506 1964 c-21 -21 -20 -67 2 -94 37 -46 93 -2 83 65 -7 45 -54 61 -85 29z"/>
 <path d="M5903 1983 c-14 -5 -18 -39 -5 -47 4 -2 24 -7 45 -11 30 -6 37 -4 37 9 0 34 -45 63 -77 49z"/>
 <path d="M6260 1965 c-19 -22 -15 -87 6 -102 40 -29 84 2 84 59 0 49 -60 79 -90 43z"/>
 </g>
<g id="layer106" fill="#575757" stroke="none">
 <path d="M0 2070 l0 -2070 5280 0 5280 0 0 2070 0 2070 -5280 0 -5280 0 0 -2070z m8423 153 c-74 -153 -190 -389 -256 -525 -66 -137 -123 -248 -127 -248 -4 0 -38 66 -78 148 -81 169 -432 883 -439 895 -2 4 230 7 516 7 l520 0 -136 -277z m-4044 -227 c30 -16 56 -62 40 -71 -5 -4 -22 7 -38 24 -35 37 -75 41 -108 9 -30 -28 -33 -114 -5 -148 25 -31 90 -32 110 -2 16 25 42 29 42 8 0 -27 -50 -56 -95 -56 -75 0 -125 67 -110 148 16 86 90 126 164 88z m216 -8 c49 -42 30 -147 -29 -162 -61 -15 -112 37 -103 107 10 73 78 101 132 55z m95 -42 c0 -65 14 -96 44 -96 26 0 36 26 36 93 0 50 3 68 13 65 7 -3 13 -29 15 -68 3 -71 15 -92 46 -88 19 3 22 11 26 77 3 47 10 76 18 79 9 3 12 -16 12 -75 0 -43 -4 -83 -8 -90 -12 -20 -55 -25 -77 -10 -17 13 -22 13 -42 -1 -19 -11 -29 -12 -47 -4 -13 6 -33 8 -45 5 -20 -5 -21 -2 -21 79 0 47 3 88 7 91 17 17 23 2 23 -57z m283 -2 c5 -73 22 -100 55 -89 18 5 22 15 24 78 2 55 6 72 17 72 12 0 14 -14 12 -61 -2 -46 2 -65 14 -78 40 -40 65 -11 65 77 0 50 3 68 13 65 14 -5 21 -86 12 -136 -8 -44 -42 -60 -82 -40 -26 13 -32 13 -51 0 -18 -12 -28 -12 -47 -4 -14 6 -32 9 -40 6 -13 -5 -15 8 -15 85 0 105 15 122 23 25z m356 54 c11 -10 14 -10 18 0 13 35 23 2 23 -78 0 -73 -3 -90 -15 -90 -12 0 -15 14 -15 64 0 70 -12 90 -52 84 -21 -3 -23 -8 -26 -75 -2 -56 -6 -73 -17 -73 -23 0 -21 137 2 162 19 21 63 24 82 6z m121 -52 c0 -64 14 -96 43 -96 31 1 41 21 45 89 6 97 22 90 22 -9 0 -74 -2 -81 -25 -96 -20 -13 -31 -15 -49 -6 -13 6 -33 8 -45 5 -20 -5 -21 -2 -21 86 0 74 3 91 15 91 12 0 15 -14 15 -64z m190 -26 c0 -73 -3 -90 -15 -90 -12 0 -15 16 -15 83 0 46 3 87 7 90 18 18 23 0 23 -83z m170 70 c11 -11 20 -27 20 -35 0 -22 -27 -18 -33 5 -7 27 -62 28 -77 1 -33 -64 27 -147 70 -96 14 17 40 20 40 6 0 -13 -50 -51 -66 -51 -49 0 -84 44 -84 106 0 70 83 111 130 64z m156 9 c4 -8 9 -8 17 0 22 22 27 10 27 -62 0 -91 -12 -112 -69 -112 -46 0 -94 36 -75 55 7 7 16 4 29 -10 21 -23 57 -26 75 -5 17 21 6 32 -40 38 -22 3 -47 11 -55 17 -21 17 -19 67 3 79 23 14 79 14 88 0z m154 -3 c0 -8 -7 -16 -15 -20 -11 -4 -15 -21 -15 -66 0 -47 3 -60 15 -60 8 0 15 -4 15 -9 0 -5 -7 -11 -15 -15 -8 -3 -15 -17 -15 -32 0 -32 -24 -27 -29 7 -1 13 -8 28 -15 32 -8 6 -8 10 2 14 8 3 12 27 12 68 0 35 3 70 6 79 8 20 54 21 54 2z m58 -79 c2 -73 0 -87 -13 -87 -12 0 -15 16 -15 91 0 68 3 90 13 87 8 -3 13 -33 15 -91z m172 75 c15 -12 24 -33 27 -63 7 -61 -26 -103 -81 -103 -53 0 -79 30 -78 91 0 39 5 52 27 70 31 28 75 30 105 5z m100 -57 c6 -75 24 -100 58 -79 13 9 18 28 20 83 2 61 6 72 19 69 9 -2 16 -6 15 -10 -1 -5 -2 -36 -2 -71 0 -77 -14 -100 -61 -99 -87 3 -79 -6 -79 94 0 67 3 89 13 86 7 -3 14 -31 17 -73z m-810 -160 c0 -8 -7 -15 -15 -15 -8 0 -15 7 -15 15 0 8 7 15 15 15 8 0 15 -7 15 -15z m540 0 c0 -8 -7 -15 -15 -15 -8 0 -15 7 -15 15 0 8 7 15 15 15 8 0 15 -7 15 -15z"/>
 <path d="M4506 1964 c-21 -21 -20 -67 2 -94 37 -46 93 -2 83 65 -7 45 -54 61 -85 29z"/>
 <path d="M5903 1983 c-14 -5 -18 -39 -5 -47 4 -2 24 -7 45 -11 30 -6 37 -4 37 9 0 34 -45 63 -77 49z"/>
 <path d="M6260 1965 c-19 -22 -15 -87 6 -102 40 -29 84 2 84 59 0 49 -60 79 -90 43z"/>
 </g>
<g id="layer107" fill="#355692" stroke="none">
 <path d="M0 2070 l0 -2070 5280 0 5280 0 0 2070 0 2070 -5280 0 -5280 0 0 -2070z m8423 153 c-74 -153 -190 -389 -256 -525 -66 -137 -123 -248 -127 -248 -4 0 -38 66 -78 148 -81 169 -432 883 -439 895 -2 4 230 7 516 7 l520 0 -136 -277z m-3028 -98 l1340 0 5 113 5 112 230 -230 230 -230 -233 -233 -232 -232 0 113 0 112 -1345 0 -1345 0 0 -112 0 -113 -232 232 -233 233 230 230 230 230 5 -112 5 -113 1340 0z"/>
 <path d="M3810 2095 l-205 -205 210 -210 c115 -116 213 -210 217 -210 5 0 8 45 8 100 l0 100 1355 0 1355 0 0 -100 c0 -55 3 -100 8 -100 4 0 102 94 217 210 l210 210 -205 205 c-113 113 -210 205 -217 205 -10 0 -13 -25 -13 -95 l0 -95 -1355 0 -1355 0 0 95 c0 70 -3 95 -13 95 -7 0 -104 -92 -217 -205z m576 -103 c26 -20 46 -57 37 -66 -12 -11 -33 -6 -33 8 0 8 -10 22 -22 30 -57 40 -118 -4 -118 -85 0 -60 24 -89 73 -89 21 0 41 8 52 20 10 11 24 20 32 20 22 0 15 -27 -13 -49 -35 -28 -102 -28 -137 -1 -70 55 -55 194 23 223 31 11 86 6 106 -11z m210 -5 c50 -43 30 -146 -32 -161 -60 -16 -104 28 -104 104 0 71 80 105 136 57z m94 -35 c0 -60 19 -102 45 -102 23 0 35 34 35 99 0 48 3 61 15 61 12 0 15 -14 15 -70 0 -58 3 -71 19 -80 38 -20 50 -3 53 73 2 45 7 72 16 75 9 3 12 -18 12 -82 0 -83 -1 -87 -26 -98 -21 -10 -31 -9 -52 3 -24 13 -30 13 -54 -1 -22 -12 -31 -13 -47 -3 -10 6 -28 9 -40 6 -20 -5 -21 -2 -21 79 0 47 3 88 7 91 16 17 23 3 23 -51z m290 -17 c4 -51 9 -71 23 -79 29 -18 47 17 47 92 0 54 2 63 17 60 14 -2 16 -14 14 -64 -2 -46 2 -65 14 -78 40 -39 65 -7 65 84 0 45 3 61 13 58 8 -3 13 -30 15 -76 2 -61 0 -74 -18 -92 -22 -22 -60 -26 -78 -8 -9 9 -17 8 -37 -2 -19 -10 -30 -11 -50 -2 -14 6 -32 9 -40 6 -13 -5 -15 8 -15 86 0 69 3 91 13 88 7 -3 14 -31 17 -73z m346 64 c4 -8 9 -8 17 0 22 22 27 9 27 -79 0 -73 -3 -90 -15 -90 -12 0 -15 14 -15 64 0 70 -12 90 -52 84 -21 -3 -23 -8 -26 -75 -2 -56 -6 -73 -17 -73 -12 0 -15 15 -15 71 0 89 10 109 55 109 18 0 37 -5 41 -11z m124 -53 c0 -64 14 -96 43 -96 28 1 36 19 39 85 2 54 6 70 18 70 19 0 26 -85 11 -136 -13 -42 -38 -53 -101 -43 l-40 7 0 88 c0 72 3 89 15 89 12 0 15 -14 15 -64z m190 -26 c0 -73 -3 -90 -15 -90 -12 0 -15 16 -15 83 0 46 3 87 7 90 18 18 23 0 23 -83z m170 70 c11 -11 20 -27 20 -35 0 -22 -28 -18 -35 6 -10 32 -67 23 -79 -13 -19 -54 24 -117 62 -90 49 35 72 23 28 -15 -57 -48 -125 -8 -126 75 0 77 80 122 130 72z m156 9 c4 -8 9 -8 17 0 27 27 34 11 30 -66 -5 -85 -22 -113 -69 -113 -31 0 -72 19 -79 38 -10 26 10 34 30 12 22 -24 58 -26 76 -4 16 20 3 29 -52 38 -26 4 -44 15 -55 31 -15 23 -15 27 0 50 13 20 25 25 56 25 21 0 42 -5 46 -11z m159 2 c3 -6 -4 -15 -15 -21 -26 -14 -28 -94 -3 -123 17 -18 17 -19 0 -28 -9 -6 -17 -21 -17 -34 0 -29 -18 -34 -26 -7 -3 9 -10 26 -16 37 -8 14 -8 20 1 23 7 2 11 29 11 67 0 35 3 70 6 79 7 17 49 22 59 7z m55 -81 c0 -73 -3 -90 -15 -90 -12 0 -15 17 -15 90 0 73 3 90 15 90 12 0 15 -17 15 -90z m174 69 c50 -39 27 -150 -34 -162 -63 -13 -103 21 -103 89 0 82 74 122 137 73z m94 -53 c3 -60 6 -68 27 -78 41 -18 55 3 55 84 0 59 2 69 17 66 14 -2 16 -15 14 -78 -1 -63 -5 -78 -23 -93 -15 -13 -30 -16 -48 -12 -14 4 -35 7 -47 7 -22 0 -23 4 -23 90 0 67 3 89 13 86 7 -3 13 -29 15 -72z m-808 -161 c0 -8 -7 -15 -15 -15 -8 0 -15 7 -15 15 0 8 7 15 15 15 8 0 15 -7 15 -15z m540 0 c0 -8 -7 -15 -15 -15 -8 0 -15 7 -15 15 0 8 7 15 15 15 8 0 15 -7 15 -15z"/>
 <path d="M4507 1962 c-48 -53 17 -146 67 -96 19 18 21 85 4 102 -18 18 -53 15 -71 -6z"/>
 <path d="M5902 1978 c-21 -21 -13 -37 26 -47 48 -14 52 -14 52 2 0 35 -56 67 -78 45z"/>
 <path d="M6262 1968 c-27 -27 -10 -106 26 -115 29 -7 62 25 62 61 0 51 -57 85 -88 54z"/>
 </g>
<g id="layer108" fill="#616160" stroke="none">
 <path d="M0 2070 l0 -2070 5280 0 5280 0 0 2070 0 2070 -5280 0 -5280 0 0 -2070z m1630 1483 c1 -12 -514 -1043 -520 -1043 -3 0 -123 236 -268 525 l-262 525 525 0 c289 0 525 -3 525 -7z m800 -513 c-143 -286 -262 -520 -265 -520 -7 0 -515 1018 -515 1031 0 5 207 9 520 9 l520 0 -260 -520z m1261 423 c-27 -54 -76 -154 -109 -223 -33 -69 -128 -262 -210 -430 l-150 -305 -72 145 c-40 80 -157 317 -261 528 l-188 382 520 0 519 0 -49 -97z m-1755 -1415 c-122 -249 -237 -486 -256 -525 -18 -40 -36 -73 -40 -73 -3 0 -36 62 -72 138 -79 163 -438 894 -445 905 -2 4 230 7 516 7 l520 0 -223 -452z m6487 175 c-74 -153 -190 -389 -256 -525 -66 -137 -123 -248 -127 -248 -4 0 -38 66 -78 148 -81 169 -432 883 -439 895 -2 4 230 7 516 7 l520 0 -136 -277z m-3028 -98 l1340 0 5 113 5 112 230 -230 230 -230 -233 -233 -232 -232 0 113 0 112 -1345 0 -1345 0 0 -112 0 -113 -232 232 -233 233 230 230 230 230 5 -112 5 -113 1340 0z m-2870 -1027 c-96 -189 -214 -421 -263 -515 -48 -95 -89 -173 -92 -173 -3 0 -44 78 -92 173 -49 94 -167 326 -263 515 l-175 342 530 0 530 0 -175 -342z"/>
 <path d="M3810 2095 l-205 -205 210 -210 c115 -116 213 -210 217 -210 5 0 8 45 8 100 l0 100 1355 0 1355 0 0 -100 c0 -55 3 -100 8 -100 4 0 102 94 217 210 l210 210 -205 205 c-113 113 -210 205 -217 205 -10 0 -13 -25 -13 -95 l0 -95 -1355 0 -1355 0 0 95 c0 70 -3 95 -13 95 -7 0 -104 -92 -217 -205z m576 -103 c26 -20 46 -57 37 -66 -12 -11 -33 -6 -33 8 0 8 -10 22 -22 30 -57 40 -118 -4 -118 -85 0 -60 24 -89 73 -89 21 0 41 8 52 20 10 11 24 20 32 20 22 0 15 -27 -13 -49 -35 -28 -102 -28 -137 -1 -70 55 -55 194 23 223 31 11 86 6 106 -11z m210 -5 c50 -43 30 -146 -32 -161 -60 -16 -104 28 -104 104 0 71 80 105 136 57z m94 -35 c0 -60 19 -102 45 -102 23 0 35 34 35 99 0 48 3 61 15 61 12 0 15 -14 15 -70 0 -58 3 -71 19 -80 38 -20 50 -3 53 73 2 45 7 72 16 75 9 3 12 -18 12 -82 0 -83 -1 -87 -26 -98 -21 -10 -31 -9 -52 3 -24 13 -30 13 -54 -1 -22 -12 -31 -13 -47 -3 -10 6 -28 9 -40 6 -20 -5 -21 -2 -21 79 0 47 3 88 7 91 16 17 23 3 23 -51z m290 -17 c4 -51 9 -71 23 -79 29 -18 47 17 47 92 0 54 2 63 17 60 14 -2 16 -14 14 -64 -2 -46 2 -65 14 -78 40 -39 65 -7 65 84 0 45 3 61 13 58 8 -3 13 -30 15 -76 2 -61 0 -74 -18 -92 -22 -22 -60 -26 -78 -8 -9 9 -17 8 -37 -2 -19 -10 -30 -11 -50 -2 -14 6 -32 9 -40 6 -13 -5 -15 8 -15 86 0 69 3 91 13 88 7 -3 14 -31 17 -73z m346 64 c4 -8 9 -8 17 0 22 22 27 9 27 -79 0 -73 -3 -90 -15 -90 -12 0 -15 14 -15 64 0 70 -12 90 -52 84 -21 -3 -23 -8 -26 -75 -2 -56 -6 -73 -17 -73 -12 0 -15 15 -15 71 0 89 10 109 55 109 18 0 37 -5 41 -11z m124 -53 c0 -64 14 -96 43 -96 28 1 36 19 39 85 2 54 6 70 18 70 19 0 26 -85 11 -136 -13 -42 -38 -53 -101 -43 l-40 7 0 88 c0 72 3 89 15 89 12 0 15 -14 15 -64z m190 -26 c0 -73 -3 -90 -15 -90 -12 0 -15 16 -15 83 0 46 3 87 7 90 18 18 23 0 23 -83z m170 70 c11 -11 20 -27 20 -35 0 -22 -28 -18 -35 6 -10 32 -67 23 -79 -13 -19 -54 24 -117 62 -90 49 35 72 23 28 -15 -57 -48 -125 -8 -126 75 0 77 80 122 130 72z m156 9 c4 -8 9 -8 17 0 27 27 34 11 30 -66 -5 -85 -22 -113 -69 -113 -31 0 -72 19 -79 38 -10 26 10 34 30 12 22 -24 58 -26 76 -4 16 20 3 29 -52 38 -26 4 -44 15 -55 31 -15 23 -15 27 0 50 13 20 25 25 56 25 21 0 42 -5 46 -11z m159 2 c3 -6 -4 -15 -15 -21 -26 -14 -28 -94 -3 -123 17 -18 17 -19 0 -28 -9 -6 -17 -21 -17 -34 0 -29 -18 -34 -26 -7 -3 9 -10 26 -16 37 -8 14 -8 20 1 23 7 2 11 29 11 67 0 35 3 70 6 79 7 17 49 22 59 7z m55 -81 c0 -73 -3 -90 -15 -90 -12 0 -15 17 -15 90 0 73 3 90 15 90 12 0 15 -17 15 -90z m174 69 c50 -39 27 -150 -34 -162 -63 -13 -103 21 -103 89 0 82 74 122 137 73z m94 -53 c3 -60 6 -68 27 -78 41 -18 55 3 55 84 0 59 2 69 17 66 14 -2 16 -15 14 -78 -1 -63 -5 -78 -23 -93 -15 -13 -30 -16 -48 -12 -14 4 -35 7 -47 7 -22 0 -23 4 -23 90 0 67 3 89 13 86 7 -3 13 -29 15 -72z m-808 -161 c0 -8 -7 -15 -15 -15 -8 0 -15 7 -15 15 0 8 7 15 15 15 8 0 15 -7 15 -15z m540 0 c0 -8 -7 -15 -15 -15 -8 0 -15 7 -15 15 0 8 7 15 15 15 8 0 15 -7 15 -15z"/>
 <path d="M4507 1962 c-48 -53 17 -146 67 -96 19 18 21 85 4 102 -18 18 -53 15 -71 -6z"/>
 <path d="M5902 1978 c-21 -21 -13 -37 26 -47 48 -14 52 -14 52 2 0 35 -56 67 -78 45z"/>
 <path d="M6262 1968 c-27 -27 -10 -106 26 -115 29 -7 62 25 62 61 0 51 -57 85 -88 54z"/>
 </g>
<g id="layer109" fill="#717171" stroke="none">
 <path d="M0 2070 l0 -2070 5280 0 5280 0 0 2070 0 2070 -5280 0 -5280 0 0 -2070z m1630 1483 c1 -12 -514 -1043 -520 -1043 -3 0 -123 236 -268 525 l-262 525 525 0 c289 0 525 -3 525 -7z m800 -513 c-143 -286 -262 -520 -265 -520 -7 0 -515 1018 -515 1031 0 5 207 9 520 9 l520 0 -260 -520z m1261 423 c-27 -54 -76 -154 -109 -223 -33 -69 -128 -262 -210 -430 l-150 -305 -72 145 c-40 80 -157 317 -261 528 l-188 382 520 0 519 0 -49 -97z m-1755 -1415 c-122 -249 -237 -486 -256 -525 -18 -40 -36 -73 -40 -73 -3 0 -36 62 -72 138 -79 163 -438 894 -445 905 -2 4 230 7 516 7 l520 0 -223 -452z m6487 175 c-74 -153 -190 -389 -256 -525 -66 -137 -123 -248 -127 -248 -4 0 -38 66 -78 148 -81 169 -432 883 -439 895 -2 4 230 7 516 7 l520 0 -136 -277z m-4350 -98 c12 -3 614 -4 1337 -3 l1315 3 3 100 c1 55 5 107 8 114 3 10 80 -60 234 -214 127 -127 230 -233 230 -236 0 -16 -461 -468 -465 -456 -3 6 -6 57 -7 112 l-3 100 -1337 3 -1338 2 0 -110 c0 -78 -3 -110 -12 -110 -12 0 -87 79 -88 93 0 4 -5 7 -11 7 -6 0 -58 48 -115 108 -57 59 -108 112 -114 117 -17 15 -89 88 -105 106 -8 9 -15 20 -15 25 0 5 102 111 228 237 l227 227 3 -110 c3 -104 4 -110 25 -115z m-1548 -1027 c-96 -189 -214 -421 -263 -515 -48 -95 -89 -173 -92 -173 -3 0 -44 78 -92 173 -49 94 -167 326 -263 515 l-175 342 530 0 530 0 -175 -342z"/>
 <path d="M3818 2101 c-109 -109 -198 -205 -198 -212 0 -18 390 -409 408 -409 9 0 12 26 12 95 l0 95 1355 0 1355 0 0 -95 c0 -70 3 -95 13 -95 14 0 407 390 407 405 0 12 -401 415 -413 415 -4 0 -7 -45 -7 -100 l0 -100 -1355 0 -1355 0 0 100 c0 74 -3 100 -12 100 -7 -1 -102 -90 -210 -199z m576 -113 c13 -13 27 -33 31 -45 5 -19 2 -23 -14 -23 -12 0 -21 6 -21 14 0 20 -39 46 -68 46 -33 0 -72 -46 -72 -86 0 -38 16 -85 33 -96 23 -15 74 -8 92 12 20 22 45 27 45 8 0 -6 -10 -22 -22 -35 -17 -18 -32 -23 -71 -23 -43 0 -53 4 -84 35 -35 35 -36 37 -30 98 5 53 10 66 36 89 41 37 108 39 145 6z m198 8 c60 -45 31 -176 -39 -176 -58 0 -92 37 -93 102 0 39 4 50 26 67 30 24 80 27 106 7z m98 -44 c0 -60 19 -102 45 -102 23 0 35 34 35 99 0 48 3 61 15 61 12 0 15 -13 15 -59 0 -66 22 -107 52 -96 14 5 18 22 20 78 2 45 7 72 16 75 9 3 12 -18 12 -82 0 -82 -1 -87 -24 -97 -16 -8 -34 -8 -52 -2 -19 6 -40 6 -61 0 -17 -5 -40 -6 -50 -2 -10 4 -26 7 -35 6 -16 -2 -18 8 -18 88 0 74 3 91 15 91 12 0 15 -13 15 -58z m288 -15 c2 -56 6 -69 24 -78 32 -17 48 12 48 89 0 53 3 63 16 60 12 -2 16 -18 17 -71 2 -63 12 -86 39 -87 24 0 38 36 38 96 0 50 3 64 15 64 12 0 15 -15 15 -75 0 -62 -4 -79 -20 -95 -22 -22 -60 -26 -78 -8 -9 9 -15 9 -24 0 -15 -15 -64 -16 -73 -2 -3 6 -17 7 -31 4 l-24 -6 0 84 c0 47 3 88 7 92 17 17 28 -6 31 -67z m348 62 c4 -8 9 -8 17 0 22 22 27 9 27 -79 0 -73 -3 -90 -15 -90 -12 0 -15 14 -15 63 0 67 -10 87 -46 87 -28 0 -34 -17 -34 -91 0 -46 -3 -59 -15 -59 -12 0 -15 15 -15 71 0 89 10 109 55 109 18 0 37 -5 41 -11z m124 -52 c0 -52 4 -67 21 -83 34 -31 53 -9 59 72 4 52 9 69 20 69 11 0 16 -14 18 -50 7 -112 -17 -142 -105 -129 l-43 6 0 89 c0 72 3 89 15 89 12 0 15 -14 15 -63z m190 -27 c0 -73 -3 -90 -15 -90 -12 0 -15 17 -15 90 0 73 3 90 15 90 12 0 15 -17 15 -90z m168 74 c24 -16 30 -54 9 -54 -7 0 -18 9 -25 20 -25 40 -82 14 -82 -38 0 -56 51 -92 80 -57 14 17 40 20 40 5 0 -5 -10 -20 -21 -31 -25 -25 -79 -21 -110 7 -30 27 -26 108 6 139 28 29 70 32 103 9z m158 5 c4 -8 9 -8 17 0 27 27 34 11 30 -66 -5 -85 -22 -113 -69 -113 -31 0 -72 19 -79 38 -10 26 10 34 30 12 21 -24 57 -26 75 -5 17 20 8 28 -42 34 -29 4 -47 14 -61 33 -19 25 -19 28 -3 52 13 21 25 26 56 26 21 0 42 -5 46 -11z m159 2 c3 -6 -4 -15 -15 -21 -26 -14 -28 -94 -3 -123 17 -18 17 -19 0 -28 -9 -6 -17 -21 -17 -34 0 -29 -18 -33 -26 -7 -3 9 -11 28 -17 41 -9 19 -9 25 1 28 8 3 12 25 12 63 0 32 3 65 6 74 7 17 49 22 59 7z m55 -81 c0 -73 -3 -90 -15 -90 -12 0 -15 17 -15 90 0 73 3 90 15 90 12 0 15 -17 15 -90z m174 69 c21 -17 26 -28 26 -67 -1 -62 -24 -92 -76 -99 -36 -5 -43 -2 -68 28 -25 29 -27 39 -22 79 10 75 81 105 140 59z m96 -49 c0 -59 3 -71 20 -80 14 -8 26 -8 40 0 17 9 20 21 20 81 0 61 2 70 17 67 9 -2 16 -6 15 -10 -1 -5 -2 -39 -2 -78 0 -62 -3 -71 -23 -85 -17 -11 -37 -13 -70 -9 l-47 7 0 88 c0 72 3 89 15 89 12 0 15 -14 15 -70z m-810 -166 c0 -8 -7 -14 -15 -14 -15 0 -21 21 -9 33 10 9 24 -2 24 -19z m540 0 c0 -8 -7 -14 -15 -14 -15 0 -21 21 -9 33 10 9 24 -2 24 -19z"/>
 <path d="M4506 1958 c-29 -41 -15 -89 30 -102 43 -13 71 54 44 105 -14 26 -55 24 -74 -3z"/>
 <path d="M5897 1973 c-16 -16 -4 -33 31 -42 48 -14 52 -14 52 3 0 33 -61 61 -83 39z"/>
 <path d="M6261 1956 c-16 -30 -7 -91 14 -100 26 -10 64 12 71 40 16 63 -57 113 -85 60z"/>
 </g>
<g id="layer110" fill="#818081" stroke="none">
 <path d="M0 2070 l0 -2070 5280 0 5280 0 0 2070 0 2070 -5280 0 -5280 0 0 -2070z m1630 1483 c1 -12 -514 -1043 -520 -1043 -3 0 -123 236 -268 525 l-262 525 525 0 c289 0 525 -3 525 -7z m800 -513 c-143 -286 -262 -520 -265 -520 -7 0 -515 1018 -515 1031 0 5 207 9 520 9 l520 0 -260 -520z m1261 423 c-27 -54 -76 -154 -109 -223 -33 -69 -128 -262 -210 -430 l-150 -305 -72 145 c-40 80 -157 317 -261 528 l-188 382 520 0 519 0 -49 -97z m-1755 -1415 c-122 -249 -237 -486 -256 -525 -18 -40 -36 -73 -40 -73 -3 0 -36 62 -72 138 -79 163 -438 894 -445 905 -2 4 230 7 516 7 l520 0 -223 -452z m6487 175 c-74 -153 -190 -389 -256 -525 -66 -137 -123 -248 -127 -248 -4 0 -38 66 -78 148 -81 169 -432 883 -439 895 -2 4 230 7 516 7 l520 0 -136 -277z m-4365 14 l3 -107 1334 0 1335 0 0 110 c0 61 3 110 7 110 12 0 463 -453 463 -465 0 -6 -103 -113 -230 -240 -154 -154 -231 -224 -234 -214 -3 7 -7 59 -8 114 l-3 100 -1330 0 -1330 0 -3 -105 c-1 -58 -7 -109 -11 -113 -11 -11 -461 438 -461 460 0 19 440 464 455 459 6 -1 11 -49 13 -109z m-1533 -1139 c-96 -189 -214 -421 -263 -515 -48 -95 -89 -173 -92 -173 -3 0 -44 78 -92 173 -49 94 -167 326 -263 515 l-175 342 530 0 530 0 -175 -342z"/>
 <path d="M6757 2294 c-4 -4 -7 -49 -7 -101 l0 -93 -1354 0 c-1225 0 -1354 2 -1360 16 -3 9 -6 51 -6 95 0 43 -3 79 -8 79 -11 0 -402 -394 -402 -405 0 -11 393 -405 404 -405 3 0 6 40 6 89 0 62 4 92 14 100 10 8 372 10 1357 9 l1344 -3 3 -97 c1 -54 6 -98 11 -98 9 0 411 400 411 409 0 13 -406 411 -413 405z m-2356 -313 c34 -34 38 -61 9 -61 -11 0 -20 5 -20 10 0 19 -40 50 -65 50 -15 0 -37 -11 -51 -27 -22 -24 -25 -35 -21 -76 5 -59 29 -87 73 -87 24 0 38 7 49 24 11 16 22 22 35 19 27 -7 25 -14 -11 -49 -25 -24 -38 -29 -74 -27 -86 3 -121 49 -112 142 5 46 12 61 37 84 44 39 110 38 151 -2z m205 2 c22 -24 25 -35 21 -71 -9 -82 -75 -116 -138 -71 -26 18 -29 26 -29 74 0 46 4 56 26 74 39 30 89 28 120 -6z m84 -22 c0 -69 14 -101 44 -101 28 0 36 21 36 98 0 39 4 52 15 52 12 0 15 -13 15 -59 0 -71 26 -115 54 -92 12 10 16 31 16 83 0 61 2 69 18 66 14 -3 17 -15 16 -82 0 -90 -15 -112 -69 -101 -38 7 -43 7 -83 -1 -19 -4 -38 -2 -46 5 -10 8 -16 9 -21 1 -17 -28 -25 -2 -25 85 0 78 3 95 15 95 11 0 15 -12 15 -49z m290 -21 c0 -61 3 -71 22 -81 32 -17 48 11 48 89 0 54 2 63 17 60 14 -2 16 -13 14 -59 -3 -62 21 -105 51 -94 20 8 28 35 28 103 0 39 4 52 15 52 22 0 21 -137 -1 -168 -17 -24 -62 -30 -82 -10 -8 8 -15 8 -24 0 -7 -6 -39 -10 -71 -9 l-57 1 0 86 c0 88 3 100 27 100 10 0 13 -18 13 -70z m390 -27 c0 -75 -3 -93 -15 -93 -11 0 -15 17 -17 71 -2 55 -7 74 -20 83 -34 21 -52 -4 -58 -79 -3 -42 -10 -70 -17 -73 -18 -5 -18 159 -1 176 8 8 35 11 70 10 l58 -2 0 -93z m80 48 c0 -74 14 -103 48 -99 26 3 27 6 32 73 4 56 8 70 23 73 15 3 17 -5 17 -70 0 -103 -13 -120 -88 -116 l-57 4 -3 92 c-2 77 0 92 13 92 11 0 15 -12 15 -49z m190 -46 c0 -78 -3 -95 -15 -95 -12 0 -15 17 -15 95 0 78 3 95 15 95 12 0 15 -17 15 -95z m168 79 c24 -16 30 -54 9 -54 -7 0 -18 9 -25 21 -18 28 -53 21 -70 -14 -19 -38 -8 -75 26 -88 22 -9 29 -7 43 10 20 25 39 27 39 6 0 -25 -38 -55 -69 -55 -15 0 -40 9 -55 21 -22 17 -26 29 -26 68 0 86 65 129 128 85z m157 6 c4 -6 13 -5 25 2 11 7 21 10 23 8 2 -3 1 -41 -2 -85 -5 -72 -8 -81 -32 -94 -33 -18 -95 -7 -109 20 -16 28 -2 44 21 23 21 -19 65 -22 82 -5 15 15 3 24 -45 30 -29 4 -47 14 -61 33 -19 25 -19 28 -3 52 13 21 25 26 56 26 21 0 42 -4 45 -10z m163 -7 c-2 -10 -10 -18 -18 -18 -22 0 -27 -97 -5 -115 19 -16 19 -36 0 -44 -8 -3 -15 -15 -15 -26 0 -25 -19 -27 -26 -2 -3 9 -11 28 -17 41 -9 19 -9 25 1 28 8 3 12 25 12 63 0 77 6 90 42 90 23 0 29 -4 26 -17z m52 -79 c0 -72 -3 -95 -12 -92 -9 3 -14 34 -16 96 -2 77 0 92 13 92 12 0 15 -16 15 -96z m174 75 c21 -17 26 -28 26 -67 -1 -62 -24 -92 -76 -99 -36 -5 -43 -2 -68 28 -25 29 -27 39 -22 79 7 53 34 80 81 80 18 0 44 -9 59 -21z m96 -38 c0 -74 23 -111 58 -92 19 10 22 20 22 82 0 60 2 70 17 67 14 -2 16 -15 14 -78 -2 -94 -17 -111 -94 -107 l-52 3 -3 92 c-3 87 -2 92 18 92 18 0 20 -6 20 -59z m-810 -171 c0 -11 -7 -20 -15 -20 -15 0 -21 21 -8 33 12 13 23 7 23 -13z m538 -3 c2 -10 -3 -17 -12 -17 -10 0 -16 9 -16 21 0 24 23 21 28 -4z"/>
 <path d="M4505 1957 c-36 -55 21 -132 66 -91 21 19 25 64 9 95 -15 27 -56 24 -75 -4z"/>
 <path d="M5894 1969 c-9 -14 14 -35 49 -43 22 -5 27 -3 27 12 0 10 -5 23 -12 30 -15 15 -55 16 -64 1z"/>
 <path d="M6262 1960 c-17 -28 -15 -64 6 -90 15 -18 21 -20 45 -11 15 6 28 18 29 28 2 33 -3 68 -14 80 -16 19 -52 16 -66 -7z"/>
 </g>
<g id="layer111" fill="#f6c043" stroke="none">
 <path d="M0 2070 l0 -2070 5280 0 5280 0 0 2070 0 2070 -5280 0 -5280 0 0 -2070z m1630 1483 c1 -12 -514 -1043 -520 -1043 -3 0 -123 236 -268 525 l-262 525 525 0 c289 0 525 -3 525 -7z m800 -513 c-143 -286 -262 -520 -265 -520 -7 0 -515 1018 -515 1031 0 5 207 9 520 9 l520 0 -260 -520z m1261 423 c-27 -54 -76 -154 -109 -223 -33 -69 -128 -262 -210 -430 l-150 -305 -72 145 c-40 80 -157 317 -261 528 l-188 382 520 0 519 0 -49 -97z m-1755 -1415 c-122 -249 -237 -486 -256 -525 -18 -40 -36 -73 -40 -73 -3 0 -36 62 -72 138 -79 163 -438 894 -445 905 -2 4 230 7 516 7 l520 0 -223 -452z m6487 175 c-74 -153 -190 -389 -256 -525 -66 -137 -123 -248 -127 -248 -4 0 -38 66 -78 148 -81 169 -432 883 -439 895 -2 4 230 7 516 7 l520 0 -136 -277z m-4363 17 l0 -110 1335 0 1335 0 0 110 c0 82 3 110 13 110 7 0 116 -104 242 -230 l230 -230 -235 -235 c-129 -129 -238 -231 -242 -227 -4 4 -9 54 -10 112 l-3 105 -1330 0 -1330 0 -3 -105 c-1 -58 -7 -109 -11 -113 -7 -7 -411 386 -460 447 -13 16 5 37 215 247 126 126 234 229 241 229 10 0 13 -28 13 -110z m-1535 -1142 c-96 -189 -214 -421 -263 -515 -48 -95 -89 -173 -92 -173 -3 0 -44 78 -92 173 -49 94 -167 326 -263 515 l-175 342 530 0 530 0 -175 -342z"/>
 <path d="M3815 2090 l-200 -200 200 -200 c110 -110 203 -200 207 -200 4 0 9 42 10 93 l3 92 1360 0 1360 0 3 -92 c1 -51 6 -93 10 -93 4 0 97 90 207 200 l200 200 -200 200 c-110 110 -203 200 -207 200 -5 0 -8 -43 -8 -95 l0 -95 -1365 0 -1365 0 0 95 c0 52 -3 95 -8 95 -4 0 -97 -90 -207 -200z m586 -109 c16 -16 29 -37 29 -45 0 -26 -29 -18 -57 14 -40 48 -93 36 -113 -26 -24 -71 8 -134 66 -134 25 0 38 7 50 25 18 27 22 29 43 16 11 -7 10 -13 -4 -34 -39 -60 -147 -57 -185 6 -13 21 -20 50 -20 86 0 47 4 57 34 87 29 29 41 34 81 34 38 0 52 -5 76 -29z m204 4 c19 -18 25 -35 25 -66 0 -83 -81 -127 -144 -78 -22 17 -26 28 -26 72 0 38 5 56 22 74 30 32 90 32 123 -2z m97 -47 c3 -71 4 -73 31 -76 l27 -3 0 75 c0 69 2 76 20 76 18 0 20 -7 20 -58 0 -64 16 -96 46 -90 16 3 19 13 22 76 3 64 5 72 22 72 18 0 20 -7 20 -73 0 -94 -16 -122 -69 -113 -20 3 -40 6 -46 5 -5 0 -38 -2 -72 -4 l-63 -3 0 94 c0 87 2 94 20 94 17 0 19 -8 22 -72z m278 9 c0 -65 11 -87 41 -87 23 0 29 20 29 92 0 49 3 59 16 56 12 -2 16 -18 18 -63 3 -72 9 -85 42 -85 23 0 24 2 24 75 0 68 2 75 20 75 18 0 20 -7 20 -77 0 -57 -4 -81 -17 -95 -18 -20 -63 -24 -81 -6 -8 8 -15 8 -24 0 -7 -6 -39 -10 -71 -9 l-57 1 0 93 c0 86 1 93 20 93 18 0 20 -7 20 -63z m398 -30 c-3 -78 -6 -92 -20 -95 -15 -3 -18 5 -18 52 0 63 -16 106 -40 106 -30 0 -40 -23 -40 -93 0 -60 -2 -68 -17 -65 -15 3 -18 15 -18 79 0 100 8 109 91 108 l65 -1 -3 -91z m72 44 c0 -74 14 -103 48 -99 26 3 27 5 30 76 3 64 5 72 22 72 18 0 20 -7 20 -73 0 -102 -13 -118 -91 -115 -32 2 -59 6 -59 11 0 4 0 45 0 92 0 69 3 85 15 85 11 0 15 -12 15 -49z m198 -43 c-3 -79 -6 -93 -20 -96 -16 -3 -18 6 -18 92 0 90 1 96 20 96 20 0 21 -5 18 -92z m164 75 c21 -18 24 -53 5 -53 -7 0 -18 9 -25 21 -30 48 -90 -6 -73 -67 5 -22 14 -30 36 -32 18 -2 31 2 37 12 13 22 38 20 38 -3 0 -25 -36 -51 -71 -51 -14 0 -38 9 -53 21 -22 17 -26 28 -26 72 0 38 5 56 22 74 26 28 82 31 110 6z m200 -62 c-3 -48 -10 -82 -20 -93 -29 -34 -132 -13 -132 27 0 22 22 30 34 12 19 -25 76 -27 76 -2 0 9 -14 17 -37 21 -55 9 -83 30 -83 61 0 39 26 52 101 51 l66 -1 -5 -76z m118 64 c0 -7 -7 -18 -16 -23 -8 -5 -18 -28 -21 -52 -5 -37 -3 -45 18 -62 l24 -19 -22 -16 c-13 -8 -23 -24 -23 -34 0 -24 -19 -25 -27 -1 -3 9 -12 24 -20 33 -12 14 -12 19 2 32 10 10 15 34 15 70 0 31 3 62 6 71 8 21 64 22 64 1z m50 -81 c0 -86 -2 -95 -17 -92 -15 3 -18 16 -21 82 -3 89 0 106 23 106 12 0 15 -16 15 -96z m177 74 c33 -31 33 -109 -2 -143 -56 -57 -145 -10 -145 76 0 79 91 120 147 67z m93 -34 c0 -67 13 -94 44 -94 28 0 36 21 36 98 0 44 3 53 17 50 14 -3 16 -15 14 -83 -2 -97 -11 -106 -90 -102 l-56 3 -3 92 c-3 87 -2 92 18 92 18 0 20 -6 20 -56z m-800 -174 c0 -13 -7 -20 -20 -20 -13 0 -20 7 -20 20 0 13 7 20 20 20 13 0 20 -7 20 -20z m530 0 c0 -13 -7 -20 -20 -20 -19 0 -27 20 -13 33 13 14 33 6 33 -13z"/>
 <path d="M4510 1965 c-13 -15 -16 -77 -5 -94 9 -15 58 -14 73 1 18 18 14 73 -6 91 -23 21 -46 22 -62 2z"/>
 <path d="M5895 1970 c-11 -18 15 -40 46 -40 30 0 38 17 17 38 -15 15 -55 16 -63 2z"/>
 <path d="M6262 1960 c-29 -48 -5 -104 43 -98 28 3 30 7 33 46 2 24 -2 50 -9 58 -17 20 -52 17 -67 -6z"/>
 </g>
<g id="layer112" fill="#b7c7e4" stroke="none">
 <path d="M0 2070 l0 -2070 5280 0 5280 0 0 2070 0 2070 -5280 0 -5280 0 0 -2070z m1630 1483 c1 -12 -514 -1043 -520 -1043 -3 0 -123 236 -268 525 l-262 525 525 0 c289 0 525 -3 525 -7z m800 -513 c-143 -286 -262 -520 -265 -520 -7 0 -515 1018 -515 1031 0 5 207 9 520 9 l520 0 -260 -520z m1261 423 c-27 -54 -76 -154 -109 -223 -33 -69 -128 -262 -210 -430 l-150 -305 -72 145 c-40 80 -157 317 -261 528 l-188 382 520 0 519 0 -49 -97z m4073 -420 c-140 -285 -258 -521 -262 -525 -4 -4 -41 61 -82 145 -108 223 -431 881 -437 890 -2 4 230 7 516 7 l520 0 -255 -517z m1046 -3 c-143 -286 -262 -520 -265 -520 -7 0 -515 1017 -515 1030 0 7 179 10 520 10 l520 0 -260 -520z m1267 433 c-24 -49 -111 -225 -193 -393 -82 -167 -179 -365 -215 -440 l-67 -135 -97 195 c-54 107 -171 345 -261 528 l-163 332 520 0 519 0 -43 -87z m-8141 -1425 c-122 -249 -237 -486 -256 -525 -18 -40 -36 -73 -40 -73 -3 0 -36 62 -72 138 -79 163 -438 894 -445 905 -2 4 230 7 516 7 l520 0 -223 -452z m7402 -73 c-145 -289 -265 -525 -268 -525 -3 0 -120 230 -260 510 -140 281 -257 510 -260 510 -3 0 -118 -229 -255 -510 -137 -280 -252 -510 -255 -510 -4 0 -38 66 -78 148 -81 169 -432 883 -439 895 -2 4 464 7 1036 7 l1041 0 -262 -525z m-5278 265 l0 -110 1335 0 1335 0 0 110 c0 82 3 110 13 110 7 0 116 -104 242 -230 l230 -230 -235 -235 c-129 -129 -238 -231 -242 -227 -4 4 -9 54 -10 112 l-3 105 -1330 0 -1330 0 -3 -105 c-1 -58 -7 -109 -11 -113 -7 -7 -411 386 -460 447 -13 16 5 37 215 247 126 126 234 229 241 229 10 0 13 -28 13 -110z m-1535 -1142 c-96 -189 -214 -421 -263 -515 -48 -95 -89 -173 -92 -173 -3 0 -44 78 -92 173 -49 94 -167 326 -263 515 l-175 342 530 0 530 0 -175 -342z m6442 120 c-63 -123 -181 -355 -263 -515 -82 -161 -151 -293 -154 -293 -3 0 -49 87 -103 193 -54 105 -172 337 -262 515 l-165 322 531 0 530 0 -114 -222z"/>
 <path d="M3815 2090 l-200 -200 200 -200 c110 -110 203 -200 207 -200 4 0 9 42 10 93 l3 92 1360 0 1360 0 3 -92 c1 -51 6 -93 10 -93 4 0 97 90 207 200 l200 200 -200 200 c-110 110 -203 200 -207 200 -5 0 -8 -43 -8 -95 l0 -95 -1365 0 -1365 0 0 95 c0 52 -3 95 -8 95 -4 0 -97 -90 -207 -200z m586 -109 c16 -16 29 -37 29 -45 0 -26 -29 -18 -57 14 -40 48 -93 36 -113 -26 -24 -71 8 -134 66 -134 25 0 38 7 50 25 18 27 22 29 43 16 11 -7 10 -13 -4 -34 -39 -60 -147 -57 -185 6 -13 21 -20 50 -20 86 0 47 4 57 34 87 29 29 41 34 81 34 38 0 52 -5 76 -29z m204 4 c19 -18 25 -35 25 -66 0 -83 -81 -127 -144 -78 -22 17 -26 28 -26 72 0 38 5 56 22 74 30 32 90 32 123 -2z m97 -47 c3 -71 4 -73 31 -76 l27 -3 0 75 c0 69 2 76 20 76 18 0 20 -7 20 -58 0 -64 16 -96 46 -90 16 3 19 13 22 76 3 64 5 72 22 72 18 0 20 -7 20 -73 0 -94 -16 -122 -69 -113 -20 3 -40 6 -46 5 -5 0 -38 -2 -72 -4 l-63 -3 0 94 c0 87 2 94 20 94 17 0 19 -8 22 -72z m278 9 c0 -65 11 -87 41 -87 23 0 29 20 29 92 0 49 3 59 16 56 12 -2 16 -18 18 -63 3 -72 9 -85 42 -85 23 0 24 2 24 75 0 68 2 75 20 75 18 0 20 -7 20 -77 0 -57 -4 -81 -17 -95 -18 -20 -63 -24 -81 -6 -8 8 -15 8 -24 0 -7 -6 -39 -10 -71 -9 l-57 1 0 93 c0 86 1 93 20 93 18 0 20 -7 20 -63z m398 -30 c-3 -78 -6 -92 -20 -95 -15 -3 -18 5 -18 52 0 63 -16 106 -40 106 -30 0 -40 -23 -40 -93 0 -60 -2 -68 -17 -65 -15 3 -18 15 -18 79 0 100 8 109 91 108 l65 -1 -3 -91z m72 44 c0 -74 14 -103 48 -99 26 3 27 5 30 76 3 64 5 72 22 72 18 0 20 -7 20 -73 0 -102 -13 -118 -91 -115 -32 2 -59 6 -59 11 0 4 0 45 0 92 0 69 3 85 15 85 11 0 15 -12 15 -49z m198 -43 c-3 -79 -6 -93 -20 -96 -16 -3 -18 6 -18 92 0 90 1 96 20 96 20 0 21 -5 18 -92z m164 75 c21 -18 24 -53 5 -53 -7 0 -18 9 -25 21 -30 48 -90 -6 -73 -67 5 -22 14 -30 36 -32 18 -2 31 2 37 12 13 22 38 20 38 -3 0 -25 -36 -51 -71 -51 -14 0 -38 9 -53 21 -22 17 -26 28 -26 72 0 38 5 56 22 74 26 28 82 31 110 6z m200 -62 c-3 -48 -10 -82 -20 -93 -29 -34 -132 -13 -132 27 0 22 22 30 34 12 19 -25 76 -27 76 -2 0 9 -14 17 -37 21 -55 9 -83 30 -83 61 0 39 26 52 101 51 l66 -1 -5 -76z m118 64 c0 -7 -7 -18 -16 -23 -8 -5 -18 -28 -21 -52 -5 -37 -3 -45 18 -62 l24 -19 -22 -16 c-13 -8 -23 -24 -23 -34 0 -24 -19 -25 -27 -1 -3 9 -12 24 -20 33 -12 14 -12 19 2 32 10 10 15 34 15 70 0 31 3 62 6 71 8 21 64 22 64 1z m50 -81 c0 -86 -2 -95 -17 -92 -15 3 -18 16 -21 82 -3 89 0 106 23 106 12 0 15 -16 15 -96z m177 74 c33 -31 33 -109 -2 -143 -56 -57 -145 -10 -145 76 0 79 91 120 147 67z m93 -34 c0 -67 13 -94 44 -94 28 0 36 21 36 98 0 44 3 53 17 50 14 -3 16 -15 14 -83 -2 -97 -11 -106 -90 -102 l-56 3 -3 92 c-3 87 -2 92 18 92 18 0 20 -6 20 -56z m-800 -174 c0 -13 -7 -20 -20 -20 -13 0 -20 7 -20 20 0 13 7 20 20 20 13 0 20 -7 20 -20z m530 0 c0 -13 -7 -20 -20 -20 -19 0 -27 20 -13 33 13 14 33 6 33 -13z"/>
 <path d="M4510 1965 c-13 -15 -16 -77 -5 -94 9 -15 58 -14 73 1 18 18 14 73 -6 91 -23 21 -46 22 -62 2z"/>
 <path d="M5895 1970 c-11 -18 15 -40 46 -40 30 0 38 17 17 38 -15 15 -55 16 -63 2z"/>
 <path d="M6262 1960 c-29 -48 -5 -104 43 -98 28 3 30 7 33 46 2 24 -2 50 -9 58 -17 20 -52 17 -67 -6z"/>
 </g>
<g id="layer113" fill="#e2dfe5" stroke="none">
 <path d="M0 2070 l0 -2070 5280 0 5280 0 0 2070 0 2070 -5280 0 -5280 0 0 -2070z m3714 1438 c-27 -53 -184 -374 -380 -776 -57 -117 -104 -217 -104 -222 0 -6 -198 -10 -537 -10 -296 0 -533 -4 -527 -8 7 -4 129 -242 273 -529 l261 -523 -175 -342 c-96 -189 -214 -421 -263 -515 -48 -95 -89 -173 -92 -173 -19 0 -1055 2084 -1045 2101 4 5 0 7 -7 4 -9 -4 -96 162 -275 520 l-263 525 1580 0 1580 0 -26 -52z m4050 -465 c-140 -285 -258 -521 -262 -525 -4 -4 -41 61 -82 145 -108 223 -431 881 -437 890 -2 4 230 7 516 7 l520 0 -255 -517z m1046 -3 c-143 -286 -262 -520 -265 -520 -7 0 -515 1017 -515 1030 0 7 179 10 520 10 l520 0 -260 -520z m1267 433 c-24 -49 -111 -225 -193 -393 -82 -167 -179 -365 -215 -440 l-67 -135 -97 195 c-54 107 -171 345 -261 528 l-163 332 520 0 519 0 -43 -87z m-739 -1498 c-145 -289 -265 -525 -268 -525 -3 0 -120 230 -260 510 -140 281 -257 510 -260 510 -3 0 -118 -229 -255 -510 -137 -280 -252 -510 -255 -510 -4 0 -38 66 -78 148 -81 169 -432 883 -439 895 -2 4 464 7 1036 7 l1041 0 -262 -525z m-5278 265 l0 -110 1335 0 1335 0 0 110 c0 82 3 110 13 110 7 0 116 -104 242 -230 l230 -230 -235 -235 c-129 -129 -238 -231 -242 -227 -4 4 -9 54 -10 112 l-3 105 -1330 0 -1330 0 -3 -105 c-1 -58 -7 -109 -11 -113 -7 -7 -411 386 -460 447 -13 16 5 37 215 247 126 126 234 229 241 229 10 0 13 -28 13 -110z m4907 -1022 c-63 -123 -181 -355 -263 -515 -82 -161 -151 -293 -154 -293 -3 0 -49 87 -103 193 -54 105 -172 337 -262 515 l-165 322 531 0 530 0 -114 -222z"/>
 <path d="M1250 2779 c-7 -11 -10 -23 -7 -25 2 -2 9 7 15 21 14 30 7 33 -8 4z"/>
 <path d="M2056 2707 c3 -10 9 -15 12 -12 3 3 0 11 -7 18 -10 9 -11 8 -5 -6z"/>
 <path d="M1195 2669 c-9 -17 -15 -33 -13 -35 3 -2 12 12 21 31 21 43 13 47 -8 4z"/>
 <path d="M2076 2667 c3 -10 9 -15 12 -12 3 3 0 11 -7 18 -10 9 -11 8 -5 -6z"/>
 <path d="M1155 2589 c-9 -17 -15 -33 -13 -35 3 -2 12 12 21 31 21 43 13 47 -8 4z"/>
 <path d="M2127 2565 c9 -19 18 -33 21 -31 4 5 -26 66 -33 66 -3 0 3 -16 12 -35z"/>
 <path d="M3815 2090 l-200 -200 200 -200 c110 -110 203 -200 207 -200 4 0 9 42 10 93 l3 92 1360 0 1360 0 3 -92 c1 -51 6 -93 10 -93 4 0 97 90 207 200 l200 200 -200 200 c-110 110 -203 200 -207 200 -5 0 -8 -43 -8 -95 l0 -95 -1365 0 -1365 0 0 95 c0 52 -3 95 -8 95 -4 0 -97 -90 -207 -200z m586 -109 c16 -16 29 -37 29 -45 0 -26 -29 -18 -57 14 -40 48 -93 36 -113 -26 -24 -71 8 -134 66 -134 25 0 38 7 50 25 18 27 22 29 43 16 11 -7 10 -13 -4 -34 -39 -60 -147 -57 -185 6 -13 21 -20 50 -20 86 0 47 4 57 34 87 29 29 41 34 81 34 38 0 52 -5 76 -29z m204 4 c19 -18 25 -35 25 -66 0 -83 -81 -127 -144 -78 -22 17 -26 28 -26 72 0 38 5 56 22 74 30 32 90 32 123 -2z m97 -47 c3 -71 4 -73 31 -76 l27 -3 0 75 c0 69 2 76 20 76 18 0 20 -7 20 -58 0 -64 16 -96 46 -90 16 3 19 13 22 76 3 64 5 72 22 72 18 0 20 -7 20 -73 0 -94 -16 -122 -69 -113 -20 3 -40 6 -46 5 -5 0 -38 -2 -72 -4 l-63 -3 0 94 c0 87 2 94 20 94 17 0 19 -8 22 -72z m278 9 c0 -65 11 -87 41 -87 23 0 29 20 29 92 0 49 3 59 16 56 12 -2 16 -18 18 -63 3 -72 9 -85 42 -85 23 0 24 2 24 75 0 68 2 75 20 75 18 0 20 -7 20 -77 0 -57 -4 -81 -17 -95 -18 -20 -63 -24 -81 -6 -8 8 -15 8 -24 0 -7 -6 -39 -10 -71 -9 l-57 1 0 93 c0 86 1 93 20 93 18 0 20 -7 20 -63z m398 -30 c-3 -78 -6 -92 -20 -95 -15 -3 -18 5 -18 52 0 63 -16 106 -40 106 -30 0 -40 -23 -40 -93 0 -60 -2 -68 -17 -65 -15 3 -18 15 -18 79 0 100 8 109 91 108 l65 -1 -3 -91z m72 44 c0 -74 14 -103 48 -99 26 3 27 5 30 76 3 64 5 72 22 72 18 0 20 -7 20 -73 0 -102 -13 -118 -91 -115 -32 2 -59 6 -59 11 0 4 0 45 0 92 0 69 3 85 15 85 11 0 15 -12 15 -49z m198 -43 c-3 -79 -6 -93 -20 -96 -16 -3 -18 6 -18 92 0 90 1 96 20 96 20 0 21 -5 18 -92z m164 75 c21 -18 24 -53 5 -53 -7 0 -18 9 -25 21 -30 48 -90 -6 -73 -67 5 -22 14 -30 36 -32 18 -2 31 2 37 12 13 22 38 20 38 -3 0 -25 -36 -51 -71 -51 -14 0 -38 9 -53 21 -22 17 -26 28 -26 72 0 38 5 56 22 74 26 28 82 31 110 6z m200 -62 c-3 -48 -10 -82 -20 -93 -29 -34 -132 -13 -132 27 0 22 22 30 34 12 19 -25 76 -27 76 -2 0 9 -14 17 -37 21 -55 9 -83 30 -83 61 0 39 26 52 101 51 l66 -1 -5 -76z m118 64 c0 -7 -7 -18 -16 -23 -8 -5 -18 -28 -21 -52 -5 -37 -3 -45 18 -62 l24 -19 -22 -16 c-13 -8 -23 -24 -23 -34 0 -24 -19 -25 -27 -1 -3 9 -12 24 -20 33 -12 14 -12 19 2 32 10 10 15 34 15 70 0 31 3 62 6 71 8 21 64 22 64 1z m50 -81 c0 -86 -2 -95 -17 -92 -15 3 -18 16 -21 82 -3 89 0 106 23 106 12 0 15 -16 15 -96z m177 74 c33 -31 33 -109 -2 -143 -56 -57 -145 -10 -145 76 0 79 91 120 147 67z m93 -34 c0 -67 13 -94 44 -94 28 0 36 21 36 98 0 44 3 53 17 50 14 -3 16 -15 14 -83 -2 -97 -11 -106 -90 -102 l-56 3 -3 92 c-3 87 -2 92 18 92 18 0 20 -6 20 -56z m-800 -174 c0 -13 -7 -20 -20 -20 -13 0 -20 7 -20 20 0 13 7 20 20 20 13 0 20 -7 20 -20z m530 0 c0 -13 -7 -20 -20 -20 -19 0 -27 20 -13 33 13 14 33 6 33 -13z"/>
 <path d="M4510 1965 c-13 -15 -16 -77 -5 -94 9 -15 58 -14 73 1 18 18 14 73 -6 91 -23 21 -46 22 -62 2z"/>
 <path d="M5895 1970 c-11 -18 15 -40 46 -40 30 0 38 17 17 38 -15 15 -55 16 -63 2z"/>
 <path d="M6262 1960 c-29 -48 -5 -104 43 -98 28 3 30 7 33 46 2 24 -2 50 -9 58 -17 20 -52 17 -67 -6z"/>
 </g>
<g id="layer114" fill="#fdf2d0" stroke="none">
 <path d="M0 2070 l0 -2070 5280 0 5280 0 0 2070 0 2070 -5280 0 -5280 0 0 -2070z m3664 1333 c-42 -87 -133 -275 -204 -418 -70 -143 -152 -311 -181 -372 l-54 -113 -535 0 c-294 0 -530 -4 -524 -8 7 -4 129 -243 273 -531 l262 -523 -54 -107 c-30 -58 -118 -230 -195 -381 -209 -411 -276 -540 -282 -540 -14 0 -704 1370 -974 1933 -42 88 -73 163 -70 168 3 5 -1 7 -8 4 -9 -4 -96 162 -275 520 l-263 525 1580 0 1579 0 -75 -157z m4100 -360 c-140 -285 -258 -521 -262 -525 -4 -4 -41 61 -82 145 -108 223 -431 881 -437 890 -2 4 230 7 516 7 l520 0 -255 -517z m1046 -3 c-143 -286 -262 -520 -265 -520 -7 0 -515 1017 -515 1030 0 7 179 10 520 10 l520 0 -260 -520z m1267 433 c-24 -49 -111 -225 -193 -393 -82 -167 -179 -365 -215 -440 l-67 -135 -97 195 c-54 107 -171 345 -261 528 l-163 332 520 0 519 0 -43 -87z m-739 -1498 c-145 -289 -265 -525 -268 -525 -3 0 -120 230 -260 510 -140 281 -257 510 -260 510 -3 0 -118 -229 -255 -510 -137 -280 -253 -510 -257 -510 -4 0 -35 57 -68 128 -33 70 -114 235 -180 367 -65 132 -153 311 -194 398 l-75 157 1039 0 1040 0 -262 -525z m-5277 267 l-3 -112 1337 0 1337 0 -3 112 c-2 92 0 113 12 116 8 1 119 -103 247 -231 l233 -233 -233 -232 c-128 -127 -237 -232 -243 -234 -6 -2 -12 41 -15 107 l-5 110 -1330 0 -1330 0 -1 -109 c-1 -67 -5 -111 -11 -113 -6 -2 -117 102 -246 230 l-235 235 231 234 c128 130 238 235 246 234 12 -1 14 -22 12 -114z m4906 -1024 c-63 -123 -181 -355 -263 -515 -82 -161 -151 -293 -154 -293 -3 0 -49 87 -103 193 -54 105 -172 337 -262 515 l-165 322 531 0 530 0 -114 -222z"/>
 <path d="M6773 2190 c0 -47 2 -66 4 -42 2 23 2 61 0 85 -2 23 -4 4 -4 -43z"/>
 <path d="M4305 2020 c3 -5 12 -10 20 -10 8 0 17 5 20 10 4 6 -5 10 -20 10 -15 0 -24 -4 -20 -10z"/>
 <path d="M4538 2018 c9 -9 15 -9 24 0 9 9 7 12 -12 12 -19 0 -21 -3 -12 -12z"/>
 <path d="M5278 2018 c9 -9 15 -9 24 0 9 9 7 12 -12 12 -19 0 -21 -3 -12 -12z"/>
 <path d="M5748 2018 c9 -9 15 -9 24 0 9 9 7 12 -12 12 -19 0 -21 -3 -12 -12z"/>
 <path d="M5905 2020 c4 -6 11 -8 16 -5 14 9 11 15 -7 15 -8 0 -12 -5 -9 -10z"/>
 <path d="M6093 2023 c4 -3 10 -3 14 0 3 4 0 7 -7 7 -7 0 -10 -3 -7 -7z"/>
 <path d="M6288 2018 c9 -9 15 -9 24 0 9 9 7 12 -12 12 -19 0 -21 -3 -12 -12z"/>
 <path d="M4668 2013 c7 -3 16 -2 19 1 4 3 -2 6 -13 5 -11 0 -14 -3 -6 -6z"/>
 <path d="M4778 2013 c7 -3 16 -2 19 1 4 3 -2 6 -13 5 -11 0 -14 -3 -6 -6z"/>
 <path d="M4878 2013 c6 -2 18 -2 25 0 6 3 1 5 -13 5 -14 0 -19 -2 -12 -5z"/>
 <path d="M4948 2013 c6 -2 18 -2 25 0 6 3 1 5 -13 5 -14 0 -19 -2 -12 -5z"/>
 <path d="M5058 2013 c7 -3 16 -2 19 1 4 3 -2 6 -13 5 -11 0 -14 -3 -6 -6z"/>
 <path d="M5168 2013 c7 -3 16 -2 19 1 4 3 -2 6 -13 5 -11 0 -14 -3 -6 -6z"/>
 <path d="M5348 2013 c7 -3 16 -2 19 1 4 3 -2 6 -13 5 -11 0 -14 -3 -6 -6z"/>
 <path d="M5428 2013 c7 -3 16 -2 19 1 4 3 -2 6 -13 5 -11 0 -14 -3 -6 -6z"/>
 <path d="M5538 2013 c6 -2 18 -2 25 0 6 3 1 5 -13 5 -14 0 -19 -2 -12 -5z"/>
 <path d="M5618 2013 c7 -3 16 -2 19 1 4 3 -2 6 -13 5 -11 0 -14 -3 -6 -6z"/>
 <path d="M5943 2013 c4 -3 10 -3 14 0 3 4 0 7 -7 7 -7 0 -10 -3 -7 -7z"/>
 <path d="M5988 2013 c6 -2 18 -2 25 0 6 3 1 5 -13 5 -14 0 -19 -2 -12 -5z"/>
 <path d="M6158 2013 c7 -3 16 -2 19 1 4 3 -2 6 -13 5 -11 0 -14 -3 -6 -6z"/>
 <path d="M6428 2013 c7 -3 16 -2 19 1 4 3 -2 6 -13 5 -11 0 -14 -3 -6 -6z"/>
 <path d="M6538 2013 c7 -3 16 -2 19 1 4 3 -2 6 -13 5 -11 0 -14 -3 -6 -6z"/>
 <path d="M4807 2003 c-11 -10 -8 -101 3 -108 6 -4 10 17 10 54 0 62 -1 66 -13 54z"/>
 <path d="M4850 1940 c0 -65 -2 -71 -17 -65 -14 5 -15 4 -6 -6 10 -10 15 -9 28 1 17 14 22 125 5 135 -6 4 -10 -20 -10 -65z"/>
 <path d="M5086 1994 c-10 -25 -7 -82 4 -89 6 -4 10 15 10 49 0 58 -3 68 -14 40z"/>
 <path d="M5195 2000 c-9 -14 -2 -161 7 -152 8 8 13 150 5 158 -3 3 -8 0 -12 -6z"/>
 <path d="M5384 1920 c0 -52 1 -74 3 -47 2 26 2 68 0 95 -2 26 -3 4 -3 -48z"/>
 <path d="M5457 2003 c-11 -10 -8 -81 3 -88 6 -4 10 13 10 44 0 52 -1 56 -13 44z"/>
 <path d="M6567 1995 c-4 -8 -2 -17 3 -20 6 -4 10 3 10 14 0 25 -6 27 -13 6z"/>
 <path d="M5825 1990 c3 -5 8 -10 11 -10 3 0 2 5 -1 10 -3 6 -8 10 -11 10 -3 0 -2 -4 1 -10z"/>
 <path d="M4415 1980 c3 -5 8 -10 11 -10 3 0 2 5 -1 10 -3 6 -8 10 -11 10 -3 0 -2 -4 1 -10z"/>
 <path d="M4315 1970 c-3 -5 1 -10 10 -10 9 0 13 5 10 10 -3 6 -8 10 -10 10 -2 0 -7 -4 -10 -10z"/>
 <path d="M4639 1978 c0 -2 -2 -26 -2 -54 -2 -42 0 -48 10 -35 15 20 16 48 2 56 -6 4 -8 13 -5 21 3 8 3 14 1 14 -3 0 -5 -1 -6 -2z"/>
 <path d="M5663 1965 c-3 -9 -3 -18 -1 -21 3 -3 8 4 11 16 6 23 -1 27 -10 5z"/>
 <path d="M6017 1972 c-5 -6 -7 -38 -5 -71 2 -52 4 -57 20 -47 9 5 13 13 8 16 -5 3 -10 30 -12 60 -2 33 -6 50 -11 42z"/>
 <path d="M6305 1970 c-3 -5 -1 -10 4 -10 6 0 11 5 11 10 0 6 -2 10 -4 10 -3 0 -8 -4 -11 -10z"/>
 <path d="M6383 1973 c4 -3 10 -3 14 0 3 4 0 7 -7 7 -7 0 -10 -3 -7 -7z"/>
 <path d="M4515 1959 c-4 -6 -5 -12 -2 -15 2 -3 7 2 10 11 7 17 1 20 -8 4z"/>
 <path d="M4920 1960 c0 -7 3 -10 7 -7 3 4 3 10 0 14 -4 3 -7 0 -7 -7z"/>
 <path d="M5902 1953 c17 -16 71 -26 62 -11 -3 4 -16 8 -30 8 -13 0 -24 5 -24 10 0 6 -5 10 -12 10 -8 0 -6 -6 4 -17z"/>
 <path d="M6095 1936 c-9 -48 -3 -70 20 -73 11 -2 14 0 8 3 -8 3 -13 24 -13 49 0 25 5 45 13 48 7 3 5 6 -5 6 -12 1 -19 -10 -23 -33z"/>
 <path d="M6192 1958 c-16 -16 -15 -63 1 -76 9 -8 12 1 12 39 0 27 0 49 0 49 -1 0 -6 -5 -13 -12z"/>
 <path d="M4437 1940 c3 -11 9 -17 15 -14 5 3 4 12 -3 20 -16 19 -18 18 -12 -6z"/>
 <path d="M6386 1943 c-5 -20 -2 -81 6 -88 2 -3 6 20 7 50 2 55 -3 70 -13 38z"/>
 <path d="M6567 1953 c-11 -10 -8 -91 3 -98 6 -4 10 15 10 49 0 57 -1 61 -13 49z"/>
 <path d="M4200 1940 c0 -7 3 -10 7 -7 3 4 3 10 0 14 -4 3 -7 0 -7 -7z"/>
 <path d="M4366 1937 c3 -10 9 -15 12 -12 3 3 0 11 -7 18 -10 9 -11 8 -5 -6z"/>
 <path d="M5030 1940 c0 -7 3 -10 7 -7 3 4 3 10 0 14 -4 3 -7 0 -7 -7z"/>
 <path d="M5267 1943 c-11 -10 -8 -101 3 -108 6 -4 10 17 10 54 0 62 -1 66 -13 54z"/>
 <path d="M6320 1940 c0 -7 3 -10 7 -7 3 4 3 10 0 14 -4 3 -7 0 -7 -7z"/>
 <path d="M4495 1921 c-3 -5 -1 -12 5 -16 5 -3 10 1 10 9 0 18 -6 21 -15 7z"/>
 <path d="M4191 1880 c1 -42 1 -43 10 -18 7 18 7 33 0 45 -8 14 -10 9 -10 -27z"/>
 <path d="M5030 1910 c0 -7 3 -10 7 -7 3 4 3 10 0 14 -4 3 -7 0 -7 -7z"/>
 <path d="M5510 1910 c0 -7 3 -10 7 -7 3 4 3 10 0 14 -4 3 -7 0 -7 -7z"/>
 <path d="M4393 1903 c4 -3 10 -3 14 0 3 4 0 7 -7 7 -7 0 -10 -3 -7 -7z"/>
 <path d="M5320 1900 c0 -7 3 -10 7 -7 3 4 3 10 0 14 -4 3 -7 0 -7 -7z"/>
 <path d="M5818 1893 c12 -2 20 -8 17 -13 -3 -5 0 -12 6 -15 7 -5 10 0 7 11 -2 12 -13 20 -28 21 -22 1 -23 1 -2 -4z"/>
 <path d="M5860 1896 c0 -2 11 -6 25 -8 13 -3 22 -1 19 3 -5 9 -44 13 -44 5z"/>
 <path d="M4713 1880 c4 -18 37 -27 37 -10 0 6 -5 8 -11 4 -6 -3 -16 0 -21 7 -8 12 -9 11 -5 -1z"/>
 <path d="M4996 1876 c3 -9 13 -16 22 -16 8 0 13 1 11 3 -2 1 -12 9 -22 16 -15 12 -17 12 -11 -3z"/>
 <path d="M5103 1880 c4 -18 37 -27 37 -10 0 6 -5 8 -11 4 -6 -3 -16 0 -21 7 -8 12 -9 11 -5 -1z"/>
 <path d="M5474 1878 c2 -7 11 -13 21 -13 10 0 19 6 21 13 1 7 0 8 -3 2 -2 -5 -11 -10 -18 -10 -7 0 -16 5 -18 10 -3 6 -4 5 -3 -2z"/>
 <path d="M5660 1876 c0 -8 4 -17 9 -20 5 -4 7 3 4 14 -6 23 -13 26 -13 6z"/>
 <path d="M5733 1880 c2 -8 14 -16 28 -17 19 -1 20 -1 4 4 -11 3 -24 10 -28 17 -6 7 -7 6 -4 -4z"/>
 <path d="M5945 1880 c3 -6 -4 -10 -17 -10 -17 0 -20 -2 -9 -9 8 -5 20 -7 28 -4 15 6 18 33 2 33 -5 0 -7 -4 -4 -10z"/>
 <path d="M6272 1874 c9 -9 21 -15 27 -13 6 2 -2 10 -17 17 -25 11 -25 11 -10 -4z"/>
 <path d="M6472 1874 c9 -9 21 -15 27 -13 6 2 -2 10 -17 17 -25 11 -25 11 -10 -4z"/>
 <path d="M4540 1870 c-23 -7 -23 -8 -3 -9 12 -1 25 4 28 9 3 6 5 10 3 9 -2 -1 -14 -5 -28 -9z"/>
 <path d="M4413 1843 c4 -3 10 -3 14 0 3 4 0 7 -7 7 -7 0 -10 -3 -7 -7z"/>
 <path d="M5824 1838 c-4 -7 -3 -8 4 -4 12 7 16 16 8 16 -3 0 -8 -5 -12 -12z"/>
 <path d="M4282 1814 c10 -10 20 -16 22 -13 3 3 -5 11 -17 18 -21 13 -21 12 -5 -5z"/>
 <path d="M4340 1805 c-14 -8 -20 -14 -14 -15 5 0 19 7 30 15 24 18 16 19 -16 0z"/>
 <path d="M4508 1813 c7 -3 16 -2 19 1 4 3 -2 6 -13 5 -11 0 -14 -3 -6 -6z"/>
 <path d="M4563 1813 c4 -3 10 -3 14 0 3 4 0 7 -7 7 -7 0 -10 -3 -7 -7z"/>
 <path d="M4668 1813 c7 -3 16 -2 19 1 4 3 -2 6 -13 5 -11 0 -14 -3 -6 -6z"/>
 <path d="M4763 1813 c4 -3 10 -3 14 0 3 4 0 7 -7 7 -7 0 -10 -3 -7 -7z"/>
 <path d="M4813 1813 c4 -3 10 -3 14 0 3 4 0 7 -7 7 -7 0 -10 -3 -7 -7z"/>
 <path d="M4863 1813 c4 -3 10 -3 14 0 3 4 0 7 -7 7 -7 0 -10 -3 -7 -7z"/>
 <path d="M4948 1813 c6 -2 18 -2 25 0 6 3 1 5 -13 5 -14 0 -19 -2 -12 -5z"/>
 <path d="M4993 1813 c4 -3 10 -3 14 0 3 4 0 7 -7 7 -7 0 -10 -3 -7 -7z"/>
 <path d="M5153 1813 c4 -3 10 -3 14 0 3 4 0 7 -7 7 -7 0 -10 -3 -7 -7z"/>
 <path d="M5228 1813 c6 -2 18 -2 25 0 6 3 1 5 -13 5 -14 0 -19 -2 -12 -5z"/>
 <path d="M5348 1813 c6 -2 18 -2 25 0 6 3 1 5 -13 5 -14 0 -19 -2 -12 -5z"/>
 <path d="M5428 1813 c7 -3 16 -2 19 1 4 3 -2 6 -13 5 -11 0 -14 -3 -6 -6z"/>
 <path d="M5523 1813 c4 -3 10 -3 14 0 3 4 0 7 -7 7 -7 0 -10 -3 -7 -7z"/>
 <path d="M5618 1813 c6 -2 18 -2 25 0 6 3 1 5 -13 5 -14 0 -19 -2 -12 -5z"/>
 <path d="M5723 1813 c4 -3 10 -3 14 0 3 4 0 7 -7 7 -7 0 -10 -3 -7 -7z"/>
 <path d="M5783 1813 c4 -3 10 -3 14 0 3 4 0 7 -7 7 -7 0 -10 -3 -7 -7z"/>
 <path d="M5893 1813 c4 -3 10 -3 14 0 3 4 0 7 -7 7 -7 0 -10 -3 -7 -7z"/>
 <path d="M5973 1813 c4 -3 10 -3 14 0 3 4 0 7 -7 7 -7 0 -10 -3 -7 -7z"/>
 <path d="M6040 1810 c0 -7 3 -10 7 -7 3 4 3 10 0 14 -4 3 -7 0 -7 -7z"/>
 <path d="M6094 1805 c-4 -8 -3 -23 2 -32 6 -15 8 -14 12 7 2 14 9 28 16 32 7 5 5 8 -7 8 -10 0 -20 -7 -23 -15z"/>
 <path d="M6148 1813 c6 -2 18 -2 25 0 6 3 1 5 -13 5 -14 0 -19 -2 -12 -5z"/>
 <path d="M6263 1813 c4 -3 10 -3 14 0 3 4 0 7 -7 7 -7 0 -10 -3 -7 -7z"/>
 <path d="M6318 1813 c7 -3 16 -2 19 1 4 3 -2 6 -13 5 -11 0 -14 -3 -6 -6z"/>
 <path d="M6418 1813 c6 -2 18 -2 25 0 6 3 1 5 -13 5 -14 0 -19 -2 -12 -5z"/>
 <path d="M6463 1813 c4 -3 10 -3 14 0 3 4 0 7 -7 7 -7 0 -10 -3 -7 -7z"/>
 <path d="M6518 1813 c7 -3 16 -2 19 1 4 3 -2 6 -13 5 -11 0 -14 -3 -6 -6z"/>
 <path d="M4285 1750 c-4 -6 3 -10 14 -10 25 0 27 6 6 13 -8 4 -17 2 -20 -3z"/>
 <path d="M4344 1748 c-3 -4 4 -8 15 -8 11 0 22 4 25 8 2 4 -4 8 -15 8 -11 0 -23 -4 -25 -8z"/>
 <path d="M5615 1750 c-3 -5 1 -10 10 -10 9 0 13 5 10 10 -3 6 -8 10 -10 10 -2 0 -7 -4 -10 -10z"/>
 <path d="M6155 1750 c-3 -5 1 -10 10 -10 9 0 13 5 10 10 -3 6 -8 10 -10 10 -2 0 -7 -4 -10 -10z"/>
 <path d="M6773 1580 c0 -47 2 -66 4 -42 2 23 2 61 0 85 -2 23 -4 4 -4 -43z"/>
 <path d="M3885 1630 c3 -5 8 -10 11 -10 3 0 2 5 -1 10 -3 6 -8 10 -11 10 -3 0 -2 -4 1 -10z"/>
 <path d="M4010 1500 c0 -5 5 -10 11 -10 5 0 7 5 4 10 -3 6 -8 10 -11 10 -2 0 -4 -4 -4 -10z"/>
 </g>
<g id="layer115" fill="#fefefe" stroke="none">
 <path d="M0 2070 l0 -2070 5280 0 5280 0 0 2070 0 2070 -5280 0 -5280 0 0 -2070z m3664 1333 c-42 -87 -133 -275 -204 -418 -70 -143 -152 -311 -181 -372 l-54 -113 -535 0 c-294 0 -530 -4 -524 -8 7 -4 129 -243 273 -531 l262 -523 -54 -107 c-30 -58 -118 -230 -195 -381 -209 -411 -276 -540 -282 -540 -14 0 -704 1370 -974 1933 -42 88 -73 163 -70 168 3 5 -1 7 -8 4 -9 -4 -96 162 -275 520 l-263 525 1580 0 1579 0 -75 -157z m6454 149 c-1 -5 -43 -90 -91 -188 -48 -98 -144 -294 -213 -434 -69 -140 -263 -532 -432 -870 -168 -338 -305 -619 -304 -624 2 -4 -23 -56 -55 -115 -63 -118 -301 -584 -402 -788 -36 -73 -68 -133 -71 -133 -3 0 -37 64 -76 143 -111 223 -324 640 -392 768 -34 64 -61 125 -60 135 2 21 -51 136 -232 499 -65 132 -153 311 -194 398 -43 91 -81 157 -89 157 -8 0 -33 41 -57 93 -60 129 -328 677 -405 829 -36 69 -65 129 -65 132 0 3 707 6 1571 6 864 0 1569 -4 1567 -8z m-6057 -1310 l-3 -112 1337 0 1337 0 -3 112 c-2 92 0 113 12 116 8 1 119 -103 247 -231 l233 -233 -233 -232 c-128 -127 -237 -232 -243 -234 -6 -2 -12 41 -15 107 l-5 110 -1330 0 -1330 0 -1 -109 c-1 -67 -5 -111 -11 -113 -6 -2 -117 102 -246 230 l-235 235 231 234 c128 130 238 235 246 234 12 -1 14 -22 12 -114z"/>
 <path d="M6773 2190 c0 -47 2 -66 4 -42 2 23 2 61 0 85 -2 23 -4 4 -4 -43z"/>
 <path d="M4305 2020 c3 -5 12 -10 20 -10 8 0 17 5 20 10 4 6 -5 10 -20 10 -15 0 -24 -4 -20 -10z"/>
 <path d="M4538 2018 c9 -9 15 -9 24 0 9 9 7 12 -12 12 -19 0 -21 -3 -12 -12z"/>
 <path d="M5278 2018 c9 -9 15 -9 24 0 9 9 7 12 -12 12 -19 0 -21 -3 -12 -12z"/>
 <path d="M5748 2018 c9 -9 15 -9 24 0 9 9 7 12 -12 12 -19 0 -21 -3 -12 -12z"/>
 <path d="M5905 2020 c4 -6 11 -8 16 -5 14 9 11 15 -7 15 -8 0 -12 -5 -9 -10z"/>
 <path d="M6093 2023 c4 -3 10 -3 14 0 3 4 0 7 -7 7 -7 0 -10 -3 -7 -7z"/>
 <path d="M6288 2018 c9 -9 15 -9 24 0 9 9 7 12 -12 12 -19 0 -21 -3 -12 -12z"/>
 <path d="M4668 2013 c7 -3 16 -2 19 1 4 3 -2 6 -13 5 -11 0 -14 -3 -6 -6z"/>
 <path d="M4778 2013 c7 -3 16 -2 19 1 4 3 -2 6 -13 5 -11 0 -14 -3 -6 -6z"/>
 <path d="M4878 2013 c6 -2 18 -2 25 0 6 3 1 5 -13 5 -14 0 -19 -2 -12 -5z"/>
 <path d="M4948 2013 c6 -2 18 -2 25 0 6 3 1 5 -13 5 -14 0 -19 -2 -12 -5z"/>
 <path d="M5058 2013 c7 -3 16 -2 19 1 4 3 -2 6 -13 5 -11 0 -14 -3 -6 -6z"/>
 <path d="M5168 2013 c7 -3 16 -2 19 1 4 3 -2 6 -13 5 -11 0 -14 -3 -6 -6z"/>
 <path d="M5348 2013 c7 -3 16 -2 19 1 4 3 -2 6 -13 5 -11 0 -14 -3 -6 -6z"/>
 <path d="M5428 2013 c7 -3 16 -2 19 1 4 3 -2 6 -13 5 -11 0 -14 -3 -6 -6z"/>
 <path d="M5538 2013 c6 -2 18 -2 25 0 6 3 1 5 -13 5 -14 0 -19 -2 -12 -5z"/>
 <path d="M5618 2013 c7 -3 16 -2 19 1 4 3 -2 6 -13 5 -11 0 -14 -3 -6 -6z"/>
 <path d="M5943 2013 c4 -3 10 -3 14 0 3 4 0 7 -7 7 -7 0 -10 -3 -7 -7z"/>
 <path d="M5988 2013 c6 -2 18 -2 25 0 6 3 1 5 -13 5 -14 0 -19 -2 -12 -5z"/>
 <path d="M6158 2013 c7 -3 16 -2 19 1 4 3 -2 6 -13 5 -11 0 -14 -3 -6 -6z"/>
 <path d="M6428 2013 c7 -3 16 -2 19 1 4 3 -2 6 -13 5 -11 0 -14 -3 -6 -6z"/>
 <path d="M6538 2013 c7 -3 16 -2 19 1 4 3 -2 6 -13 5 -11 0 -14 -3 -6 -6z"/>
 <path d="M4807 2003 c-11 -10 -8 -101 3 -108 6 -4 10 17 10 54 0 62 -1 66 -13 54z"/>
 <path d="M4850 1940 c0 -65 -2 -71 -17 -65 -14 5 -15 4 -6 -6 10 -10 15 -9 28 1 17 14 22 125 5 135 -6 4 -10 -20 -10 -65z"/>
 <path d="M5086 1994 c-10 -25 -7 -82 4 -89 6 -4 10 15 10 49 0 58 -3 68 -14 40z"/>
 <path d="M5195 2000 c-9 -14 -2 -161 7 -152 8 8 13 150 5 158 -3 3 -8 0 -12 -6z"/>
 <path d="M5384 1920 c0 -52 1 -74 3 -47 2 26 2 68 0 95 -2 26 -3 4 -3 -48z"/>
 <path d="M5457 2003 c-11 -10 -8 -81 3 -88 6 -4 10 13 10 44 0 52 -1 56 -13 44z"/>
 <path d="M6567 1995 c-4 -8 -2 -17 3 -20 6 -4 10 3 10 14 0 25 -6 27 -13 6z"/>
 <path d="M5825 1990 c3 -5 8 -10 11 -10 3 0 2 5 -1 10 -3 6 -8 10 -11 10 -3 0 -2 -4 1 -10z"/>
 <path d="M4415 1980 c3 -5 8 -10 11 -10 3 0 2 5 -1 10 -3 6 -8 10 -11 10 -3 0 -2 -4 1 -10z"/>
 <path d="M4315 1970 c-3 -5 1 -10 10 -10 9 0 13 5 10 10 -3 6 -8 10 -10 10 -2 0 -7 -4 -10 -10z"/>
 <path d="M4639 1978 c0 -2 -2 -26 -2 -54 -2 -42 0 -48 10 -35 15 20 16 48 2 56 -6 4 -8 13 -5 21 3 8 3 14 1 14 -3 0 -5 -1 -6 -2z"/>
 <path d="M5663 1965 c-3 -9 -3 -18 -1 -21 3 -3 8 4 11 16 6 23 -1 27 -10 5z"/>
 <path d="M6017 1972 c-5 -6 -7 -38 -5 -71 2 -52 4 -57 20 -47 9 5 13 13 8 16 -5 3 -10 30 -12 60 -2 33 -6 50 -11 42z"/>
 <path d="M6305 1970 c-3 -5 -1 -10 4 -10 6 0 11 5 11 10 0 6 -2 10 -4 10 -3 0 -8 -4 -11 -10z"/>
 <path d="M6383 1973 c4 -3 10 -3 14 0 3 4 0 7 -7 7 -7 0 -10 -3 -7 -7z"/>
 <path d="M4515 1959 c-4 -6 -5 -12 -2 -15 2 -3 7 2 10 11 7 17 1 20 -8 4z"/>
 <path d="M4920 1960 c0 -7 3 -10 7 -7 3 4 3 10 0 14 -4 3 -7 0 -7 -7z"/>
 <path d="M5902 1953 c17 -16 71 -26 62 -11 -3 4 -16 8 -30 8 -13 0 -24 5 -24 10 0 6 -5 10 -12 10 -8 0 -6 -6 4 -17z"/>
 <path d="M6095 1936 c-9 -48 -3 -70 20 -73 11 -2 14 0 8 3 -8 3 -13 24 -13 49 0 25 5 45 13 48 7 3 5 6 -5 6 -12 1 -19 -10 -23 -33z"/>
 <path d="M6192 1958 c-16 -16 -15 -63 1 -76 9 -8 12 1 12 39 0 27 0 49 0 49 -1 0 -6 -5 -13 -12z"/>
 <path d="M4437 1940 c3 -11 9 -17 15 -14 5 3 4 12 -3 20 -16 19 -18 18 -12 -6z"/>
 <path d="M6386 1943 c-5 -20 -2 -81 6 -88 2 -3 6 20 7 50 2 55 -3 70 -13 38z"/>
 <path d="M6567 1953 c-11 -10 -8 -91 3 -98 6 -4 10 15 10 49 0 57 -1 61 -13 49z"/>
 <path d="M4200 1940 c0 -7 3 -10 7 -7 3 4 3 10 0 14 -4 3 -7 0 -7 -7z"/>
 <path d="M4366 1937 c3 -10 9 -15 12 -12 3 3 0 11 -7 18 -10 9 -11 8 -5 -6z"/>
 <path d="M5030 1940 c0 -7 3 -10 7 -7 3 4 3 10 0 14 -4 3 -7 0 -7 -7z"/>
 <path d="M5267 1943 c-11 -10 -8 -101 3 -108 6 -4 10 17 10 54 0 62 -1 66 -13 54z"/>
 <path d="M6320 1940 c0 -7 3 -10 7 -7 3 4 3 10 0 14 -4 3 -7 0 -7 -7z"/>
 <path d="M4495 1921 c-3 -5 -1 -12 5 -16 5 -3 10 1 10 9 0 18 -6 21 -15 7z"/>
 <path d="M4191 1880 c1 -42 1 -43 10 -18 7 18 7 33 0 45 -8 14 -10 9 -10 -27z"/>
 <path d="M5030 1910 c0 -7 3 -10 7 -7 3 4 3 10 0 14 -4 3 -7 0 -7 -7z"/>
 <path d="M5510 1910 c0 -7 3 -10 7 -7 3 4 3 10 0 14 -4 3 -7 0 -7 -7z"/>
 <path d="M4393 1903 c4 -3 10 -3 14 0 3 4 0 7 -7 7 -7 0 -10 -3 -7 -7z"/>
 <path d="M5320 1900 c0 -7 3 -10 7 -7 3 4 3 10 0 14 -4 3 -7 0 -7 -7z"/>
 <path d="M5818 1893 c12 -2 20 -8 17 -13 -3 -5 0 -12 6 -15 7 -5 10 0 7 11 -2 12 -13 20 -28 21 -22 1 -23 1 -2 -4z"/>
 <path d="M5860 1896 c0 -2 11 -6 25 -8 13 -3 22 -1 19 3 -5 9 -44 13 -44 5z"/>
 <path d="M4713 1880 c4 -18 37 -27 37 -10 0 6 -5 8 -11 4 -6 -3 -16 0 -21 7 -8 12 -9 11 -5 -1z"/>
 <path d="M4996 1876 c3 -9 13 -16 22 -16 8 0 13 1 11 3 -2 1 -12 9 -22 16 -15 12 -17 12 -11 -3z"/>
 <path d="M5103 1880 c4 -18 37 -27 37 -10 0 6 -5 8 -11 4 -6 -3 -16 0 -21 7 -8 12 -9 11 -5 -1z"/>
 <path d="M5474 1878 c2 -7 11 -13 21 -13 10 0 19 6 21 13 1 7 0 8 -3 2 -2 -5 -11 -10 -18 -10 -7 0 -16 5 -18 10 -3 6 -4 5 -3 -2z"/>
 <path d="M5660 1876 c0 -8 4 -17 9 -20 5 -4 7 3 4 14 -6 23 -13 26 -13 6z"/>
 <path d="M5733 1880 c2 -8 14 -16 28 -17 19 -1 20 -1 4 4 -11 3 -24 10 -28 17 -6 7 -7 6 -4 -4z"/>
 <path d="M5945 1880 c3 -6 -4 -10 -17 -10 -17 0 -20 -2 -9 -9 8 -5 20 -7 28 -4 15 6 18 33 2 33 -5 0 -7 -4 -4 -10z"/>
 <path d="M6272 1874 c9 -9 21 -15 27 -13 6 2 -2 10 -17 17 -25 11 -25 11 -10 -4z"/>
 <path d="M6472 1874 c9 -9 21 -15 27 -13 6 2 -2 10 -17 17 -25 11 -25 11 -10 -4z"/>
 <path d="M4540 1870 c-23 -7 -23 -8 -3 -9 12 -1 25 4 28 9 3 6 5 10 3 9 -2 -1 -14 -5 -28 -9z"/>
 <path d="M4413 1843 c4 -3 10 -3 14 0 3 4 0 7 -7 7 -7 0 -10 -3 -7 -7z"/>
 <path d="M5824 1838 c-4 -7 -3 -8 4 -4 12 7 16 16 8 16 -3 0 -8 -5 -12 -12z"/>
 <path d="M4282 1814 c10 -10 20 -16 22 -13 3 3 -5 11 -17 18 -21 13 -21 12 -5 -5z"/>
 <path d="M4340 1805 c-14 -8 -20 -14 -14 -15 5 0 19 7 30 15 24 18 16 19 -16 0z"/>
 <path d="M4508 1813 c7 -3 16 -2 19 1 4 3 -2 6 -13 5 -11 0 -14 -3 -6 -6z"/>
 <path d="M4563 1813 c4 -3 10 -3 14 0 3 4 0 7 -7 7 -7 0 -10 -3 -7 -7z"/>
 <path d="M4668 1813 c7 -3 16 -2 19 1 4 3 -2 6 -13 5 -11 0 -14 -3 -6 -6z"/>
 <path d="M4763 1813 c4 -3 10 -3 14 0 3 4 0 7 -7 7 -7 0 -10 -3 -7 -7z"/>
 <path d="M4813 1813 c4 -3 10 -3 14 0 3 4 0 7 -7 7 -7 0 -10 -3 -7 -7z"/>
 <path d="M4863 1813 c4 -3 10 -3 14 0 3 4 0 7 -7 7 -7 0 -10 -3 -7 -7z"/>
 <path d="M4948 1813 c6 -2 18 -2 25 0 6 3 1 5 -13 5 -14 0 -19 -2 -12 -5z"/>
 <path d="M4993 1813 c4 -3 10 -3 14 0 3 4 0 7 -7 7 -7 0 -10 -3 -7 -7z"/>
 <path d="M5153 1813 c4 -3 10 -3 14 0 3 4 0 7 -7 7 -7 0 -10 -3 -7 -7z"/>
 <path d="M5228 1813 c6 -2 18 -2 25 0 6 3 1 5 -13 5 -14 0 -19 -2 -12 -5z"/>
 <path d="M5348 1813 c6 -2 18 -2 25 0 6 3 1 5 -13 5 -14 0 -19 -2 -12 -5z"/>
 <path d="M5428 1813 c7 -3 16 -2 19 1 4 3 -2 6 -13 5 -11 0 -14 -3 -6 -6z"/>
 <path d="M5523 1813 c4 -3 10 -3 14 0 3 4 0 7 -7 7 -7 0 -10 -3 -7 -7z"/>
 <path d="M5618 1813 c6 -2 18 -2 25 0 6 3 1 5 -13 5 -14 0 -19 -2 -12 -5z"/>
 <path d="M5723 1813 c4 -3 10 -3 14 0 3 4 0 7 -7 7 -7 0 -10 -3 -7 -7z"/>
 <path d="M5783 1813 c4 -3 10 -3 14 0 3 4 0 7 -7 7 -7 0 -10 -3 -7 -7z"/>
 <path d="M5893 1813 c4 -3 10 -3 14 0 3 4 0 7 -7 7 -7 0 -10 -3 -7 -7z"/>
 <path d="M5973 1813 c4 -3 10 -3 14 0 3 4 0 7 -7 7 -7 0 -10 -3 -7 -7z"/>
 <path d="M6040 1810 c0 -7 3 -10 7 -7 3 4 3 10 0 14 -4 3 -7 0 -7 -7z"/>
 <path d="M6094 1805 c-4 -8 -3 -23 2 -32 6 -15 8 -14 12 7 2 14 9 28 16 32 7 5 5 8 -7 8 -10 0 -20 -7 -23 -15z"/>
 <path d="M6148 1813 c6 -2 18 -2 25 0 6 3 1 5 -13 5 -14 0 -19 -2 -12 -5z"/>
 <path d="M6263 1813 c4 -3 10 -3 14 0 3 4 0 7 -7 7 -7 0 -10 -3 -7 -7z"/>
 <path d="M6318 1813 c7 -3 16 -2 19 1 4 3 -2 6 -13 5 -11 0 -14 -3 -6 -6z"/>
 <path d="M6418 1813 c6 -2 18 -2 25 0 6 3 1 5 -13 5 -14 0 -19 -2 -12 -5z"/>
 <path d="M6463 1813 c4 -3 10 -3 14 0 3 4 0 7 -7 7 -7 0 -10 -3 -7 -7z"/>
 <path d="M6518 1813 c7 -3 16 -2 19 1 4 3 -2 6 -13 5 -11 0 -14 -3 -6 -6z"/>
 <path d="M4285 1750 c-4 -6 3 -10 14 -10 25 0 27 6 6 13 -8 4 -17 2 -20 -3z"/>
 <path d="M4344 1748 c-3 -4 4 -8 15 -8 11 0 22 4 25 8 2 4 -4 8 -15 8 -11 0 -23 -4 -25 -8z"/>
 <path d="M5615 1750 c-3 -5 1 -10 10 -10 9 0 13 5 10 10 -3 6 -8 10 -10 10 -2 0 -7 -4 -10 -10z"/>
 <path d="M6155 1750 c-3 -5 1 -10 10 -10 9 0 13 5 10 10 -3 6 -8 10 -10 10 -2 0 -7 -4 -10 -10z"/>
 <path d="M6773 1580 c0 -47 2 -66 4 -42 2 23 2 61 0 85 -2 23 -4 4 -4 -43z"/>
 <path d="M3885 1630 c3 -5 8 -10 11 -10 3 0 2 5 -1 10 -3 6 -8 10 -11 10 -3 0 -2 -4 1 -10z"/>
 <path d="M4010 1500 c0 -5 5 -10 11 -10 5 0 7 5 4 10 -3 6 -8 10 -11 10 -2 0 -4 -4 -4 -10z"/>
 </g>

</svg>