<!DOCTYPE svg PUBLIC "-//W3C//DTD SVG 20010904//EN" "http://www.w3.org/TR/2001/REC-SVG-20010904/DTD/svg10.dtd">
<svg version="1.0" xmlns="http://www.w3.org/2000/svg" width="956px" height="482px" viewBox="0 0 9560 4820" preserveAspectRatio="xMidYMid meet">
<g id="layer101" fill="#3f562a" stroke="none">
 <path d="M0 2410 l0 -2410 4780 0 4780 0 0 2410 0 2410 -4780 0 -4780 0 0 -2410z"/>
 </g>
<g id="layer102" fill="#475d33" stroke="none">
 <path d="M0 2410 l0 -2410 4780 0 4780 0 0 2410 0 2410 -4780 0 -4780 0 0 -2410z m3860 -145 l0 -125 170 0 170 0 0 125 0 125 250 0 249 0 3 -117 3 -118 168 -3 167 -2 0 120 0 120 255 0 255 0 0 -125 0 -125 165 0 165 0 0 125 0 125 255 0 255 0 0 -260 0 -260 -255 0 -255 0 0 125 0 125 -165 0 -165 0 0 -125 0 -125 -255 0 -255 0 0 129 c0 107 -3 130 -15 135 -20 7 -272 7 -302 -1 -22 -5 -23 -9 -23 -134 l0 -129 -250 0 -250 0 0 125 0 125 -170 0 -170 0 0 -125 0 -125 -255 0 -255 0 0 260 0 260 255 0 255 0 0 -125z"/>
 <path d="M3370 2130 l0 -230 240 0 240 0 0 230 0 230 -240 0 -240 0 0 -230z"/>
 <path d="M4210 2130 l0 -230 240 0 240 0 0 230 0 230 -240 0 -240 0 0 -230z"/>
 <path d="M5050 2130 l0 -230 240 0 240 0 0 230 0 230 -240 0 -240 0 0 -230z"/>
 <path d="M5900 2130 l0 -230 240 0 240 0 0 230 0 230 -240 0 -240 0 0 -230z"/>
 </g>
<g id="layer103" fill="#b22418" stroke="none">
 <path d="M0 2410 l0 -2410 4780 0 4780 0 0 2410 0 2410 -4780 0 -4780 0 0 -2410z m3870 -145 l0 -125 160 0 160 0 0 125 0 125 260 0 260 0 0 -120 0 -120 163 2 162 3 3 118 3 117 254 0 255 0 0 -125 0 -125 165 0 165 0 0 125 0 125 255 0 255 0 0 -260 0 -260 -255 0 -255 0 0 125 0 125 -165 0 -165 0 0 -125 0 -125 -255 0 -255 0 0 130 0 130 -165 0 -165 0 0 -130 0 -130 -260 0 -260 0 0 125 0 125 -160 0 -160 0 0 -125 0 -125 -260 0 -260 0 0 260 0 260 260 0 260 0 0 -125z"/>
 <path d="M3370 2130 l0 -230 235 0 235 0 0 230 0 230 -235 0 -235 0 0 -230z"/>
 <path d="M4214 2347 c-2 -7 -3 -109 -2 -227 l3 -215 238 -3 237 -2 0 230 0 230 -235 0 c-182 0 -237 -3 -241 -13z"/>
 <path d="M5060 2130 l0 -230 235 0 235 0 0 230 0 230 -235 0 -235 0 0 -230z"/>
 <path d="M5900 2130 l0 -230 235 0 235 0 0 230 0 230 -235 0 -235 0 0 -230z"/>
 </g>
<g id="layer104" fill="#1f538f" stroke="none">
 <path d="M0 2410 l0 -2410 4780 0 4780 0 0 2410 0 2410 -4780 0 -4780 0 0 -2410z m8138 513 c-16 -36 -112 -233 -219 -448 -70 -143 -141 -288 -156 -323 -15 -34 -32 -61 -37 -59 -5 2 -55 95 -111 208 -205 410 -305 614 -305 622 0 4 187 7 416 7 229 0 414 -3 412 -7z m-4268 -658 l0 -125 160 0 160 0 0 125 0 125 260 0 260 0 0 -120 0 -120 163 2 162 3 3 118 3 117 254 0 255 0 0 -125 0 -125 165 0 165 0 0 125 0 125 255 0 255 0 0 -260 0 -260 -255 0 -255 0 0 125 0 125 -165 0 -165 0 0 -125 0 -125 -255 0 -255 0 0 130 0 130 -165 0 -165 0 0 -130 0 -130 -260 0 -260 0 0 125 0 125 -160 0 -160 0 0 -125 0 -125 -260 0 -260 0 0 260 0 260 260 0 260 0 0 -125z"/>
 <path d="M3370 2130 l0 -230 235 0 235 0 0 230 0 230 -235 0 -235 0 0 -230z"/>
 <path d="M4214 2347 c-2 -7 -3 -109 -2 -227 l3 -215 238 -3 237 -2 0 230 0 230 -235 0 c-182 0 -237 -3 -241 -13z"/>
 <path d="M5060 2130 l0 -230 235 0 235 0 0 230 0 230 -235 0 -235 0 0 -230z"/>
 <path d="M5900 2130 l0 -230 235 0 235 0 0 230 0 230 -235 0 -235 0 0 -230z"/>
 </g>
<g id="layer105" fill="#5b6255" stroke="none">
 <path d="M0 2410 l0 -2410 4780 0 4780 0 0 2410 0 2410 -4780 0 -4780 0 0 -2410z m899 1802 c40 -20 61 -69 33 -79 -9 -4 -17 -2 -20 5 -10 31 -45 62 -70 62 -66 0 -102 -47 -102 -133 0 -44 44 -97 80 -97 43 0 77 16 83 39 6 22 14 26 35 13 34 -22 -42 -85 -102 -85 -79 0 -129 54 -131 143 -4 119 91 183 194 132z m224 7 c39 -20 53 -48 51 -95 -2 -25 -6 -53 -9 -63 -8 -25 -50 -45 -93 -44 -67 2 -107 89 -74 161 22 48 77 66 125 41z m130 -70 c3 -45 10 -86 15 -91 15 -15 63 -13 73 3 5 8 9 49 9 92 0 70 2 77 20 77 18 0 20 -7 20 -83 0 -74 -3 -86 -22 -104 -34 -30 -56 -35 -88 -18 -21 11 -29 12 -32 3 -2 -6 -12 -9 -21 -5 -14 5 -17 22 -17 107 0 91 2 100 19 100 16 0 19 -11 24 -81z m331 56 c14 -13 26 -30 26 -38 0 -23 -43 -56 -85 -65 -34 -7 -40 -12 -40 -32 0 -20 6 -25 25 -27 14 -1 31 6 37 15 15 19 53 24 53 7 0 -17 -31 -41 -60 -48 -42 -10 -83 6 -93 36 -13 41 13 75 63 83 44 7 65 26 56 49 -8 22 -62 19 -85 -6 -19 -21 -41 -19 -41 3 0 50 98 66 144 23z m177 9 c11 -14 13 -14 21 0 5 9 16 16 23 16 12 0 15 -20 15 -105 0 -98 -1 -105 -20 -105 -18 0 -20 7 -20 54 0 90 -8 114 -42 121 -44 10 -57 -15 -58 -103 0 -64 -2 -73 -17 -70 -39 7 -24 191 16 201 35 10 69 6 82 -9z m139 -31 c0 -83 11 -124 34 -133 44 -16 56 4 56 95 0 80 1 85 21 85 19 0 21 -5 19 -67 -1 -38 -2 -76 -1 -86 1 -18 38 -38 57 -30 21 8 34 54 34 118 0 53 3 65 16 65 13 0 15 -13 13 -87 -3 -104 -9 -119 -50 -128 -24 -6 -36 -3 -52 13 l-20 20 -29 -21 c-28 -21 -30 -21 -60 -4 -23 13 -33 15 -39 6 -4 -7 -14 -9 -23 -6 -13 5 -16 24 -16 107 0 93 1 100 20 100 17 0 20 -7 20 -47z m442 35 c9 -7 18 -22 20 -33 4 -27 -28 -32 -35 -5 -10 38 -97 15 -97 -27 0 -9 17 -13 65 -13 77 0 94 -17 69 -66 -30 -59 -71 -74 -124 -45 -66 35 -73 134 -13 181 29 23 90 27 115 8z m119 -50 c1 -35 1 -67 0 -71 -1 -4 4 -17 10 -28 8 -15 18 -20 35 -16 18 3 24 0 24 -14 0 -18 -12 -24 -35 -19 -5 1 -23 3 -40 3 l-30 2 -3 103 c-3 97 -2 102 18 102 18 0 20 -7 21 -62z m5677 -1245 c-16 -36 -112 -233 -219 -448 -70 -143 -141 -288 -156 -323 -15 -34 -32 -61 -37 -59 -5 2 -55 95 -111 208 -205 410 -305 614 -305 622 0 4 187 7 416 7 229 0 414 -3 412 -7z m-4268 -658 l0 -125 160 0 160 0 0 125 0 125 260 0 260 0 0 -120 0 -120 163 2 162 3 3 118 3 117 254 0 255 0 0 -125 0 -125 165 0 165 0 0 125 0 125 255 0 255 0 0 -260 0 -260 -255 0 -255 0 0 125 0 125 -165 0 -165 0 0 -125 0 -125 -255 0 -255 0 0 130 0 130 -165 0 -165 0 0 -130 0 -130 -260 0 -260 0 0 125 0 125 -160 0 -160 0 0 -125 0 -125 -260 0 -260 0 0 260 0 260 260 0 260 0 0 -125z"/>
 <path d="M1054 4192 c-34 -22 -45 -99 -18 -126 8 -9 31 -16 50 -16 28 0 36 5 44 26 15 38 12 91 -6 108 -16 17 -51 21 -70 8z"/>
 <path d="M2226 4102 c-14 -23 54 -68 83 -53 19 10 34 45 23 55 -8 9 -100 7 -106 -2z"/>
 <path d="M3370 2130 l0 -230 235 0 235 0 0 230 0 230 -235 0 -235 0 0 -230z"/>
 <path d="M4214 2347 c-2 -7 -3 -109 -2 -227 l3 -215 238 -3 237 -2 0 230 0 230 -235 0 c-182 0 -237 -3 -241 -13z"/>
 <path d="M5060 2130 l0 -230 235 0 235 0 0 230 0 230 -235 0 -235 0 0 -230z"/>
 <path d="M5900 2130 l0 -230 235 0 235 0 0 230 0 230 -235 0 -235 0 0 -230z"/>
 </g>
<g id="layer106" fill="#355692" stroke="none">
 <path d="M0 2410 l0 -2410 4780 0 4780 0 0 2410 0 2410 -4780 0 -4780 0 0 -2410z m899 1802 c40 -20 61 -69 33 -79 -9 -4 -17 -2 -20 5 -10 31 -45 62 -70 62 -66 0 -102 -47 -102 -133 0 -44 44 -97 80 -97 43 0 77 16 83 39 6 22 14 26 35 13 34 -22 -42 -85 -102 -85 -79 0 -129 54 -131 143 -4 119 91 183 194 132z m224 7 c39 -20 53 -48 51 -95 -2 -25 -6 -53 -9 -63 -8 -25 -50 -45 -93 -44 -67 2 -107 89 -74 161 22 48 77 66 125 41z m130 -70 c3 -45 10 -86 15 -91 15 -15 63 -13 73 3 5 8 9 49 9 92 0 70 2 77 20 77 18 0 20 -7 20 -83 0 -74 -3 -86 -22 -104 -34 -30 -56 -35 -88 -18 -21 11 -29 12 -32 3 -2 -6 -12 -9 -21 -5 -14 5 -17 22 -17 107 0 91 2 100 19 100 16 0 19 -11 24 -81z m331 56 c14 -13 26 -30 26 -38 0 -23 -43 -56 -85 -65 -34 -7 -40 -12 -40 -32 0 -20 6 -25 25 -27 14 -1 31 6 37 15 15 19 53 24 53 7 0 -17 -31 -41 -60 -48 -42 -10 -83 6 -93 36 -13 41 13 75 63 83 44 7 65 26 56 49 -8 22 -62 19 -85 -6 -19 -21 -41 -19 -41 3 0 50 98 66 144 23z m177 9 c11 -14 13 -14 21 0 5 9 16 16 23 16 12 0 15 -20 15 -105 0 -98 -1 -105 -20 -105 -18 0 -20 7 -20 54 0 90 -8 114 -42 121 -44 10 -57 -15 -58 -103 0 -64 -2 -73 -17 -70 -39 7 -24 191 16 201 35 10 69 6 82 -9z m139 -31 c0 -83 11 -124 34 -133 44 -16 56 4 56 95 0 80 1 85 21 85 19 0 21 -5 19 -67 -1 -38 -2 -76 -1 -86 1 -18 38 -38 57 -30 21 8 34 54 34 118 0 53 3 65 16 65 13 0 15 -13 13 -87 -3 -104 -9 -119 -50 -128 -24 -6 -36 -3 -52 13 l-20 20 -29 -21 c-28 -21 -30 -21 -60 -4 -23 13 -33 15 -39 6 -4 -7 -14 -9 -23 -6 -13 5 -16 24 -16 107 0 93 1 100 20 100 17 0 20 -7 20 -47z m442 35 c9 -7 18 -22 20 -33 4 -27 -28 -32 -35 -5 -10 38 -97 15 -97 -27 0 -9 17 -13 65 -13 77 0 94 -17 69 -66 -30 -59 -71 -74 -124 -45 -66 35 -73 134 -13 181 29 23 90 27 115 8z m119 -50 c1 -35 1 -67 0 -71 -1 -4 4 -17 10 -28 8 -15 18 -20 35 -16 18 3 24 0 24 -14 0 -18 -12 -24 -35 -19 -5 1 -23 3 -40 3 l-30 2 -3 103 c-3 97 -2 102 18 102 18 0 20 -7 21 -62z m5677 -1245 c-16 -36 -112 -233 -219 -448 -70 -143 -141 -288 -156 -323 -15 -34 -32 -61 -37 -59 -5 2 -55 95 -111 208 -205 410 -305 614 -305 622 0 4 187 7 416 7 229 0 414 -3 412 -7z m-4268 -658 l0 -125 160 0 160 0 0 125 0 125 260 0 260 0 0 -120 0 -120 160 0 160 0 0 120 0 120 265 0 265 0 0 -125 0 -125 155 0 155 0 0 125 0 125 265 0 265 0 0 -260 0 -260 -265 0 -265 0 0 125 0 125 -155 0 -155 0 0 -125 0 -125 -265 0 -265 0 0 130 0 130 -160 0 -160 0 0 -130 0 -130 -260 0 -260 0 0 125 0 125 -160 0 -160 0 0 -125 0 -125 -260 0 -260 0 0 260 0 260 260 0 260 0 0 -125z m609 -733 c22 -63 41 -115 41 -117 0 -2 -17 -5 -37 -7 l-38 -3 0 -580 0 -580 1835 0 1835 0 3 328 c1 206 6 327 12 327 6 0 10 -121 10 -335 l0 -335 -1857 0 -1858 0 0 587 0 588 -38 3 c-25 2 -37 8 -34 15 2 7 21 60 42 120 21 59 39 106 40 105 1 -2 21 -54 44 -116z"/>
 <path d="M1054 4192 c-34 -22 -45 -99 -18 -126 8 -9 31 -16 50 -16 28 0 36 5 44 26 15 38 12 91 -6 108 -16 17 -51 21 -70 8z"/>
 <path d="M2226 4102 c-14 -23 54 -68 83 -53 19 10 34 45 23 55 -8 9 -100 7 -106 -2z"/>
 <path d="M3380 2130 l0 -230 230 0 230 0 0 230 0 230 -230 0 -230 0 0 -230z"/>
 <path d="M4220 2130 l0 -230 230 0 230 0 0 230 0 230 -230 0 -230 0 0 -230z"/>
 <path d="M5060 2130 l0 -230 233 2 232 3 0 225 0 225 -232 3 -233 2 0 -230z"/>
 <path d="M5909 2323 c-1 -52 -1 -306 0 -370 l1 -53 230 0 230 0 0 230 0 230 -230 0 -230 0 -1 -37z"/>
 </g>
<g id="layer107" fill="#38669b" stroke="none">
 <path d="M0 2410 l0 -2410 4780 0 4780 0 0 2410 0 2410 -4780 0 -4780 0 0 -2410z m920 1790 c32 -30 37 -62 10 -68 -8 -1 -22 11 -31 27 -32 57 -133 44 -150 -19 -17 -60 -10 -107 20 -139 30 -33 60 -39 105 -21 14 5 26 16 26 24 0 19 14 28 34 20 23 -9 20 -20 -15 -51 -57 -52 -115 -52 -174 1 -31 27 -36 38 -41 92 -5 48 -3 67 11 90 34 55 65 74 121 74 44 0 57 -5 84 -30z m236 -5 c21 -27 25 -84 10 -133 -15 -47 -110 -60 -151 -22 -45 42 -33 158 19 181 38 16 99 3 122 -26z m97 -46 c3 -45 10 -86 15 -91 15 -15 63 -13 73 3 5 8 9 49 9 92 0 70 2 77 20 77 18 0 20 -7 20 -83 0 -74 -3 -86 -22 -104 -34 -30 -56 -35 -88 -18 -21 11 -29 12 -32 3 -2 -6 -12 -9 -21 -5 -14 5 -17 22 -17 107 0 91 2 100 19 100 16 0 19 -11 24 -81z m331 56 c14 -13 26 -30 26 -38 0 -23 -43 -56 -85 -65 -50 -10 -59 -37 -19 -53 24 -8 31 -7 41 7 15 20 53 26 53 9 0 -25 -40 -48 -85 -48 -50 0 -75 15 -75 47 0 37 28 65 70 72 44 7 65 26 56 49 -8 22 -62 19 -85 -6 -19 -21 -41 -19 -41 3 0 50 98 66 144 23z m177 9 c11 -14 13 -14 21 0 5 9 16 16 23 16 12 0 15 -20 15 -105 0 -98 -1 -105 -20 -105 -18 0 -20 7 -20 54 0 90 -8 114 -42 121 -44 10 -57 -15 -58 -103 0 -64 -2 -73 -17 -70 -14 2 -19 15 -21 53 -5 82 6 135 31 145 35 14 73 11 88 -6z m141 -61 c4 -64 9 -80 28 -95 16 -13 26 -15 41 -8 16 9 19 22 19 95 0 78 2 85 20 85 18 0 20 -7 20 -75 0 -61 4 -79 20 -95 40 -40 70 8 70 111 0 46 3 59 15 59 12 0 15 -16 15 -88 0 -98 -9 -119 -55 -128 -23 -4 -35 -1 -49 15 l-18 20 -29 -21 c-28 -21 -30 -21 -63 -5 -24 11 -36 13 -38 5 -3 -7 -12 -9 -21 -5 -14 5 -17 22 -17 107 0 91 2 100 19 100 16 0 19 -10 23 -77z m449 59 c14 -12 20 -25 16 -35 -9 -23 -34 -21 -40 3 -10 38 -97 15 -97 -27 0 -9 17 -13 65 -13 70 0 86 -11 77 -55 -11 -59 -90 -87 -144 -51 -57 37 -54 154 3 183 35 19 93 16 120 -5z m110 -39 c1 -109 3 -114 43 -117 18 -1 26 -7 26 -18 0 -17 -12 -23 -35 -18 -5 1 -23 3 -40 3 l-30 2 -3 103 c-3 97 -2 102 18 102 18 0 20 -7 21 -57z m-1236 -555 c6 -6 -391 -792 -401 -795 -9 -3 -23 22 -48 87 -3 8 -10 22 -15 30 -5 8 -35 68 -67 133 -32 65 -61 120 -66 123 -4 3 -5 10 -2 17 2 7 -4 21 -15 31 -11 10 -18 23 -15 30 3 7 -4 20 -15 30 -11 10 -18 23 -15 30 3 7 -4 20 -15 30 -11 10 -18 23 -15 30 3 7 -4 20 -15 30 -11 10 -18 23 -15 28 4 5 -3 18 -15 29 -12 11 -19 25 -15 30 3 6 -3 19 -15 30 -11 10 -18 25 -15 33 3 8 1 17 -5 21 -24 14 -8 24 42 27 65 4 738 0 742 -4z m841 0 c7 -7 -390 -788 -400 -785 -10 3 -19 18 -30 47 -3 8 -10 22 -15 30 -30 50 -351 690 -351 700 0 5 21 10 48 12 60 4 743 0 748 -4z m787 2 c49 0 57 -3 57 -19 0 -10 -7 -24 -15 -31 -8 -7 -15 -19 -15 -26 0 -19 -86 -191 -100 -199 -5 -3 -10 -14 -10 -24 0 -10 -7 -24 -15 -31 -8 -7 -15 -20 -15 -30 0 -10 -7 -23 -15 -30 -8 -7 -15 -20 -15 -30 0 -10 -7 -23 -15 -30 -8 -7 -15 -20 -15 -30 0 -10 -7 -23 -15 -30 -8 -7 -15 -20 -15 -30 0 -10 -7 -23 -15 -30 -8 -7 -15 -20 -15 -30 0 -10 -7 -23 -15 -30 -8 -7 -15 -20 -15 -30 0 -10 -7 -23 -15 -30 -8 -7 -15 -20 -15 -30 0 -10 -6 -23 -14 -30 -8 -6 -16 -21 -18 -32 -2 -12 -7 -23 -13 -25 -5 -1 -48 75 -93 170 -46 94 -88 179 -93 187 -5 8 -11 20 -13 25 -2 6 -7 17 -10 25 -3 8 -10 22 -15 30 -5 8 -12 22 -15 30 -3 8 -10 23 -16 33 -5 9 -15 25 -20 35 -6 9 -13 24 -16 32 -3 8 -8 20 -10 25 -2 6 -8 17 -13 25 -5 8 -12 22 -15 30 -3 8 -10 22 -15 30 -12 19 -61 121 -61 125 0 8 106 10 390 8 162 -1 321 -2 353 -3z m5285 -697 c-16 -36 -112 -233 -219 -448 -70 -143 -141 -288 -156 -323 -15 -34 -32 -61 -37 -59 -5 2 -55 95 -111 208 -205 410 -305 614 -305 622 0 4 187 7 416 7 229 0 414 -3 412 -7z m-6559 -290 c-43 -87 -80 -165 -83 -173 -3 -8 -10 -22 -15 -30 -5 -8 -12 -22 -15 -30 -3 -8 -10 -22 -15 -30 -5 -8 -12 -22 -15 -30 -3 -8 -10 -22 -15 -30 -5 -8 -12 -22 -15 -30 -3 -8 -10 -23 -16 -32 -22 -40 -32 -57 -81 -156 -29 -56 -55 -105 -59 -107 -4 -2 -17 15 -29 38 -12 23 -26 49 -31 57 -5 8 -11 22 -14 30 -3 8 -10 22 -15 30 -5 8 -12 22 -15 30 -6 15 -11 25 -34 65 -7 11 -15 27 -18 35 -3 8 -10 22 -15 30 -5 8 -11 21 -14 28 -3 6 -7 18 -10 25 -3 6 -9 19 -14 27 -5 8 -12 22 -15 30 -3 8 -10 22 -15 30 -5 8 -12 22 -15 30 -3 8 -10 22 -15 30 -5 8 -12 22 -15 30 -3 8 -10 22 -15 30 -5 8 -12 22 -15 30 -3 8 -11 24 -18 35 -23 40 -28 50 -34 65 -10 25 -36 85 -41 93 -2 4 180 7 404 7 l409 0 -77 -157z m2291 -368 l0 -125 160 0 160 0 0 125 0 125 260 0 260 0 0 -120 0 -120 160 0 160 0 0 120 0 120 265 0 265 0 0 -125 0 -125 155 0 155 0 0 125 0 125 265 0 265 0 0 -260 0 -260 -265 0 -265 0 0 125 0 125 -155 0 -155 0 0 -125 0 -125 -265 0 -265 0 0 130 0 130 -160 0 -160 0 0 -130 0 -130 -260 0 -260 0 0 125 0 125 -160 0 -160 0 0 -125 0 -125 -260 0 -260 0 0 260 0 260 260 0 260 0 0 -125z m-1797 -340 c-3 -13 -11 -30 -19 -36 -8 -6 -14 -19 -14 -29 0 -10 -7 -23 -15 -30 -8 -7 -15 -20 -15 -30 0 -10 -7 -23 -15 -30 -8 -7 -15 -20 -15 -30 0 -10 -7 -23 -15 -30 -8 -7 -15 -19 -15 -27 0 -18 -56 -130 -70 -138 -5 -3 -10 -14 -10 -24 0 -10 -7 -24 -15 -31 -8 -7 -15 -20 -15 -30 0 -10 -7 -23 -15 -30 -8 -7 -15 -20 -15 -30 0 -10 -7 -23 -15 -30 -8 -7 -15 -19 -15 -27 0 -8 -12 -30 -26 -49 -15 -19 -24 -37 -21 -41 13 -13 -43 -102 -65 -103 -13 0 -38 32 -32 42 3 5 -3 18 -15 29 -12 11 -19 24 -16 28 5 8 -8 35 -74 151 -33 59 -166 325 -175 350 -3 8 -10 22 -15 30 -13 22 -62 121 -72 148 l-9 22 409 0 408 0 -4 -25z m2406 -393 c22 -63 41 -115 41 -117 0 -2 -17 -5 -37 -7 l-38 -3 0 -580 0 -580 1835 0 1835 0 3 328 c1 206 6 327 12 327 6 0 10 -121 10 -335 l0 -335 -1857 0 -1858 0 0 587 0 588 -38 3 c-25 2 -37 8 -34 15 2 7 21 60 42 120 21 59 39 106 40 105 1 -2 21 -54 44 -116z"/>
 <path d="M1054 4192 c-35 -23 -45 -99 -16 -125 20 -18 59 -22 81 -8 7 5 16 29 18 55 4 36 2 51 -12 66 -18 20 -51 26 -71 12z"/>
 <path d="M2226 4102 c-10 -17 34 -52 65 -52 22 0 32 6 38 23 5 12 7 25 4 30 -6 10 -101 9 -107 -1z"/>
 <path d="M3380 2130 l0 -230 230 0 230 0 0 230 0 230 -230 0 -230 0 0 -230z"/>
 <path d="M4220 2130 l0 -230 230 0 230 0 0 230 0 230 -230 0 -230 0 0 -230z"/>
 <path d="M5060 2130 l0 -230 233 2 232 3 0 225 0 225 -232 3 -233 2 0 -230z"/>
 <path d="M5909 2323 c-1 -52 -1 -306 0 -370 l1 -53 230 0 230 0 0 230 0 230 -230 0 -230 0 -1 -37z"/>
 </g>
<g id="layer108" fill="#db3832" stroke="none">
 <path d="M0 2410 l0 -2410 4780 0 4780 0 0 2410 0 2410 -4780 0 -4780 0 0 -2410z m919 1791 c34 -32 42 -71 14 -71 -10 0 -25 13 -34 29 -32 56 -114 48 -143 -14 -55 -115 53 -232 134 -145 18 19 34 28 44 24 21 -8 20 -16 -4 -47 -44 -56 -140 -54 -195 3 -28 29 -30 37 -30 106 0 74 1 76 37 110 33 30 44 34 92 34 46 0 59 -4 85 -29z m235 -2 c28 -33 33 -75 16 -126 -21 -60 -111 -76 -158 -29 -22 21 -26 35 -26 80 0 75 27 106 95 106 40 0 51 -4 73 -31z m98 -44 c5 -80 18 -105 52 -105 37 0 46 19 46 102 0 71 2 78 20 78 18 0 20 -7 20 -84 0 -65 -4 -88 -17 -104 -24 -27 -63 -34 -95 -18 -19 10 -28 11 -31 3 -2 -6 -11 -8 -20 -4 -14 5 -17 22 -17 107 0 91 2 100 19 100 16 0 19 -10 23 -75z m341 43 c29 -39 12 -73 -45 -89 -49 -14 -73 -32 -64 -48 10 -16 52 -13 66 4 15 19 50 20 50 2 0 -27 -39 -50 -85 -50 -54 0 -75 16 -75 58 0 27 6 35 34 49 19 9 39 16 46 16 6 0 20 5 31 10 15 9 17 15 9 30 -14 26 -55 26 -77 0 -17 -20 -53 -28 -53 -11 0 4 9 20 21 35 19 24 27 27 72 24 41 -2 54 -8 70 -30z m175 20 c9 -9 12 -9 12 0 0 7 9 12 20 12 19 0 20 -7 20 -105 0 -98 -1 -105 -20 -105 -18 0 -20 7 -20 59 0 76 -13 109 -45 117 -40 10 -54 -18 -55 -104 0 -65 -2 -73 -17 -70 -16 3 -18 15 -18 89 0 58 5 92 14 103 16 19 91 22 109 4z m134 -63 c5 -76 18 -105 47 -105 32 0 41 22 41 102 0 71 2 78 20 78 18 0 20 -7 20 -71 0 -81 11 -109 44 -109 31 0 36 16 36 106 0 67 2 74 20 74 18 0 20 -7 20 -86 0 -47 -4 -94 -10 -104 -14 -27 -65 -35 -95 -16 -22 14 -26 14 -53 -1 -26 -15 -31 -15 -60 -1 -20 11 -32 12 -35 5 -2 -6 -11 -8 -20 -4 -14 5 -17 22 -17 107 0 91 2 100 19 100 16 0 19 -10 23 -75z m445 60 c11 -8 23 -24 26 -35 7 -27 -33 -28 -51 0 -15 24 -49 26 -74 3 -35 -31 -22 -42 55 -45 l72 -3 -3 -35 c-4 -50 -40 -83 -91 -83 -50 0 -77 22 -91 72 -12 46 3 105 33 126 27 19 96 19 124 0z m114 -42 c1 -86 10 -107 44 -113 34 -6 48 -39 18 -41 -10 -1 -22 0 -28 1 -5 1 -23 3 -40 3 l-30 2 -3 103 c-3 97 -2 102 18 102 18 0 20 -7 21 -57z m-1221 -548 c0 -12 -406 -815 -412 -815 -8 0 -408 796 -408 811 0 5 173 9 410 9 226 0 410 -2 410 -5z m840 0 c0 -10 -405 -815 -410 -815 -5 0 -410 805 -410 815 0 3 185 5 410 5 226 0 410 -2 410 -5z m840 -5 c0 -16 -399 -810 -408 -810 -6 0 -412 802 -412 815 0 3 185 5 410 5 268 0 410 -3 410 -10z m5218 -697 c-16 -36 -112 -233 -219 -448 -70 -143 -141 -288 -156 -323 -15 -34 -32 -61 -37 -59 -5 2 -55 95 -111 208 -205 410 -305 614 -305 622 0 4 187 7 416 7 229 0 414 -3 412 -7z m-6478 -138 c0 -10 -411 -827 -414 -824 -2 2 -97 190 -210 417 l-206 412 415 0 c228 0 415 -2 415 -5z m2210 -520 l0 -125 160 0 160 0 0 125 0 125 260 0 260 0 0 -120 0 -120 160 0 160 0 0 120 0 120 265 0 265 0 0 -125 0 -125 155 0 155 0 0 125 0 125 265 0 265 0 0 -260 0 -260 -265 0 -265 0 0 125 0 125 -155 0 -155 0 0 -125 0 -125 -265 0 -265 0 0 130 0 130 -160 0 -160 0 0 -130 0 -130 -260 0 -260 0 0 125 0 125 -160 0 -160 0 0 -125 0 -125 -260 0 -260 0 0 260 0 260 260 0 260 0 0 -125z m-1985 -725 c-113 -225 -209 -410 -215 -410 -5 0 -102 185 -214 410 l-205 410 419 0 420 0 -205 -410z m2594 -8 c22 -63 41 -115 41 -117 0 -2 -17 -5 -37 -7 l-38 -3 0 -580 0 -580 1835 0 1835 0 3 328 c1 206 6 327 12 327 6 0 10 -121 10 -335 l0 -335 -1857 0 -1858 0 0 587 0 588 -38 3 c-25 2 -37 8 -34 15 2 7 21 60 42 120 21 59 39 106 40 105 1 -2 21 -54 44 -116z"/>
 <path d="M1046 4184 c-26 -25 -30 -63 -13 -100 31 -64 107 -35 107 41 0 62 -56 98 -94 59z"/>
 <path d="M2230 4091 c0 -33 64 -53 88 -29 26 26 13 38 -38 38 -27 0 -50 -4 -50 -9z"/>
 <path d="M3380 2130 l0 -230 230 0 230 0 0 230 0 230 -230 0 -230 0 0 -230z"/>
 <path d="M4220 2130 l0 -230 230 0 230 0 0 230 0 230 -230 0 -230 0 0 -230z"/>
 <path d="M5060 2130 l0 -230 233 2 232 3 0 225 0 225 -232 3 -233 2 0 -230z"/>
 <path d="M5909 2323 c-1 -52 -1 -306 0 -370 l1 -53 230 0 230 0 0 230 0 230 -230 0 -230 0 -1 -37z"/>
 </g>
<g id="layer109" fill="#747474" stroke="none">
 <path d="M0 2410 l0 -2410 4780 0 4780 0 0 2410 0 2410 -4780 0 -4780 0 0 -2410z m919 1791 c34 -32 42 -71 14 -71 -10 0 -25 13 -34 29 -32 56 -114 48 -143 -14 -55 -115 53 -232 134 -145 18 19 34 28 44 24 21 -8 20 -16 -4 -47 -44 -56 -140 -54 -195 3 -28 29 -30 37 -30 106 0 74 1 76 37 110 33 30 44 34 92 34 46 0 59 -4 85 -29z m235 -2 c28 -33 33 -75 16 -126 -21 -60 -111 -76 -158 -29 -22 21 -26 35 -26 80 0 75 27 106 95 106 40 0 51 -4 73 -31z m98 -44 c5 -80 18 -105 52 -105 37 0 46 19 46 102 0 71 2 78 20 78 18 0 20 -7 20 -84 0 -65 -4 -88 -17 -104 -24 -27 -63 -34 -95 -18 -19 10 -28 11 -31 3 -2 -6 -11 -8 -20 -4 -14 5 -17 22 -17 107 0 91 2 100 19 100 16 0 19 -10 23 -75z m341 43 c29 -39 12 -73 -45 -89 -49 -14 -73 -32 -64 -48 10 -16 52 -13 66 4 15 19 50 20 50 2 0 -27 -39 -50 -85 -50 -54 0 -75 16 -75 58 0 27 6 35 34 49 19 9 39 16 46 16 6 0 20 5 31 10 15 9 17 15 9 30 -14 26 -55 26 -77 0 -17 -20 -53 -28 -53 -11 0 4 9 20 21 35 19 24 27 27 72 24 41 -2 54 -8 70 -30z m175 20 c9 -9 12 -9 12 0 0 7 9 12 20 12 19 0 20 -7 20 -105 0 -98 -1 -105 -20 -105 -18 0 -20 7 -20 59 0 76 -13 109 -45 117 -40 10 -54 -18 -55 -104 0 -65 -2 -73 -17 -70 -16 3 -18 15 -18 89 0 58 5 92 14 103 16 19 91 22 109 4z m134 -63 c5 -76 18 -105 47 -105 32 0 41 22 41 102 0 71 2 78 20 78 18 0 20 -7 20 -71 0 -81 11 -109 44 -109 31 0 36 16 36 106 0 67 2 74 20 74 18 0 20 -7 20 -86 0 -47 -4 -94 -10 -104 -14 -27 -65 -35 -95 -16 -22 14 -26 14 -53 -1 -26 -15 -31 -15 -60 -1 -20 11 -32 12 -35 5 -2 -6 -11 -8 -20 -4 -14 5 -17 22 -17 107 0 91 2 100 19 100 16 0 19 -10 23 -75z m445 60 c11 -8 23 -24 26 -35 7 -27 -33 -28 -51 0 -15 24 -49 26 -74 3 -35 -31 -22 -42 55 -45 l72 -3 -3 -35 c-4 -50 -40 -83 -91 -83 -50 0 -77 22 -91 72 -12 46 3 105 33 126 27 19 96 19 124 0z m114 -42 c1 -86 10 -107 44 -113 34 -6 48 -39 18 -41 -10 -1 -22 0 -28 1 -5 1 -23 3 -40 3 l-30 2 -3 103 c-3 97 -2 102 18 102 18 0 20 -7 21 -57z m-1221 -548 c0 -12 -406 -815 -412 -815 -8 0 -408 796 -408 811 0 5 173 9 410 9 226 0 410 -2 410 -5z m840 0 c0 -10 -405 -815 -410 -815 -5 0 -410 805 -410 815 0 3 185 5 410 5 226 0 410 -2 410 -5z m840 -5 c0 -16 -399 -810 -408 -810 -6 0 -412 802 -412 815 0 3 185 5 410 5 268 0 410 -3 410 -10z m5218 -697 c-16 -36 -112 -233 -219 -448 -70 -143 -141 -288 -156 -323 -15 -34 -32 -61 -37 -59 -5 2 -55 95 -111 208 -205 410 -305 614 -305 622 0 4 187 7 416 7 229 0 414 -3 412 -7z m-6478 -138 c0 -10 -411 -827 -414 -824 -2 2 -97 190 -210 417 l-206 412 415 0 c228 0 415 -2 415 -5z m2210 -520 l0 -125 160 0 160 0 0 125 0 125 260 0 260 0 0 -120 0 -120 160 0 160 0 0 120 0 120 265 0 265 0 0 -125 0 -125 155 0 155 0 0 125 0 125 265 0 265 0 0 -260 0 -260 -265 0 -265 0 0 125 0 125 -155 0 -155 0 0 -125 0 -125 -265 0 -265 0 0 130 0 130 -160 0 -160 0 0 -130 0 -130 -260 0 -260 0 0 125 0 125 -160 0 -160 0 0 -125 0 -125 -260 0 -260 0 0 260 0 260 260 0 260 0 0 -125z m-1985 -725 c-113 -225 -209 -410 -215 -410 -5 0 -102 185 -214 410 l-205 410 419 0 420 0 -205 -410z m2594 -8 c22 -63 41 -115 41 -117 0 -2 -17 -5 -37 -7 l-38 -3 0 -580 0 -580 1835 0 1835 0 3 328 c1 206 6 327 12 327 6 0 10 -121 10 -335 l0 -335 -1857 0 -1858 0 0 587 0 588 -38 3 c-25 2 -37 8 -34 15 2 7 21 60 42 120 21 59 39 106 40 105 1 -2 21 -54 44 -116z m1505 -251 c3 -4 23 -11 44 -14 60 -10 156 -63 200 -111 49 -53 89 -129 98 -185 4 -23 11 -44 15 -47 12 -7 11 -71 -1 -79 -5 -3 -10 -19 -10 -34 0 -16 -16 -60 -35 -98 -56 -113 -146 -182 -282 -217 -58 -14 -67 -14 -135 3 -40 10 -93 28 -117 40 -98 51 -189 179 -199 282 -2 27 -9 52 -14 55 -5 4 -5 10 0 17 5 7 12 33 14 58 16 146 163 297 309 316 22 3 42 10 45 14 7 12 61 12 68 0z"/>
 <path d="M1046 4184 c-26 -25 -30 -63 -13 -100 31 -64 107 -35 107 41 0 62 -56 98 -94 59z"/>
 <path d="M2230 4091 c0 -33 64 -53 88 -29 26 26 13 38 -38 38 -27 0 -50 -4 -50 -9z"/>
 <path d="M3380 2130 l0 -230 230 0 230 0 0 230 0 230 -230 0 -230 0 0 -230z"/>
 <path d="M4220 2130 l0 -230 230 0 230 0 0 230 0 230 -230 0 -230 0 0 -230z"/>
 <path d="M5060 2130 l0 -230 233 2 232 3 0 225 0 225 -232 3 -233 2 0 -230z"/>
 <path d="M5909 2323 c-1 -52 -1 -306 0 -370 l1 -53 230 0 230 0 0 230 0 230 -230 0 -230 0 -1 -37z"/>
 <path d="M5920 1240 c-8 -5 -22 -7 -31 -4 -9 2 -42 -5 -74 -17 -107 -40 -208 -165 -223 -273 -16 -130 15 -231 100 -316 48 -48 158 -105 188 -97 11 3 23 1 26 -4 7 -12 71 -12 78 0 3 5 15 7 26 4 11 -3 48 8 84 25 201 94 273 339 155 524 -50 77 -156 148 -229 154 -19 1 -46 5 -60 8 -14 4 -32 2 -40 -4z m-40 -215 c30 -30 59 -55 64 -55 6 0 36 25 67 56 64 63 92 67 124 18 l17 -26 -61 -62 c-34 -34 -61 -66 -61 -71 0 -5 27 -37 60 -70 56 -57 59 -62 48 -86 -6 -14 -23 -31 -37 -37 -24 -11 -29 -8 -86 48 -33 33 -65 60 -70 60 -5 0 -38 -28 -73 -62 l-63 -63 -35 39 -35 40 61 61 c33 33 60 64 60 69 0 4 -26 37 -59 73 -53 59 -57 67 -47 89 11 23 24 30 56 33 9 0 40 -24 70 -54z"/>
 </g>
<g id="layer110" fill="#85856a" stroke="none">
 <path d="M0 2410 l0 -2410 4780 0 4780 0 0 2410 0 2410 -4780 0 -4780 0 0 -2410z m919 1791 c34 -32 42 -71 14 -71 -10 0 -25 13 -34 29 -32 56 -114 48 -143 -14 -55 -115 53 -232 134 -145 18 19 34 28 44 24 21 -8 20 -16 -4 -47 -44 -56 -140 -54 -195 3 -28 29 -30 37 -30 106 0 74 1 76 37 110 33 30 44 34 92 34 46 0 59 -4 85 -29z m235 -2 c28 -33 33 -75 16 -126 -21 -60 -111 -76 -158 -29 -22 21 -26 35 -26 80 0 75 27 106 95 106 40 0 51 -4 73 -31z m98 -44 c5 -80 18 -105 52 -105 37 0 46 19 46 102 0 71 2 78 20 78 18 0 20 -7 20 -84 0 -65 -4 -88 -17 -104 -24 -27 -63 -34 -95 -18 -19 10 -28 11 -31 3 -2 -6 -11 -8 -20 -4 -14 5 -17 22 -17 107 0 91 2 100 19 100 16 0 19 -10 23 -75z m341 43 c29 -39 12 -73 -45 -89 -49 -14 -73 -32 -64 -48 10 -16 52 -13 66 4 15 19 50 20 50 2 0 -27 -39 -50 -85 -50 -54 0 -75 16 -75 58 0 27 6 35 34 49 19 9 39 16 46 16 6 0 20 5 31 10 15 9 17 15 9 30 -14 26 -55 26 -77 0 -17 -20 -53 -28 -53 -11 0 4 9 20 21 35 19 24 27 27 72 24 41 -2 54 -8 70 -30z m175 20 c9 -9 12 -9 12 0 0 7 9 12 20 12 19 0 20 -7 20 -105 0 -98 -1 -105 -20 -105 -18 0 -20 7 -20 59 0 76 -13 109 -45 117 -40 10 -54 -18 -55 -104 0 -65 -2 -73 -17 -70 -16 3 -18 15 -18 89 0 58 5 92 14 103 16 19 91 22 109 4z m134 -63 c5 -76 18 -105 47 -105 32 0 41 22 41 102 0 71 2 78 20 78 18 0 20 -7 20 -71 0 -81 11 -109 44 -109 31 0 36 16 36 106 0 67 2 74 20 74 18 0 20 -7 20 -86 0 -47 -4 -94 -10 -104 -14 -27 -65 -35 -95 -16 -22 14 -26 14 -53 -1 -26 -15 -31 -15 -60 -1 -20 11 -32 12 -35 5 -2 -6 -11 -8 -20 -4 -14 5 -17 22 -17 107 0 91 2 100 19 100 16 0 19 -10 23 -75z m445 60 c11 -8 23 -24 26 -35 7 -27 -33 -28 -51 0 -15 24 -49 26 -74 3 -35 -31 -22 -42 55 -45 l72 -3 -3 -35 c-4 -50 -40 -83 -91 -83 -50 0 -77 22 -91 72 -12 46 3 105 33 126 27 19 96 19 124 0z m114 -42 c1 -86 10 -107 44 -113 34 -6 48 -39 18 -41 -10 -1 -22 0 -28 1 -5 1 -23 3 -40 3 l-30 2 -3 103 c-3 97 -2 102 18 102 18 0 20 -7 21 -57z m-1221 -548 c0 -12 -406 -815 -412 -815 -8 0 -408 796 -408 811 0 5 173 9 410 9 226 0 410 -2 410 -5z m840 0 c0 -10 -405 -815 -410 -815 -5 0 -410 805 -410 815 0 3 185 5 410 5 226 0 410 -2 410 -5z m840 -5 c0 -16 -399 -810 -408 -810 -6 0 -412 802 -412 815 0 3 185 5 410 5 268 0 410 -3 410 -10z m5218 -697 c-16 -36 -112 -233 -219 -448 -70 -143 -141 -288 -156 -323 -15 -34 -32 -61 -37 -59 -5 2 -55 95 -111 208 -205 410 -305 614 -305 622 0 4 187 7 416 7 229 0 414 -3 412 -7z m-6478 -138 c0 -10 -411 -827 -414 -824 -2 2 -97 190 -210 417 l-206 412 415 0 c228 0 415 -2 415 -5z m2210 -520 l0 -125 160 0 160 0 0 125 0 125 260 0 260 0 0 -120 0 -120 160 0 160 0 0 120 0 120 265 0 265 0 0 -125 0 -125 155 0 155 0 0 125 0 125 265 0 265 0 0 -260 0 -260 -265 0 -265 0 0 125 0 125 -155 0 -155 0 0 -125 0 -125 -265 0 -265 0 0 130 0 130 -160 0 -160 0 0 -130 0 -130 -260 0 -260 0 0 125 0 125 -160 0 -160 0 0 -125 0 -125 -260 0 -260 0 0 260 0 260 260 0 260 0 0 -125z m-1985 -725 c-113 -225 -209 -410 -215 -410 -5 0 -102 185 -214 410 l-205 410 419 0 420 0 -205 -410z m2594 -5 c23 -61 41 -113 41 -117 0 -5 -16 -8 -35 -8 l-35 0 0 -580 0 -580 1835 0 1835 0 0 325 c0 210 4 325 10 325 6 0 10 -120 10 -340 l0 -340 -1857 2 -1858 3 -3 593 -2 592 -35 0 c-19 0 -35 3 -35 8 0 12 82 233 86 230 1 -2 21 -53 43 -113z m1505 -254 c3 -4 23 -11 44 -14 60 -10 156 -63 200 -111 49 -53 89 -129 98 -185 4 -23 11 -44 15 -47 12 -7 11 -71 -1 -79 -5 -3 -10 -19 -10 -34 0 -16 -16 -60 -35 -98 -56 -113 -146 -182 -282 -217 -58 -14 -67 -14 -135 3 -40 10 -93 28 -117 40 -98 51 -189 179 -199 282 -2 27 -9 52 -14 55 -5 4 -5 10 0 17 5 7 12 33 14 58 16 146 163 297 309 316 22 3 42 10 45 14 7 12 61 12 68 0z"/>
 <path d="M1046 4184 c-26 -25 -30 -63 -13 -100 31 -64 107 -35 107 41 0 62 -56 98 -94 59z"/>
 <path d="M2230 4091 c0 -33 64 -53 88 -29 26 26 13 38 -38 38 -27 0 -50 -4 -50 -9z"/>
 <path d="M3380 2130 l0 -230 230 0 230 0 0 230 0 230 -230 0 -230 0 0 -230z"/>
 <path d="M4220 2130 l0 -230 230 0 230 0 0 230 0 230 -230 0 -230 0 0 -230z"/>
 <path d="M5060 2130 l0 -230 230 0 230 0 0 230 0 230 -230 0 -230 0 0 -230z"/>
 <path d="M5910 2130 l0 -230 230 0 230 0 0 230 0 230 -230 0 -230 0 0 -230z"/>
 <path d="M5920 1240 c-8 -5 -22 -7 -31 -4 -9 2 -42 -5 -74 -17 -107 -40 -208 -165 -223 -273 -16 -130 15 -231 100 -316 48 -48 158 -105 188 -97 11 3 23 1 26 -4 7 -12 71 -12 78 0 3 5 15 7 26 4 11 -3 48 8 84 25 201 94 273 339 155 524 -50 77 -156 148 -229 154 -19 1 -46 5 -60 8 -14 4 -32 2 -40 -4z m-40 -215 c30 -30 59 -55 64 -55 6 0 36 25 67 56 64 63 92 67 124 18 l17 -26 -61 -62 c-34 -34 -61 -66 -61 -71 0 -5 27 -37 60 -70 56 -57 59 -62 48 -86 -6 -14 -23 -31 -37 -37 -24 -11 -29 -8 -86 48 -33 33 -65 60 -70 60 -5 0 -38 -28 -73 -62 l-63 -63 -35 39 -35 40 61 61 c33 33 60 64 60 69 0 4 -26 37 -59 73 -53 59 -57 67 -47 89 11 23 24 30 56 33 9 0 40 -24 70 -54z"/>
 </g>
<g id="layer111" fill="#cf5a57" stroke="none">
 <path d="M0 2410 l0 -2410 4780 0 4780 0 0 2410 0 2410 -4780 0 -4780 0 0 -2410z m919 1791 c34 -32 42 -71 14 -71 -10 0 -25 13 -34 29 -32 56 -114 48 -143 -14 -55 -115 53 -232 134 -145 18 19 34 28 44 24 21 -8 20 -16 -4 -47 -44 -56 -140 -54 -195 3 -28 29 -30 37 -30 106 0 74 1 76 37 110 33 30 44 34 92 34 46 0 59 -4 85 -29z m235 -2 c28 -33 33 -75 16 -126 -21 -60 -111 -76 -158 -29 -22 21 -26 35 -26 80 0 75 27 106 95 106 40 0 51 -4 73 -31z m98 -44 c5 -80 18 -105 52 -105 37 0 46 19 46 102 0 71 2 78 20 78 18 0 20 -7 20 -84 0 -65 -4 -88 -17 -104 -24 -27 -63 -34 -95 -18 -19 10 -28 11 -31 3 -2 -6 -11 -8 -20 -4 -14 5 -17 22 -17 107 0 91 2 100 19 100 16 0 19 -10 23 -75z m341 43 c29 -39 12 -73 -45 -89 -49 -14 -73 -32 -64 -48 10 -16 52 -13 66 4 15 19 50 20 50 2 0 -27 -39 -50 -85 -50 -54 0 -75 16 -75 58 0 27 6 35 34 49 19 9 39 16 46 16 6 0 20 5 31 10 15 9 17 15 9 30 -14 26 -55 26 -77 0 -17 -20 -53 -28 -53 -11 0 4 9 20 21 35 19 24 27 27 72 24 41 -2 54 -8 70 -30z m175 20 c9 -9 12 -9 12 0 0 7 9 12 20 12 19 0 20 -7 20 -105 0 -98 -1 -105 -20 -105 -18 0 -20 7 -20 59 0 76 -13 109 -45 117 -40 10 -54 -18 -55 -104 0 -65 -2 -73 -17 -70 -16 3 -18 15 -18 89 0 58 5 92 14 103 16 19 91 22 109 4z m134 -63 c5 -76 18 -105 47 -105 32 0 41 22 41 102 0 71 2 78 20 78 18 0 20 -7 20 -71 0 -81 11 -109 44 -109 31 0 36 16 36 106 0 67 2 74 20 74 18 0 20 -7 20 -86 0 -47 -4 -94 -10 -104 -14 -27 -65 -35 -95 -16 -22 14 -26 14 -53 -1 -26 -15 -31 -15 -60 -1 -20 11 -32 12 -35 5 -2 -6 -11 -8 -20 -4 -14 5 -17 22 -17 107 0 91 2 100 19 100 16 0 19 -10 23 -75z m445 60 c11 -8 23 -24 26 -35 7 -27 -33 -28 -51 0 -15 24 -49 26 -74 3 -35 -31 -22 -42 55 -45 l72 -3 -3 -35 c-4 -50 -40 -83 -91 -83 -50 0 -77 22 -91 72 -12 46 3 105 33 126 27 19 96 19 124 0z m114 -42 c1 -86 10 -107 44 -113 34 -6 48 -39 18 -41 -10 -1 -22 0 -28 1 -5 1 -23 3 -40 3 l-30 2 -3 103 c-3 97 -2 102 18 102 18 0 20 -7 21 -57z m-1221 -548 c0 -12 -406 -815 -412 -815 -8 0 -408 796 -408 811 0 5 173 9 410 9 226 0 410 -2 410 -5z m840 0 c0 -10 -405 -815 -410 -815 -5 0 -410 805 -410 815 0 3 185 5 410 5 226 0 410 -2 410 -5z m840 -5 c0 -16 -399 -810 -408 -810 -6 0 -412 802 -412 815 0 3 185 5 410 5 268 0 410 -3 410 -10z m5218 -697 c-16 -36 -112 -233 -219 -448 -70 -143 -141 -288 -156 -323 -15 -34 -32 -61 -37 -59 -5 2 -55 95 -111 208 -205 410 -305 614 -305 622 0 4 187 7 416 7 229 0 414 -3 412 -7z m-6478 -138 c0 -10 -411 -827 -414 -824 -2 2 -97 190 -210 417 l-206 412 415 0 c228 0 415 -2 415 -5z m2210 -520 l0 -125 160 0 160 0 0 125 0 125 260 0 259 0 3 -117 3 -118 158 -3 157 -3 0 121 0 120 265 0 265 0 0 -125 0 -125 155 0 155 0 0 125 0 125 265 0 265 0 0 -260 0 -260 -265 0 -265 0 0 125 0 125 -155 0 -155 0 0 -125 0 -125 -265 0 -265 0 0 130 0 131 -157 -3 -158 -3 -3 -127 -3 -128 -259 0 -260 0 0 125 0 125 -160 0 -160 0 0 -125 0 -125 -265 0 -265 0 0 260 0 260 265 0 265 0 0 -125z m-1985 -725 c-113 -225 -209 -410 -215 -410 -5 0 -102 185 -214 410 l-205 410 419 0 420 0 -205 -410z m2594 -5 c23 -61 41 -113 41 -117 0 -5 -16 -8 -35 -8 l-35 0 0 -580 0 -580 1835 0 1835 0 0 325 c0 210 4 325 10 325 6 0 10 -120 10 -340 l0 -340 -1857 2 -1858 3 -3 593 -2 592 -35 0 c-19 0 -35 4 -35 9 0 5 15 51 34 102 45 123 48 130 52 127 1 -2 21 -53 43 -113z m1505 -254 c3 -4 23 -11 44 -14 60 -10 156 -63 200 -111 49 -53 89 -129 98 -185 4 -23 11 -44 15 -47 12 -7 11 -71 -1 -79 -5 -3 -10 -19 -10 -34 0 -16 -16 -60 -35 -98 -56 -113 -146 -182 -282 -217 -59 -15 -67 -14 -140 4 -42 10 -79 17 -82 15 -4 -2 -17 3 -31 11 -14 7 -21 13 -17 14 5 0 -14 18 -41 39 -27 22 -59 56 -72 75 -12 20 -25 34 -30 31 -5 -3 -12 5 -16 17 -8 24 -9 30 -20 116 -4 29 -11 55 -16 58 -5 4 -5 10 0 17 5 7 12 33 14 58 16 146 163 297 309 316 22 3 42 10 45 14 7 12 61 12 68 0z"/>
 <path d="M1046 4184 c-26 -25 -30 -63 -13 -100 31 -64 107 -35 107 41 0 62 -56 98 -94 59z"/>
 <path d="M2230 4091 c0 -33 64 -53 88 -29 26 26 13 38 -38 38 -27 0 -50 -4 -50 -9z"/>
 <path d="M3380 2130 l0 -230 230 0 230 0 0 230 0 230 -230 0 -230 0 0 -230z"/>
 <path d="M4220 2130 l0 -230 230 0 230 0 0 230 0 230 -230 0 -230 0 0 -230z"/>
 <path d="M5060 2130 l0 -230 230 0 230 0 0 230 0 230 -230 0 -230 0 0 -230z"/>
 <path d="M5910 2130 l0 -230 230 0 230 0 0 230 0 230 -230 0 -230 0 0 -230z"/>
 <path d="M5920 1240 c-8 -5 -22 -7 -31 -4 -9 2 -42 -5 -74 -17 -107 -40 -208 -165 -223 -273 -16 -130 15 -231 100 -316 48 -48 158 -105 188 -97 11 3 23 1 26 -4 7 -12 71 -12 78 0 3 5 15 7 26 4 30 -8 143 50 190 97 52 52 96 144 105 220 12 100 -38 237 -108 296 l-22 19 20 -26 c11 -14 5 -9 -13 10 -19 20 -41 35 -49 33 -8 -2 -12 1 -9 6 7 12 -85 52 -116 51 -13 -1 -34 1 -48 5 -14 3 -32 2 -40 -4z m-40 -215 c30 -30 59 -55 64 -55 6 0 36 25 67 56 64 63 92 67 124 18 l17 -26 -61 -62 c-34 -34 -61 -66 -61 -71 0 -5 27 -37 60 -70 57 -57 59 -62 48 -86 -7 -14 -25 -32 -41 -39 -28 -12 -30 -11 -84 49 -30 33 -60 61 -66 61 -6 0 -39 -28 -74 -62 -53 -52 -64 -59 -77 -48 -9 7 -16 9 -16 5 0 -4 -7 -2 -15 5 -8 7 -12 16 -9 22 3 5 1 15 -5 22 -8 9 5 27 49 71 33 33 60 65 60 71 0 6 -19 29 -42 50 -24 21 -43 43 -43 49 -1 5 -7 9 -14 7 -7 -1 -10 2 -7 7 4 5 2 12 -3 15 -12 8 10 54 29 60 36 9 49 3 100 -49z"/>
 <path d="M5765 710 c3 -5 8 -10 11 -10 3 0 2 5 -1 10 -3 6 -8 10 -11 10 -3 0 -2 -4 1 -10z"/>
 </g>
<g id="layer112" fill="#99c455" stroke="none">
 <path d="M0 2410 l0 -2410 4780 0 4780 0 0 2410 0 2410 -4780 0 -4780 0 0 -2410z m919 1791 c34 -32 42 -71 14 -71 -10 0 -25 13 -34 29 -32 56 -114 48 -143 -14 -55 -115 53 -232 134 -145 18 19 34 28 44 24 21 -8 20 -16 -4 -47 -44 -56 -140 -54 -195 3 -28 29 -30 37 -30 106 0 74 1 76 37 110 33 30 44 34 92 34 46 0 59 -4 85 -29z m235 -2 c28 -33 33 -75 16 -126 -21 -60 -111 -76 -158 -29 -22 21 -26 35 -26 80 0 75 27 106 95 106 40 0 51 -4 73 -31z m98 -44 c5 -80 18 -105 52 -105 37 0 46 19 46 102 0 71 2 78 20 78 18 0 20 -7 20 -84 0 -65 -4 -88 -17 -104 -24 -27 -63 -34 -95 -18 -19 10 -28 11 -31 3 -2 -6 -11 -8 -20 -4 -14 5 -17 22 -17 107 0 91 2 100 19 100 16 0 19 -10 23 -75z m341 43 c29 -39 12 -73 -45 -89 -49 -14 -73 -32 -64 -48 10 -16 52 -13 66 4 15 19 50 20 50 2 0 -27 -39 -50 -85 -50 -54 0 -75 16 -75 58 0 27 6 35 34 49 19 9 39 16 46 16 6 0 20 5 31 10 15 9 17 15 9 30 -14 26 -55 26 -77 0 -17 -20 -53 -28 -53 -11 0 4 9 20 21 35 19 24 27 27 72 24 41 -2 54 -8 70 -30z m175 20 c9 -9 12 -9 12 0 0 7 9 12 20 12 19 0 20 -7 20 -105 0 -98 -1 -105 -20 -105 -18 0 -20 7 -20 59 0 76 -13 109 -45 117 -40 10 -54 -18 -55 -104 0 -65 -2 -73 -17 -70 -16 3 -18 15 -18 89 0 58 5 92 14 103 16 19 91 22 109 4z m134 -63 c5 -76 18 -105 47 -105 32 0 41 22 41 102 0 71 2 78 20 78 18 0 20 -7 20 -71 0 -81 11 -109 44 -109 31 0 36 16 36 106 0 67 2 74 20 74 18 0 20 -7 20 -86 0 -47 -4 -94 -10 -104 -14 -27 -65 -35 -95 -16 -22 14 -26 14 -53 -1 -26 -15 -31 -15 -60 -1 -20 11 -32 12 -35 5 -2 -6 -11 -8 -20 -4 -14 5 -17 22 -17 107 0 91 2 100 19 100 16 0 19 -10 23 -75z m445 60 c11 -8 23 -24 26 -35 7 -27 -33 -28 -51 0 -15 24 -49 26 -74 3 -35 -31 -22 -42 55 -45 l72 -3 -3 -35 c-4 -50 -40 -83 -91 -83 -50 0 -77 22 -91 72 -12 46 3 105 33 126 27 19 96 19 124 0z m114 -42 c1 -86 10 -107 44 -113 34 -6 48 -39 18 -41 -10 -1 -22 0 -28 1 -5 1 -23 3 -40 3 l-30 2 -3 103 c-3 97 -2 102 18 102 18 0 20 -7 21 -57z m-1221 -548 c0 -12 -406 -815 -412 -815 -8 0 -408 796 -408 811 0 5 173 9 410 9 226 0 410 -2 410 -5z m840 0 c0 -10 -405 -815 -410 -815 -5 0 -410 805 -410 815 0 3 185 5 410 5 226 0 410 -2 410 -5z m840 -5 c0 -16 -399 -810 -408 -810 -6 0 -412 802 -412 815 0 3 185 5 410 5 268 0 410 -3 410 -10z m5220 -696 c0 -4 -35 -79 -79 -168 -268 -548 -332 -676 -339 -676 -4 0 -16 20 -26 43 -11 23 -102 210 -203 415 -101 205 -183 377 -183 382 0 6 155 10 415 10 228 0 415 -3 415 -6z m-6480 -139 c0 -10 -411 -827 -414 -824 -2 2 -97 190 -210 417 l-206 412 415 0 c228 0 415 -2 415 -5z m2210 -520 l0 -125 160 0 160 0 0 125 0 125 260 0 259 0 3 -117 3 -118 158 -3 157 -3 0 121 0 120 265 0 265 0 0 -125 0 -125 155 0 155 0 0 125 0 125 265 0 265 0 0 -260 0 -260 -265 0 -265 0 0 125 0 125 -155 0 -155 0 0 -125 0 -125 -265 0 -265 0 0 130 0 131 -157 -3 -158 -3 -3 -127 -3 -128 -259 0 -260 0 0 125 0 125 -160 0 -160 0 0 -125 0 -125 -265 0 -265 0 0 260 0 260 265 0 265 0 0 -125z m-1985 -725 c-113 -225 -209 -410 -215 -410 -5 0 -102 185 -214 410 l-205 410 419 0 420 0 -205 -410z m2594 -5 c23 -61 41 -113 41 -117 0 -5 -16 -8 -35 -8 l-35 0 0 -580 0 -580 1835 0 1835 0 0 325 c0 210 4 325 10 325 6 0 10 -120 10 -340 l0 -340 -1857 2 -1858 3 -3 593 -2 592 -35 0 c-19 0 -35 4 -35 9 0 5 15 51 34 102 45 123 48 130 52 127 1 -2 21 -53 43 -113z m1543 -256 c118 -25 230 -110 282 -214 80 -161 48 -344 -83 -468 -96 -91 -199 -124 -336 -107 -95 12 -163 49 -235 128 -67 74 -97 140 -106 231 -17 156 76 321 222 392 97 48 163 58 256 38z"/>
 <path d="M1046 4184 c-26 -25 -30 -63 -13 -100 31 -64 107 -35 107 41 0 62 -56 98 -94 59z"/>
 <path d="M2230 4091 c0 -33 64 -53 88 -29 26 26 13 38 -38 38 -27 0 -50 -4 -50 -9z"/>
 <path d="M3380 2130 l0 -230 230 0 230 0 0 230 0 230 -230 0 -230 0 0 -230z"/>
 <path d="M4220 2130 l0 -230 230 0 230 0 0 230 0 230 -230 0 -230 0 0 -230z"/>
 <path d="M5060 2130 l0 -230 230 0 230 0 0 230 0 230 -230 0 -230 0 0 -230z"/>
 <path d="M5910 2130 l0 -230 230 0 230 0 0 230 0 230 -230 0 -230 0 0 -230z"/>
 <path d="M5860 1224 c-112 -30 -201 -109 -241 -213 -68 -178 12 -368 190 -449 79 -36 193 -36 274 1 164 75 250 260 196 423 -22 67 -36 91 -84 142 -44 48 -89 73 -166 96 -64 19 -97 19 -169 0z m20 -189 c30 -30 59 -55 65 -55 6 0 35 25 65 55 33 34 63 55 76 55 25 0 64 -43 64 -69 0 -9 -25 -41 -55 -71 -30 -30 -55 -59 -55 -65 0 -6 25 -35 55 -65 30 -30 55 -63 55 -73 0 -23 -44 -67 -67 -67 -10 0 -43 25 -73 55 -30 30 -59 55 -65 55 -6 0 -35 -25 -65 -55 -58 -59 -76 -65 -108 -37 -41 36 -36 63 23 122 30 30 55 59 55 64 0 5 -25 35 -55 67 -30 32 -55 65 -55 74 0 22 45 65 67 65 10 0 43 -25 73 -55z"/>
 </g>
<g id="layer113" fill="#9fbb65" stroke="none">
 <path d="M0 2410 l0 -2410 4780 0 4780 0 0 2410 0 2410 -4780 0 -4780 0 0 -2410z m919 1791 c34 -32 42 -71 14 -71 -10 0 -25 13 -34 29 -32 56 -114 48 -143 -14 -55 -115 53 -232 134 -145 18 19 34 28 44 24 21 -8 20 -16 -4 -47 -44 -56 -140 -54 -195 3 -28 29 -30 37 -30 106 0 74 1 76 37 110 33 30 44 34 92 34 46 0 59 -4 85 -29z m235 -2 c28 -33 33 -75 16 -126 -21 -60 -111 -76 -158 -29 -22 21 -26 35 -26 80 0 75 27 106 95 106 40 0 51 -4 73 -31z m98 -44 c5 -80 18 -105 52 -105 37 0 46 19 46 102 0 71 2 78 20 78 18 0 20 -7 20 -84 0 -65 -4 -88 -17 -104 -24 -27 -63 -34 -95 -18 -19 10 -28 11 -31 3 -2 -6 -11 -8 -20 -4 -14 5 -17 22 -17 107 0 91 2 100 19 100 16 0 19 -10 23 -75z m341 43 c29 -39 12 -73 -45 -89 -49 -14 -73 -32 -64 -48 10 -16 52 -13 66 4 15 19 50 20 50 2 0 -27 -39 -50 -85 -50 -54 0 -75 16 -75 58 0 27 6 35 34 49 19 9 39 16 46 16 6 0 20 5 31 10 15 9 17 15 9 30 -14 26 -55 26 -77 0 -17 -20 -53 -28 -53 -11 0 4 9 20 21 35 19 24 27 27 72 24 41 -2 54 -8 70 -30z m175 20 c9 -9 12 -9 12 0 0 7 9 12 20 12 19 0 20 -7 20 -105 0 -98 -1 -105 -20 -105 -18 0 -20 7 -20 59 0 76 -13 109 -45 117 -40 10 -54 -18 -55 -104 0 -65 -2 -73 -17 -70 -16 3 -18 15 -18 89 0 58 5 92 14 103 16 19 91 22 109 4z m134 -63 c5 -76 18 -105 47 -105 32 0 41 22 41 102 0 71 2 78 20 78 18 0 20 -7 20 -71 0 -81 11 -109 44 -109 31 0 36 16 36 106 0 67 2 74 20 74 18 0 20 -7 20 -86 0 -47 -4 -94 -10 -104 -14 -27 -65 -35 -95 -16 -22 14 -26 14 -53 -1 -26 -15 -31 -15 -60 -1 -20 11 -32 12 -35 5 -2 -6 -11 -8 -20 -4 -14 5 -17 22 -17 107 0 91 2 100 19 100 16 0 19 -10 23 -75z m445 60 c11 -8 23 -24 26 -35 7 -27 -33 -28 -51 0 -15 24 -49 26 -74 3 -35 -31 -22 -42 55 -45 l72 -3 -3 -35 c-4 -50 -40 -83 -91 -83 -50 0 -77 22 -91 72 -12 46 3 105 33 126 27 19 96 19 124 0z m114 -42 c1 -86 10 -107 44 -113 34 -6 48 -39 18 -41 -10 -1 -22 0 -28 1 -5 1 -23 3 -40 3 l-30 2 -3 103 c-3 97 -2 102 18 102 18 0 20 -7 21 -57z m-1221 -548 c0 -12 -406 -815 -412 -815 -8 0 -408 796 -408 811 0 5 173 9 410 9 226 0 410 -2 410 -5z m840 0 c0 -10 -405 -815 -410 -815 -5 0 -410 805 -410 815 0 3 185 5 410 5 226 0 410 -2 410 -5z m840 -5 c0 -16 -399 -810 -408 -810 -6 0 -412 802 -412 815 0 3 185 5 410 5 268 0 410 -3 410 -10z m5220 -696 c0 -4 -35 -79 -79 -168 -268 -548 -332 -676 -339 -676 -4 0 -16 20 -26 43 -11 23 -102 210 -203 415 -101 205 -183 377 -183 382 0 6 155 10 415 10 228 0 415 -3 415 -6z m-6480 -139 c0 -10 -411 -827 -414 -824 -2 2 -97 190 -210 417 l-206 412 415 0 c228 0 415 -2 415 -5z m2210 -520 l0 -125 160 0 160 0 0 125 0 125 260 0 259 0 3 -117 3 -118 158 -3 157 -3 0 121 0 120 265 0 265 0 0 -125 0 -125 155 0 155 0 0 125 0 125 265 0 265 0 0 -260 0 -260 -265 0 -265 0 0 125 0 125 -155 0 -155 0 0 -125 0 -125 -265 0 -265 0 0 130 0 131 -157 -3 -158 -3 -3 -127 -3 -128 -259 0 -260 0 0 125 0 125 -160 0 -160 0 0 -125 0 -125 -265 0 -265 0 0 260 0 260 265 0 265 0 0 -125z m-1985 -725 c-113 -225 -209 -410 -215 -410 -5 0 -102 185 -214 410 l-205 410 419 0 420 0 -205 -410z m2594 -5 c23 -61 41 -113 41 -117 0 -5 -16 -8 -35 -8 l-35 0 0 -580 0 -580 1835 0 1835 0 0 325 c0 210 4 325 10 325 6 0 10 -120 10 -340 l0 -340 -1857 2 -1858 3 -3 593 -2 592 -35 0 c-19 0 -35 4 -35 9 0 5 15 51 34 102 45 123 48 130 52 127 1 -2 21 -53 43 -113z m1543 -256 c118 -25 230 -110 282 -214 80 -161 48 -344 -83 -468 -96 -91 -199 -124 -336 -107 -95 12 -163 49 -235 128 -67 74 -97 140 -106 231 -17 156 76 321 222 392 97 48 163 58 256 38z m960 -10 c125 -26 247 -127 289 -239 91 -238 -54 -489 -304 -528 -78 -12 -164 5 -245 48 -74 39 -120 87 -164 172 -31 59 -33 70 -33 163 0 92 3 105 31 165 65 135 198 223 346 229 15 1 51 -4 80 -10z"/>
 <path d="M1046 4184 c-26 -25 -30 -63 -13 -100 31 -64 107 -35 107 41 0 62 -56 98 -94 59z"/>
 <path d="M2230 4091 c0 -33 64 -53 88 -29 26 26 13 38 -38 38 -27 0 -50 -4 -50 -9z"/>
 <path d="M3380 2130 l0 -230 230 0 230 0 0 230 0 230 -230 0 -230 0 0 -230z"/>
 <path d="M4220 2130 l0 -230 230 0 230 0 0 230 0 230 -230 0 -230 0 0 -230z"/>
 <path d="M5060 2130 l0 -230 230 0 230 0 0 230 0 230 -230 0 -230 0 0 -230z"/>
 <path d="M5910 2130 l0 -230 230 0 230 0 0 230 0 230 -230 0 -230 0 0 -230z"/>
 <path d="M5860 1224 c-112 -30 -201 -109 -241 -213 -68 -178 12 -368 190 -449 79 -36 193 -36 274 1 164 75 250 260 196 423 -22 67 -36 91 -84 142 -44 48 -89 73 -166 96 -64 19 -97 19 -169 0z m20 -189 c30 -30 59 -55 65 -55 6 0 35 25 65 55 33 34 63 55 76 55 25 0 64 -43 64 -69 0 -9 -25 -41 -55 -71 -30 -30 -55 -59 -55 -65 0 -6 25 -35 55 -65 30 -30 55 -63 55 -73 0 -23 -44 -67 -67 -67 -10 0 -43 25 -73 55 -30 30 -59 55 -65 55 -6 0 -35 -25 -65 -55 -58 -59 -76 -65 -108 -37 -41 36 -36 63 23 122 30 30 55 59 55 64 0 5 -25 35 -55 67 -30 32 -55 65 -55 74 0 22 45 65 67 65 10 0 43 -25 73 -55z"/>
 <path d="M6815 1236 c-114 -39 -185 -99 -233 -196 -24 -49 -27 -66 -27 -155 0 -88 3 -106 27 -155 71 -144 236 -231 381 -202 175 35 294 167 305 338 10 154 -68 284 -213 354 -57 28 -182 36 -240 16z m188 -314 c75 -76 137 -144 137 -151 0 -24 -21 -51 -39 -51 -10 0 -66 46 -123 103 -57 56 -114 111 -126 121 l-23 20 -49 -49 -50 -49 -25 24 c-14 13 -25 29 -25 36 0 14 121 139 141 146 23 8 38 -4 182 -150z"/>
 </g>
<g id="layer114" fill="#a0a99c" stroke="none">
 <path d="M0 2410 l0 -2410 4780 0 4780 0 0 2410 0 2410 -4780 0 -4780 0 0 -2410z m919 1791 c34 -32 42 -71 14 -71 -10 0 -25 13 -34 29 -32 56 -114 48 -143 -14 -55 -115 53 -232 134 -145 18 19 34 28 44 24 21 -8 20 -16 -4 -47 -44 -56 -140 -54 -195 3 -28 29 -30 37 -30 106 0 74 1 76 37 110 33 30 44 34 92 34 46 0 59 -4 85 -29z m235 -2 c28 -33 33 -75 16 -126 -21 -60 -111 -76 -158 -29 -22 21 -26 35 -26 80 0 75 27 106 95 106 40 0 51 -4 73 -31z m98 -44 c5 -80 18 -105 52 -105 37 0 46 19 46 102 0 71 2 78 20 78 18 0 20 -7 20 -84 0 -65 -4 -88 -17 -104 -24 -27 -63 -34 -95 -18 -19 10 -28 11 -31 3 -2 -6 -11 -8 -20 -4 -14 5 -17 22 -17 107 0 91 2 100 19 100 16 0 19 -10 23 -75z m341 43 c29 -39 12 -73 -45 -89 -49 -14 -73 -32 -64 -48 10 -16 52 -13 66 4 15 19 50 20 50 2 0 -27 -39 -50 -85 -50 -54 0 -75 16 -75 58 0 27 6 35 34 49 19 9 39 16 46 16 6 0 20 5 31 10 15 9 17 15 9 30 -14 26 -55 26 -77 0 -17 -20 -53 -28 -53 -11 0 4 9 20 21 35 19 24 27 27 72 24 41 -2 54 -8 70 -30z m175 20 c9 -9 12 -9 12 0 0 7 9 12 20 12 19 0 20 -7 20 -105 0 -98 -1 -105 -20 -105 -18 0 -20 7 -20 59 0 76 -13 109 -45 117 -40 10 -54 -18 -55 -104 0 -65 -2 -73 -17 -70 -16 3 -18 15 -18 89 0 58 5 92 14 103 16 19 91 22 109 4z m134 -63 c5 -76 18 -105 47 -105 32 0 41 22 41 102 0 71 2 78 20 78 18 0 20 -7 20 -71 0 -81 11 -109 44 -109 31 0 36 16 36 106 0 67 2 74 20 74 18 0 20 -7 20 -86 0 -47 -4 -94 -10 -104 -14 -27 -65 -35 -95 -16 -22 14 -26 14 -53 -1 -26 -15 -31 -15 -60 -1 -20 11 -32 12 -35 5 -2 -6 -11 -8 -20 -4 -14 5 -17 22 -17 107 0 91 2 100 19 100 16 0 19 -10 23 -75z m445 60 c11 -8 23 -24 26 -35 7 -27 -33 -28 -51 0 -15 24 -49 26 -74 3 -35 -31 -22 -42 55 -45 l72 -3 -3 -35 c-4 -50 -40 -83 -91 -83 -50 0 -77 22 -91 72 -12 46 3 105 33 126 27 19 96 19 124 0z m114 -42 c1 -86 10 -107 44 -113 34 -6 48 -39 18 -41 -10 -1 -22 0 -28 1 -5 1 -23 3 -40 3 l-30 2 -3 103 c-3 97 -2 102 18 102 18 0 20 -7 21 -57z m-1221 -548 c0 -12 -406 -815 -412 -815 -8 0 -408 796 -408 811 0 5 173 9 410 9 226 0 410 -2 410 -5z m840 0 c0 -10 -405 -815 -410 -815 -5 0 -410 805 -410 815 0 3 185 5 410 5 226 0 410 -2 410 -5z m840 -5 c0 -16 -399 -810 -408 -810 -6 0 -412 802 -412 815 0 3 185 5 410 5 268 0 410 -3 410 -10z m5220 -696 c0 -4 -35 -79 -79 -168 -268 -548 -332 -676 -339 -676 -4 0 -16 20 -26 43 -11 23 -102 210 -203 415 -101 205 -183 377 -183 382 0 6 155 10 415 10 228 0 415 -3 415 -6z m-6480 -139 c0 -10 -411 -827 -414 -824 -2 2 -97 190 -210 417 l-206 412 415 0 c228 0 415 -2 415 -5z m2210 -520 l0 -125 160 0 160 0 0 125 0 125 260 0 259 0 3 -117 3 -118 158 -3 157 -3 0 121 0 120 265 0 265 0 0 -125 0 -125 155 0 155 0 0 125 0 125 265 0 265 0 0 -260 0 -260 -265 0 -265 0 0 125 0 125 -155 0 -155 0 0 -125 0 -125 -265 0 -265 0 0 130 0 131 -157 -3 -158 -3 -3 -127 -3 -128 -259 0 -260 0 0 125 0 125 -160 0 -160 0 0 -125 0 -125 -265 0 -265 0 0 260 0 260 265 0 265 0 0 -125z m-1985 -725 c-113 -225 -209 -410 -215 -410 -5 0 -102 185 -214 410 l-205 410 419 0 420 0 -205 -410z m2594 -5 c23 -61 41 -113 41 -117 0 -5 -16 -8 -35 -8 l-35 0 0 -580 0 -580 1835 0 1835 0 0 325 c0 210 4 325 10 325 6 0 10 -120 10 -340 l0 -340 -1857 2 -1858 3 -3 593 -2 592 -35 0 c-19 0 -35 4 -35 9 0 5 15 51 34 102 45 123 48 130 52 127 1 -2 21 -53 43 -113z m1543 -256 c118 -25 230 -110 282 -214 80 -161 48 -344 -83 -468 -96 -91 -199 -124 -336 -107 -95 12 -163 49 -235 128 -67 74 -97 140 -106 231 -17 156 76 321 222 392 97 48 163 58 256 38z m960 -10 c84 -18 138 -48 204 -114 45 -44 67 -76 83 -120 42 -110 38 -231 -11 -329 -26 -51 -102 -132 -153 -161 -53 -31 -182 -68 -214 -62 -175 33 -279 105 -339 237 -13 30 -28 62 -32 70 -9 20 -5 169 5 195 51 130 116 208 209 251 91 41 163 51 248 33z"/>
 <path d="M1046 4184 c-26 -25 -30 -63 -13 -100 31 -64 107 -35 107 41 0 62 -56 98 -94 59z"/>
 <path d="M2230 4091 c0 -33 64 -53 88 -29 26 26 13 38 -38 38 -27 0 -50 -4 -50 -9z"/>
 <path d="M3380 2130 l0 -230 230 0 230 0 0 230 0 230 -230 0 -230 0 0 -230z"/>
 <path d="M4220 2130 l0 -230 230 0 230 0 0 230 0 230 -230 0 -230 0 0 -230z"/>
 <path d="M5060 2130 l0 -230 230 0 230 0 0 230 0 230 -230 0 -230 0 0 -230z"/>
 <path d="M5910 2130 l0 -230 230 0 230 0 0 230 0 230 -230 0 -230 0 0 -230z"/>
 <path d="M5860 1224 c-112 -30 -201 -109 -241 -213 -68 -178 12 -368 190 -449 79 -36 193 -36 274 1 164 75 250 260 196 423 -22 67 -36 91 -84 142 -44 48 -89 73 -166 96 -64 19 -97 19 -169 0z m20 -189 c30 -30 59 -55 65 -55 6 0 35 25 65 55 33 34 63 55 76 55 25 0 64 -43 64 -69 0 -9 -25 -41 -55 -71 -30 -30 -55 -59 -55 -65 0 -6 25 -35 55 -65 30 -30 55 -63 55 -73 0 -23 -44 -67 -67 -67 -10 0 -43 25 -73 55 -30 30 -59 55 -65 55 -6 0 -35 -25 -65 -55 -58 -59 -76 -65 -108 -37 -41 36 -36 63 23 122 30 30 55 59 55 64 0 5 -25 35 -55 67 -30 32 -55 65 -55 74 0 22 45 65 67 65 10 0 43 -25 73 -55z"/>
 <path d="M6790 1223 c-96 -33 -185 -119 -220 -211 -26 -68 -25 -187 1 -258 25 -66 100 -151 166 -186 216 -117 483 15 522 258 11 70 -1 159 -29 214 -28 56 -124 149 -178 173 -62 27 -198 33 -262 10z m202 -290 c98 -97 148 -154 148 -168 0 -12 -11 -32 -25 -45 l-26 -24 -129 129 -130 129 -49 -48 c-55 -54 -80 -56 -104 -6 -14 28 -14 29 57 98 61 60 83 77 105 81 3 1 71 -65 153 -146z"/>
 </g>
<g id="layer115" fill="#accd6c" stroke="none">
 <path d="M0 2410 l0 -2410 4780 0 4780 0 0 2410 0 2410 -4780 0 -4780 0 0 -2410z m919 1791 c34 -32 42 -71 14 -71 -10 0 -25 13 -34 29 -32 56 -114 48 -143 -14 -55 -115 53 -232 134 -145 18 19 34 28 44 24 21 -8 20 -16 -4 -47 -44 -56 -140 -54 -195 3 -28 29 -30 37 -30 106 0 74 1 76 37 110 33 30 44 34 92 34 46 0 59 -4 85 -29z m235 -2 c28 -33 33 -75 16 -126 -21 -60 -111 -76 -158 -29 -22 21 -26 35 -26 80 0 75 27 106 95 106 40 0 51 -4 73 -31z m98 -44 c5 -80 18 -105 52 -105 37 0 46 19 46 102 0 71 2 78 20 78 18 0 20 -7 20 -84 0 -65 -4 -88 -17 -104 -24 -27 -63 -34 -95 -18 -19 10 -28 11 -31 3 -2 -6 -11 -8 -20 -4 -14 5 -17 22 -17 107 0 91 2 100 19 100 16 0 19 -10 23 -75z m341 43 c29 -39 12 -73 -45 -89 -49 -14 -73 -32 -64 -48 10 -16 52 -13 66 4 15 19 50 20 50 2 0 -27 -39 -50 -85 -50 -54 0 -75 16 -75 58 0 27 6 35 34 49 19 9 39 16 46 16 6 0 20 5 31 10 15 9 17 15 9 30 -14 26 -55 26 -77 0 -17 -20 -53 -28 -53 -11 0 4 9 20 21 35 19 24 27 27 72 24 41 -2 54 -8 70 -30z m175 20 c9 -9 12 -9 12 0 0 7 9 12 20 12 19 0 20 -7 20 -105 0 -98 -1 -105 -20 -105 -18 0 -20 7 -20 59 0 76 -13 109 -45 117 -40 10 -54 -18 -55 -104 0 -65 -2 -73 -17 -70 -16 3 -18 15 -18 89 0 58 5 92 14 103 16 19 91 22 109 4z m134 -63 c5 -76 18 -105 47 -105 32 0 41 22 41 102 0 71 2 78 20 78 18 0 20 -7 20 -71 0 -81 11 -109 44 -109 31 0 36 16 36 106 0 67 2 74 20 74 18 0 20 -7 20 -86 0 -47 -4 -94 -10 -104 -14 -27 -65 -35 -95 -16 -22 14 -26 14 -53 -1 -26 -15 -31 -15 -60 -1 -20 11 -32 12 -35 5 -2 -6 -11 -8 -20 -4 -14 5 -17 22 -17 107 0 91 2 100 19 100 16 0 19 -10 23 -75z m445 60 c11 -8 23 -24 26 -35 7 -27 -33 -28 -51 0 -15 24 -49 26 -74 3 -35 -31 -22 -42 55 -45 l72 -3 -3 -35 c-4 -50 -40 -83 -91 -83 -50 0 -77 22 -91 72 -12 46 3 105 33 126 27 19 96 19 124 0z m114 -42 c1 -86 10 -107 44 -113 34 -6 48 -39 18 -41 -10 -1 -22 0 -28 1 -5 1 -23 3 -40 3 l-30 2 -3 103 c-3 97 -2 102 18 102 18 0 20 -7 21 -57z m-1221 -548 c0 -12 -406 -815 -412 -815 -8 0 -408 796 -408 811 0 5 173 9 410 9 226 0 410 -2 410 -5z m840 0 c0 -10 -405 -815 -410 -815 -5 0 -410 805 -410 815 0 3 185 5 410 5 226 0 410 -2 410 -5z m840 -5 c0 -16 -399 -810 -408 -810 -6 0 -412 802 -412 815 0 3 185 5 410 5 268 0 410 -3 410 -10z m5220 -696 c0 -4 -35 -79 -79 -168 -268 -548 -332 -676 -339 -676 -4 0 -16 20 -26 43 -11 23 -102 210 -203 415 -101 205 -183 377 -183 382 0 6 155 10 415 10 228 0 415 -3 415 -6z m-6480 -139 c0 -10 -411 -827 -414 -824 -2 2 -97 190 -210 417 l-206 412 415 0 c228 0 415 -2 415 -5z m2211 -517 l-2 -128 155 0 155 0 3 128 3 127 265 0 265 0 3 -123 3 -123 152 3 152 3 3 123 3 122 264 0 265 0 0 -130 0 -130 155 0 155 0 0 130 0 130 265 0 265 0 0 -270 0 -270 -265 0 -265 0 0 130 0 130 -155 0 -155 0 0 -130 0 -130 -265 0 -265 0 0 135 0 135 -155 0 -154 0 -3 -132 -3 -133 -265 0 -265 0 -3 128 -3 127 -148 0 c-131 0 -150 -2 -155 -17 -4 -10 -6 -67 -5 -128 l2 -110 -267 -3 -266 -2 0 263 c0 145 3 267 7 270 4 4 123 6 266 5 l259 -3 -1 -127z m-1986 -728 c-113 -225 -209 -410 -215 -410 -5 0 -102 185 -214 410 l-205 410 419 0 420 0 -205 -410z m2586 29 c17 -46 34 -95 39 -109 4 -14 11 -33 15 -42 6 -15 1 -18 -34 -18 l-41 0 0 -575 0 -575 1830 0 1830 0 0 325 c0 282 2 325 15 325 13 0 15 -44 15 -340 l0 -340 -1857 2 -1858 3 -3 588 -2 587 -40 0 c-22 0 -40 2 -40 4 0 12 93 256 96 253 2 -2 18 -41 35 -88z m1551 -290 c118 -25 230 -110 282 -214 80 -161 48 -344 -83 -468 -68 -64 -130 -95 -213 -107 -228 -32 -422 109 -461 335 -28 165 64 340 219 416 97 48 163 58 256 38z m960 -10 c84 -18 138 -48 204 -114 45 -44 67 -76 83 -120 42 -110 38 -231 -11 -329 -26 -51 -102 -132 -153 -161 -59 -34 -182 -68 -219 -61 -17 4 -40 8 -51 9 -11 1 -26 6 -32 10 -7 5 -17 6 -21 3 -5 -3 -24 5 -43 16 -19 12 -40 23 -48 24 -18 3 -101 85 -101 100 0 7 -7 14 -15 18 -8 3 -15 9 -14 13 3 18 -2 33 -17 47 -8 9 -16 26 -18 39 -1 13 -5 28 -9 33 -8 14 -2 163 8 189 48 127 116 208 209 251 91 41 163 51 248 33z"/>
 <path d="M1046 4184 c-26 -25 -30 -63 -13 -100 31 -64 107 -35 107 41 0 62 -56 98 -94 59z"/>
 <path d="M2230 4091 c0 -33 64 -53 88 -29 26 26 13 38 -38 38 -27 0 -50 -4 -50 -9z"/>
 <path d="M3380 2130 l0 -230 224 0 c195 0 225 2 230 16 8 20 8 408 0 428 -5 14 -35 16 -230 16 l-224 0 0 -230z"/>
 <path d="M4220 2130 l0 -230 230 0 230 0 0 230 0 230 -230 0 -230 0 0 -230z"/>
 <path d="M5070 2130 l0 -230 225 0 225 0 0 230 0 230 -225 0 -225 0 0 -230z"/>
 <path d="M5910 2130 l0 -230 225 0 225 0 0 230 0 230 -225 0 -225 0 0 -230z"/>
 <path d="M5860 1224 c-112 -30 -201 -109 -241 -213 -68 -178 12 -368 190 -449 79 -36 193 -36 274 1 300 137 273 558 -42 657 -74 23 -106 24 -181 4z m20 -189 c30 -30 59 -55 65 -55 6 0 35 25 65 55 33 34 63 55 76 55 25 0 64 -43 64 -69 0 -9 -25 -41 -55 -71 -30 -30 -55 -59 -55 -65 0 -6 25 -35 55 -65 30 -30 55 -63 55 -73 0 -23 -44 -67 -67 -67 -10 0 -43 25 -73 55 -30 30 -59 55 -65 55 -6 0 -35 -25 -65 -55 -30 -30 -62 -55 -71 -55 -26 0 -69 39 -69 64 0 13 21 43 55 76 30 30 55 59 55 66 0 6 -25 35 -55 63 -31 29 -55 61 -55 72 0 25 43 69 67 69 10 0 43 -25 73 -55z"/>
 <path d="M6790 1223 c-96 -33 -185 -119 -220 -211 -26 -68 -25 -187 1 -258 25 -66 100 -151 166 -186 217 -118 482 15 522 261 7 46 7 74 -4 113 -7 29 -11 56 -9 60 3 5 2 8 -3 8 -4 0 -19 20 -32 44 -25 48 -114 139 -139 142 -8 2 -18 7 -21 12 -20 29 -193 39 -261 15z m202 -290 c98 -97 148 -154 148 -168 0 -32 -43 -69 -67 -57 -10 6 -69 63 -132 126 l-115 117 -47 -47 c-52 -51 -76 -53 -106 -8 -16 25 -15 26 53 96 58 59 91 84 113 87 3 1 71 -65 153 -146z"/>
 </g>
<g id="layer116" fill="#f6c043" stroke="none">
 <path d="M0 2410 l0 -2410 4780 0 4780 0 0 2410 0 2410 -4780 0 -4780 0 0 -2410z m919 1791 c34 -32 42 -71 14 -71 -10 0 -25 13 -34 29 -32 56 -114 48 -143 -14 -55 -115 53 -232 134 -145 18 19 34 28 44 24 21 -8 20 -16 -4 -47 -44 -56 -140 -54 -195 3 -28 29 -30 37 -30 106 0 74 1 76 37 110 33 30 44 34 92 34 46 0 59 -4 85 -29z m235 -2 c28 -33 33 -75 16 -126 -21 -60 -111 -76 -158 -29 -22 21 -26 35 -26 80 0 75 27 106 95 106 40 0 51 -4 73 -31z m98 -44 c5 -80 18 -105 52 -105 37 0 46 19 46 102 0 71 2 78 20 78 18 0 20 -7 20 -84 0 -65 -4 -88 -17 -104 -24 -27 -63 -34 -95 -18 -19 10 -28 11 -31 3 -2 -6 -11 -8 -20 -4 -14 5 -17 22 -17 107 0 91 2 100 19 100 16 0 19 -10 23 -75z m341 43 c29 -39 12 -73 -45 -89 -49 -14 -73 -32 -64 -48 10 -16 52 -13 66 4 15 19 50 20 50 2 0 -27 -39 -50 -85 -50 -54 0 -75 16 -75 58 0 27 6 35 34 49 19 9 39 16 46 16 6 0 20 5 31 10 15 9 17 15 9 30 -14 26 -55 26 -77 0 -17 -20 -53 -28 -53 -11 0 4 9 20 21 35 19 24 27 27 72 24 41 -2 54 -8 70 -30z m175 20 c9 -9 12 -9 12 0 0 7 9 12 20 12 19 0 20 -7 20 -105 0 -98 -1 -105 -20 -105 -18 0 -20 7 -20 59 0 76 -13 109 -45 117 -40 10 -54 -18 -55 -104 0 -65 -2 -73 -17 -70 -16 3 -18 15 -18 89 0 58 5 92 14 103 16 19 91 22 109 4z m134 -63 c5 -76 18 -105 47 -105 32 0 41 22 41 102 0 71 2 78 20 78 18 0 20 -7 20 -71 0 -81 11 -109 44 -109 31 0 36 16 36 106 0 67 2 74 20 74 18 0 20 -7 20 -86 0 -47 -4 -94 -10 -104 -14 -27 -65 -35 -95 -16 -22 14 -26 14 -53 -1 -26 -15 -31 -15 -60 -1 -20 11 -32 12 -35 5 -2 -6 -11 -8 -20 -4 -14 5 -17 22 -17 107 0 91 2 100 19 100 16 0 19 -10 23 -75z m445 60 c11 -8 23 -24 26 -35 7 -27 -33 -28 -51 0 -15 24 -49 26 -74 3 -35 -31 -22 -42 55 -45 l72 -3 -3 -35 c-4 -50 -40 -83 -91 -83 -50 0 -77 22 -91 72 -12 46 3 105 33 126 27 19 96 19 124 0z m114 -42 c1 -86 10 -107 44 -113 34 -6 48 -39 18 -41 -10 -1 -22 0 -28 1 -5 1 -23 3 -40 3 l-30 2 -3 103 c-3 97 -2 102 18 102 18 0 20 -7 21 -57z m-1221 -548 c0 -12 -406 -815 -412 -815 -8 0 -408 796 -408 811 0 5 173 9 410 9 226 0 410 -2 410 -5z m840 0 c0 -10 -405 -815 -410 -815 -5 0 -410 805 -410 815 0 3 185 5 410 5 226 0 410 -2 410 -5z m840 -5 c0 -16 -399 -810 -408 -810 -6 0 -412 802 -412 815 0 3 185 5 410 5 268 0 410 -3 410 -10z m5220 -696 c0 -4 -35 -79 -79 -168 -268 -548 -332 -676 -339 -676 -4 0 -16 20 -26 43 -11 23 -102 210 -203 415 -101 205 -183 377 -183 382 0 6 155 10 415 10 228 0 415 -3 415 -6z m-6480 -139 c0 -10 -411 -827 -414 -824 -2 2 -97 190 -210 417 l-206 412 415 0 c228 0 415 -2 415 -5z m2211 -517 l-2 -128 155 0 155 0 3 128 3 127 265 0 265 0 3 -123 3 -123 152 3 152 3 3 123 3 122 264 0 265 0 0 -130 0 -130 155 0 155 0 0 130 0 130 265 0 265 0 0 -270 0 -270 -265 0 -265 0 0 130 0 130 -155 0 -155 0 0 -130 0 -130 -265 0 -265 0 0 135 0 135 -155 0 -154 0 -3 -132 -3 -133 -265 0 -265 0 -3 128 -3 127 -148 0 c-131 0 -150 -2 -155 -17 -4 -10 -6 -67 -5 -128 l2 -110 -267 -3 -266 -2 0 263 c0 145 3 267 7 270 4 4 123 6 266 5 l259 -3 -1 -127z m-1986 -728 c-113 -225 -209 -410 -215 -410 -5 0 -102 185 -214 410 l-205 410 419 0 420 0 -205 -410z m2586 29 c17 -46 34 -95 39 -109 4 -14 11 -33 15 -42 6 -15 1 -18 -34 -18 l-41 0 0 -575 0 -575 1830 0 1830 0 0 325 c0 282 2 325 15 325 13 0 15 -44 15 -340 l0 -340 -1857 2 -1858 3 -3 588 -2 587 -40 0 c-22 0 -40 2 -40 4 0 12 93 256 96 253 2 -2 18 -41 35 -88z m1551 -290 c118 -25 230 -110 282 -214 80 -161 48 -344 -83 -468 -68 -64 -130 -95 -213 -107 -228 -32 -422 109 -461 335 -28 165 64 340 219 416 97 48 163 58 256 38z m999 -8 c164 -52 273 -189 286 -363 11 -132 -61 -279 -171 -352 -66 -44 -88 -52 -169 -66 -170 -30 -349 66 -425 228 -24 51 -27 69 -27 167 0 100 3 115 28 166 54 111 136 182 255 220 75 24 146 24 223 0z"/>
 <path d="M1046 4184 c-26 -25 -30 -63 -13 -100 31 -64 107 -35 107 41 0 62 -56 98 -94 59z"/>
 <path d="M2230 4091 c0 -33 64 -53 88 -29 26 26 13 38 -38 38 -27 0 -50 -4 -50 -9z"/>
 <path d="M3380 2130 l0 -230 224 0 c195 0 225 2 230 16 8 20 8 408 0 428 -5 14 -35 16 -230 16 l-224 0 0 -230z"/>
 <path d="M4220 2130 l0 -230 230 0 230 0 0 230 0 230 -230 0 -230 0 0 -230z"/>
 <path d="M5070 2130 l0 -230 225 0 225 0 0 230 0 230 -225 0 -225 0 0 -230z"/>
 <path d="M5910 2130 l0 -230 225 0 225 0 0 230 0 230 -225 0 -225 0 0 -230z"/>
 <path d="M5860 1224 c-112 -30 -201 -109 -241 -213 -68 -178 12 -368 190 -449 79 -36 193 -36 274 1 300 137 273 558 -42 657 -74 23 -106 24 -181 4z m20 -189 c30 -30 59 -55 65 -55 6 0 35 25 65 55 33 34 63 55 76 55 25 0 64 -43 64 -69 0 -9 -25 -41 -55 -71 -30 -30 -55 -59 -55 -65 0 -6 25 -35 55 -65 30 -30 55 -63 55 -73 0 -23 -44 -67 -67 -67 -10 0 -43 25 -73 55 -30 30 -59 55 -65 55 -6 0 -35 -25 -65 -55 -30 -30 -62 -55 -71 -55 -26 0 -69 39 -69 64 0 13 21 43 55 76 30 30 55 59 55 66 0 6 -25 35 -55 63 -31 29 -55 61 -55 72 0 25 43 69 67 69 10 0 43 -25 73 -55z"/>
 <path d="M6833 1230 c-283 -59 -371 -433 -146 -619 95 -79 252 -97 365 -43 77 36 130 88 171 167 28 53 32 70 32 145 0 76 -3 92 -32 151 -74 149 -235 232 -390 199z m164 -292 c147 -147 166 -173 145 -204 -7 -12 -46 -34 -58 -34 -4 0 -63 55 -130 122 l-123 121 -45 -41 c-25 -23 -53 -42 -61 -42 -19 0 -65 44 -65 61 0 17 153 169 170 169 7 0 82 -68 167 -152z"/>
 </g>
<g id="layer117" fill="#b4c5dc" stroke="none">
 <path d="M0 2410 l0 -2410 4780 0 4780 0 0 2410 0 2410 -4780 0 -4780 0 0 -2410z m7782 1943 l3 -68 73 -3 72 -3 0 71 c0 63 2 70 20 70 19 0 20 -7 20 -145 0 -137 -1 -145 -20 -145 -16 0 -19 8 -22 58 l-3 57 -70 0 -70 0 -3 -57 c-3 -50 -6 -58 -22 -58 -19 0 -20 8 -20 145 0 137 1 145 20 145 17 0 19 -8 22 -67z m393 44 c35 -29 45 -99 21 -145 -34 -65 -138 -64 -170 2 -26 55 -19 101 22 149 23 26 94 23 127 -6z m212 1 c43 -41 23 -81 -53 -107 -58 -19 -66 -44 -16 -49 22 -2 34 2 38 12 6 17 44 23 44 7 0 -5 -9 -19 -19 -32 -15 -19 -29 -24 -64 -24 -54 0 -77 18 -77 60 0 27 6 35 34 49 19 9 41 16 49 16 9 0 23 7 32 16 12 12 13 19 4 30 -17 20 -56 17 -79 -6 -20 -20 -50 -27 -50 -11 0 4 9 20 21 35 27 35 101 37 136 4z m143 6 c0 -9 -9 -18 -20 -21 -18 -5 -20 -14 -20 -74 0 -62 2 -69 20 -69 11 0 20 -5 20 -11 0 -6 -9 -13 -20 -16 -15 -4 -20 -14 -20 -39 0 -37 0 -37 -24 -28 -10 4 -16 18 -16 35 0 19 -5 29 -15 29 -8 0 -15 7 -15 15 0 8 7 15 15 15 12 0 15 15 15 78 0 47 5 83 12 90 18 18 68 15 68 -4z m-7611 -203 c34 -32 42 -71 14 -71 -10 0 -25 13 -34 29 -32 56 -114 48 -143 -14 -55 -115 53 -232 134 -145 18 19 34 28 44 24 21 -8 20 -16 -4 -47 -44 -56 -140 -54 -195 3 -28 29 -30 37 -30 106 0 74 1 76 37 110 33 30 44 34 92 34 46 0 59 -4 85 -29z m235 -2 c28 -33 33 -75 16 -126 -21 -60 -111 -76 -158 -29 -22 21 -26 35 -26 80 0 75 27 106 95 106 40 0 51 -4 73 -31z m98 -44 c5 -80 18 -105 52 -105 37 0 46 19 46 102 0 71 2 78 20 78 18 0 20 -7 20 -84 0 -65 -4 -88 -17 -104 -24 -27 -63 -34 -95 -18 -19 10 -28 11 -31 3 -2 -6 -11 -8 -20 -4 -14 5 -17 22 -17 107 0 91 2 100 19 100 16 0 19 -10 23 -75z m341 43 c29 -39 12 -73 -45 -89 -49 -14 -73 -32 -64 -48 10 -16 52 -13 66 4 15 19 50 20 50 2 0 -27 -39 -50 -85 -50 -54 0 -75 16 -75 58 0 27 6 35 34 49 19 9 39 16 46 16 6 0 20 5 31 10 15 9 17 15 9 30 -14 26 -55 26 -77 0 -17 -20 -53 -28 -53 -11 0 4 9 20 21 35 19 24 27 27 72 24 41 -2 54 -8 70 -30z m175 20 c9 -9 12 -9 12 0 0 7 9 12 20 12 19 0 20 -7 20 -105 0 -98 -1 -105 -20 -105 -18 0 -20 7 -20 59 0 76 -13 109 -45 117 -40 10 -54 -18 -55 -104 0 -65 -2 -73 -17 -70 -16 3 -18 15 -18 89 0 58 5 92 14 103 16 19 91 22 109 4z m134 -63 c5 -76 18 -105 47 -105 32 0 41 22 41 102 0 71 2 78 20 78 18 0 20 -7 20 -71 0 -81 11 -109 44 -109 31 0 36 16 36 106 0 67 2 74 20 74 18 0 20 -7 20 -86 0 -47 -4 -94 -10 -104 -14 -27 -65 -35 -95 -16 -22 14 -26 14 -53 -1 -26 -15 -31 -15 -60 -1 -20 11 -32 12 -35 5 -2 -6 -11 -8 -20 -4 -14 5 -17 22 -17 107 0 91 2 100 19 100 16 0 19 -10 23 -75z m445 60 c11 -8 23 -24 26 -35 7 -27 -33 -28 -51 0 -15 24 -49 26 -74 3 -35 -31 -22 -42 55 -45 l72 -3 -3 -35 c-4 -50 -40 -83 -91 -83 -50 0 -77 22 -91 72 -12 46 3 105 33 126 27 19 96 19 124 0z m114 -42 c1 -86 10 -107 44 -113 34 -6 48 -39 18 -41 -10 -1 -22 0 -28 1 -5 1 -23 3 -40 3 l-30 2 -3 103 c-3 97 -2 102 18 102 18 0 20 -7 21 -57z m5239 -389 c0 -3 -38 -83 -84 -177 -275 -563 -326 -667 -330 -667 -3 0 -39 69 -79 153 -41 83 -134 273 -206 420 -72 148 -131 270 -131 273 0 2 187 4 415 4 228 0 415 -3 415 -6z m849 -6 c0 -7 -94 -199 -208 -427 l-208 -415 -208 420 c-115 230 -210 422 -212 427 -3 4 185 7 416 7 331 0 421 -3 420 -12z m851 3 c0 -5 -93 -197 -206 -427 l-207 -419 -208 420 c-114 231 -208 423 -208 428 -1 4 186 7 414 7 229 0 415 -4 415 -9z m-8160 -156 c0 -12 -406 -815 -412 -815 -8 0 -408 796 -408 811 0 5 173 9 410 9 226 0 410 -2 410 -5z m840 0 c0 -10 -405 -815 -410 -815 -5 0 -410 805 -410 815 0 3 185 5 410 5 226 0 410 -2 410 -5z m840 -5 c0 -16 -399 -810 -408 -810 -6 0 -412 802 -412 815 0 3 185 5 410 5 268 0 410 -3 410 -10z m6060 -695 c0 -8 -420 -845 -424 -845 -2 0 -92 177 -200 393 -108 216 -202 402 -209 412 -12 16 -21 3 -87 -131 -40 -82 -131 -267 -201 -411 -71 -144 -129 -265 -129 -268 0 -3 187 -5 415 -5 228 0 415 -2 415 -4 0 -5 -334 -663 -384 -757 -18 -34 -36 -61 -41 -61 -10 0 -425 814 -420 823 4 6 -5 27 -254 532 -83 170 -151 313 -151 318 0 5 324 9 835 9 459 0 835 -2 835 -5z m-7320 -140 c0 -10 -411 -827 -414 -824 -2 2 -97 190 -210 417 l-206 412 415 0 c228 0 415 -2 415 -5z m2211 -517 l-2 -128 155 0 155 0 3 128 3 127 265 0 265 0 3 -123 3 -123 152 3 152 3 3 123 3 122 264 0 265 0 0 -130 0 -130 155 0 155 0 0 130 0 130 265 0 265 0 0 -270 0 -270 -265 0 -265 0 0 130 0 130 -155 0 -155 0 0 -130 0 -130 -265 0 -265 0 0 135 0 135 -155 0 -154 0 -3 -132 -3 -133 -265 0 -265 0 -3 128 -3 127 -148 0 c-131 0 -150 -2 -155 -17 -4 -10 -6 -67 -5 -128 l2 -110 -267 -3 -266 -2 0 263 c0 145 3 267 7 270 4 4 123 6 266 5 l259 -3 -1 -127z m-1986 -728 c-113 -225 -209 -410 -215 -410 -5 0 -102 185 -214 410 l-205 410 419 0 420 0 -205 -410z m2586 29 c17 -46 34 -95 39 -109 4 -14 11 -33 15 -42 6 -15 1 -18 -34 -18 l-41 0 0 -575 0 -575 1830 0 1830 0 0 325 c0 282 2 325 15 325 13 0 15 -44 15 -340 l0 -340 -1857 2 -1858 3 -3 588 -2 587 -40 0 c-22 0 -40 2 -40 4 0 12 93 256 96 253 2 -2 18 -41 35 -88z m1551 -290 c118 -25 230 -110 282 -214 80 -161 48 -344 -83 -468 -68 -64 -130 -95 -213 -107 -228 -32 -422 109 -461 335 -28 165 64 340 219 416 97 48 163 58 256 38z m999 -8 c164 -52 273 -189 286 -363 11 -132 -61 -279 -171 -352 -66 -44 -88 -52 -169 -66 -170 -30 -349 66 -425 228 -24 51 -27 69 -27 167 0 100 3 115 28 166 54 111 136 182 255 220 75 24 146 24 223 0z"/>
 <path d="M8074 4369 c-22 -24 -25 -89 -5 -113 20 -24 67 -20 85 6 49 69 -25 168 -80 107z"/>
 <path d="M1046 4184 c-26 -25 -30 -63 -13 -100 31 -64 107 -35 107 41 0 62 -56 98 -94 59z"/>
 <path d="M2230 4091 c0 -33 64 -53 88 -29 26 26 13 38 -38 38 -27 0 -50 -4 -50 -9z"/>
 <path d="M3380 2130 l0 -230 224 0 c195 0 225 2 230 16 8 20 8 408 0 428 -5 14 -35 16 -230 16 l-224 0 0 -230z"/>
 <path d="M4220 2130 l0 -230 230 0 230 0 0 230 0 230 -230 0 -230 0 0 -230z"/>
 <path d="M5070 2130 l0 -230 225 0 225 0 0 230 0 230 -225 0 -225 0 0 -230z"/>
 <path d="M5910 2130 l0 -230 225 0 225 0 0 230 0 230 -225 0 -225 0 0 -230z"/>
 <path d="M5860 1224 c-112 -30 -201 -109 -241 -213 -68 -178 12 -368 190 -449 79 -36 193 -36 274 1 300 137 273 558 -42 657 -74 23 -106 24 -181 4z m20 -189 c30 -30 59 -55 65 -55 6 0 35 25 65 55 33 34 63 55 76 55 25 0 64 -43 64 -69 0 -9 -25 -41 -55 -71 -30 -30 -55 -59 -55 -65 0 -6 25 -35 55 -65 30 -30 55 -63 55 -73 0 -23 -44 -67 -67 -67 -10 0 -43 25 -73 55 -30 30 -59 55 -65 55 -6 0 -35 -25 -65 -55 -30 -30 -62 -55 -71 -55 -26 0 -69 39 -69 64 0 13 21 43 55 76 30 30 55 59 55 66 0 6 -25 35 -55 63 -31 29 -55 61 -55 72 0 25 43 69 67 69 10 0 43 -25 73 -55z"/>
 <path d="M6833 1230 c-283 -59 -371 -433 -146 -619 95 -79 252 -97 365 -43 77 36 130 88 171 167 28 53 32 70 32 145 0 76 -3 92 -32 151 -74 149 -235 232 -390 199z m164 -292 c147 -147 166 -173 145 -204 -7 -12 -46 -34 -58 -34 -4 0 -63 55 -130 122 l-123 121 -45 -41 c-25 -23 -53 -42 -61 -42 -19 0 -65 44 -65 61 0 17 153 169 170 169 7 0 82 -68 167 -152z"/>
 </g>
<g id="layer118" fill="#b7c7e4" stroke="none">
 <path d="M0 2410 l0 -2410 4780 0 4780 0 0 2410 0 2410 -4780 0 -4780 0 0 -2410z m7782 1943 l3 -68 73 -3 72 -3 0 71 c0 63 2 70 20 70 19 0 20 -7 20 -145 0 -137 -1 -145 -20 -145 -16 0 -19 8 -22 58 l-3 57 -70 0 -70 0 -3 -57 c-3 -50 -6 -58 -22 -58 -19 0 -20 8 -20 145 0 137 1 145 20 145 17 0 19 -8 22 -67z m393 44 c35 -29 45 -99 21 -145 -34 -65 -138 -64 -170 2 -26 55 -19 101 22 149 23 26 94 23 127 -6z m212 1 c43 -41 23 -81 -53 -107 -58 -19 -66 -44 -16 -49 22 -2 34 2 38 12 6 17 44 23 44 7 0 -5 -9 -19 -19 -32 -15 -19 -29 -24 -64 -24 -54 0 -77 18 -77 60 0 27 6 35 34 49 19 9 41 16 49 16 9 0 23 7 32 16 12 12 13 19 4 30 -17 20 -56 17 -79 -6 -20 -20 -50 -27 -50 -11 0 4 9 20 21 35 27 35 101 37 136 4z m143 6 c0 -9 -9 -18 -20 -21 -18 -5 -20 -14 -20 -74 0 -62 2 -69 20 -69 11 0 20 -5 20 -11 0 -6 -9 -13 -20 -16 -15 -4 -20 -14 -20 -39 0 -37 0 -37 -24 -28 -10 4 -16 18 -16 35 0 19 -5 29 -15 29 -8 0 -15 7 -15 15 0 8 7 15 15 15 12 0 15 15 15 78 0 47 5 83 12 90 18 18 68 15 68 -4z m-7625 -190 c23 -15 61 -72 53 -79 -2 -1 -12 -5 -23 -8 -15 -5 -25 2 -40 26 -21 33 -55 44 -100 33 -51 -13 -66 -140 -21 -184 38 -39 126 -29 126 14 0 8 10 14 25 14 54 0 8 -73 -57 -91 -47 -12 -81 -6 -117 22 -38 30 -50 58 -51 117 0 57 17 109 44 131 39 33 115 35 161 5z m220 14 c15 -7 33 -24 41 -39 17 -34 18 -108 1 -129 -72 -91 -187 -49 -187 69 0 48 37 98 78 104 15 2 30 5 34 6 4 0 19 -4 33 -11z m429 2 c14 -5 33 -21 42 -35 25 -39 8 -67 -58 -92 -29 -11 -53 -26 -53 -34 0 -20 49 -23 65 -5 15 19 50 21 50 3 0 -27 -26 -46 -72 -52 -42 -6 -50 -4 -72 18 -44 45 -28 79 50 106 36 13 49 22 49 37 0 28 -49 31 -72 5 -21 -25 -58 -29 -49 -5 3 9 6 20 6 24 0 12 50 39 72 40 9 0 28 -4 42 -10z m782 -9 c40 -24 52 -61 20 -61 -11 0 -27 9 -34 20 -15 24 -40 26 -70 4 -42 -29 -28 -43 51 -46 71 -3 72 -4 75 -31 3 -21 -5 -36 -32 -63 -33 -33 -40 -36 -74 -30 -51 9 -92 57 -92 109 0 49 13 73 53 97 40 25 64 25 103 1z m-1086 -40 c0 -78 10 -111 38 -124 21 -10 27 -8 43 12 15 18 19 40 19 92 0 62 2 69 20 69 18 0 20 -7 20 -84 0 -69 -4 -88 -21 -110 -23 -29 -51 -33 -91 -12 -18 10 -28 11 -31 3 -2 -6 -11 -8 -20 -4 -14 5 -17 22 -17 107 0 93 1 100 20 100 17 0 20 -7 20 -49z m518 37 c9 -9 12 -9 12 0 0 7 9 12 20 12 19 0 20 -7 20 -105 l0 -105 -25 0 c-25 0 -25 1 -25 80 0 69 -3 81 -20 90 -14 8 -26 8 -40 0 -17 -9 -20 -21 -20 -91 0 -78 -1 -80 -22 -77 -21 3 -23 9 -26 82 -4 102 10 126 71 126 24 0 48 -5 55 -12z m132 -37 c0 -77 10 -112 37 -124 36 -16 46 2 51 93 4 70 7 80 23 80 17 0 19 -8 19 -74 0 -79 13 -106 50 -106 24 0 30 19 30 106 0 67 2 74 20 74 18 0 20 -7 20 -86 0 -47 -4 -94 -10 -104 -14 -27 -65 -35 -96 -15 -22 14 -27 14 -46 0 -29 -19 -62 -19 -78 0 -10 12 -15 13 -21 4 -4 -7 -14 -9 -23 -6 -13 5 -16 24 -16 107 0 93 1 100 20 100 17 0 20 -7 20 -49z m572 -33 l3 -83 30 -5 c22 -4 30 -11 30 -25 0 -15 -6 -19 -25 -18 -14 2 -38 4 -55 5 l-30 3 -3 103 -3 102 25 0 c25 0 25 -2 28 -82z m5228 -364 c0 -3 -38 -83 -84 -177 -275 -563 -326 -667 -330 -667 -3 0 -39 69 -79 153 -41 83 -134 273 -206 420 -72 148 -131 270 -131 273 0 2 187 4 415 4 228 0 415 -3 415 -6z m849 -6 c0 -7 -94 -199 -208 -427 l-208 -415 -208 420 c-115 230 -210 422 -212 427 -3 4 185 7 416 7 331 0 421 -3 420 -12z m851 3 c0 -5 -93 -197 -206 -427 l-207 -419 -208 420 c-114 231 -208 423 -208 428 -1 4 186 7 414 7 229 0 415 -4 415 -9z m-6470 -149 c0 -10 -411 -822 -419 -826 -5 -3 -49 74 -98 171 -49 98 -118 234 -153 303 -36 69 -65 127 -65 130 0 3 -7 16 -15 30 -8 14 -15 27 -15 30 -2 9 -65 136 -70 142 -3 3 -151 -283 -329 -636 -420 -833 -505 -999 -515 -1009 -5 -5 -386 734 -419 815 -2 4 180 8 406 8 225 0 411 2 414 6 3 3 -4 24 -15 47 -12 23 -21 44 -22 47 -2 14 -359 720 -364 720 -3 0 -97 -182 -209 -405 -112 -223 -207 -403 -212 -400 -10 6 -410 802 -410 816 0 5 176 10 403 11 516 4 2107 4 2107 0z m6050 -707 c0 -8 -420 -845 -424 -845 -2 0 -92 177 -200 393 -108 216 -202 402 -209 412 -12 16 -21 3 -87 -131 -40 -82 -131 -267 -201 -411 -71 -144 -129 -265 -129 -268 0 -3 187 -5 415 -5 228 0 415 -2 415 -4 0 -5 -334 -663 -384 -757 -18 -34 -36 -61 -41 -61 -10 0 -425 814 -420 823 4 6 -5 27 -254 532 -83 170 -151 313 -151 318 0 5 324 9 835 9 459 0 835 -2 835 -5z m-5109 -640 c-1 -61 1 -118 5 -128 5 -15 24 -17 155 -17 l148 0 3 128 3 127 265 0 265 0 3 -118 3 -118 152 3 152 3 3 118 3 117 264 0 265 0 0 -130 0 -130 155 0 155 0 0 130 0 130 265 0 265 0 0 -270 0 -270 -265 0 -265 0 0 130 0 130 -139 0 c-77 0 -146 -3 -155 -6 -13 -5 -16 -26 -16 -130 l0 -124 -265 0 -265 0 0 135 0 135 -155 0 -155 0 0 -135 0 -135 -267 2 -268 3 -3 128 -3 127 -148 0 c-131 0 -150 -2 -155 -17 -4 -10 -6 -67 -5 -128 l2 -110 -267 -3 -266 -2 0 270 0 270 266 -2 267 -3 -2 -110z m-1986 -745 c-113 -225 -209 -410 -215 -410 -5 0 -102 185 -214 410 l-205 410 419 0 420 0 -205 -410z m2600 -9 c25 -67 45 -124 45 -127 0 -2 -18 -4 -40 -4 l-40 0 0 -575 0 -575 1830 0 1830 0 0 325 c0 282 2 325 15 325 13 0 15 -44 15 -340 l0 -340 -1857 2 -1858 3 -3 588 -2 587 -40 0 c-22 0 -40 2 -40 4 0 4 71 204 85 239 4 10 9 16 11 14 2 -2 24 -59 49 -126z m1537 -252 c118 -25 230 -110 282 -214 80 -161 48 -344 -83 -468 -68 -64 -130 -95 -213 -107 -228 -32 -422 109 -461 335 -28 165 64 340 219 416 97 48 163 58 256 38z m999 -8 c164 -52 273 -189 286 -363 11 -132 -61 -279 -171 -352 -66 -44 -88 -52 -169 -66 -170 -30 -349 66 -425 228 -24 51 -27 69 -27 167 0 100 3 115 28 166 54 111 136 182 255 220 75 24 146 24 223 0z"/>
 <path d="M8074 4369 c-22 -24 -25 -89 -5 -113 20 -24 67 -20 85 6 49 69 -25 168 -80 107z"/>
 <path d="M1046 4184 c-18 -18 -21 -85 -6 -115 14 -26 54 -24 80 4 17 17 20 29 15 57 -12 63 -55 89 -89 54z"/>
 <path d="M2230 4091 c0 -33 64 -53 88 -29 26 26 13 38 -38 38 -27 0 -50 -4 -50 -9z"/>
 <path d="M3380 2130 l0 -230 224 0 c195 0 225 2 230 16 8 20 8 408 0 428 -5 14 -35 16 -230 16 l-224 0 0 -230z"/>
 <path d="M4220 2130 l0 -230 230 0 230 0 0 230 0 230 -230 0 -230 0 0 -230z"/>
 <path d="M5070 2130 l0 -230 225 0 225 0 0 230 0 230 -225 0 -225 0 0 -230z"/>
 <path d="M5910 2130 l0 -230 225 0 225 0 0 230 0 230 -225 0 -225 0 0 -230z"/>
 <path d="M5860 1224 c-112 -30 -201 -109 -241 -213 -68 -178 12 -368 190 -449 79 -36 193 -36 274 1 300 137 273 558 -42 657 -74 23 -106 24 -181 4z m20 -189 c30 -30 59 -55 65 -55 6 0 35 25 65 55 33 34 63 55 76 55 25 0 64 -43 64 -69 0 -9 -25 -41 -55 -71 -30 -30 -55 -59 -55 -65 0 -6 25 -35 55 -65 30 -30 55 -63 55 -73 0 -23 -44 -67 -67 -67 -10 0 -43 25 -73 55 -30 30 -59 55 -65 55 -6 0 -35 -25 -65 -55 -30 -30 -62 -55 -71 -55 -26 0 -69 39 -69 64 0 13 21 43 55 76 30 30 55 59 55 66 0 6 -25 35 -55 63 -31 29 -55 61 -55 72 0 25 43 69 67 69 10 0 43 -25 73 -55z"/>
 <path d="M6833 1230 c-283 -59 -371 -433 -146 -619 95 -79 252 -97 365 -43 77 36 130 88 171 167 28 53 32 70 32 145 0 76 -3 92 -32 151 -74 149 -235 232 -390 199z m164 -292 c147 -147 166 -173 145 -204 -7 -12 -46 -34 -58 -34 -4 0 -63 55 -130 122 l-123 121 -45 -41 c-25 -23 -53 -42 -61 -42 -19 0 -65 44 -65 61 0 17 153 169 170 169 7 0 82 -68 167 -152z"/>
 </g>
<g id="layer119" fill="#fdf2d0" stroke="none">
 <path d="M0 2410 l0 -2410 4780 0 4780 0 0 2410 0 2410 -4780 0 -4780 0 0 -2410z m7782 1943 l3 -68 73 -3 72 -3 0 71 c0 63 2 70 20 70 19 0 20 -7 20 -145 0 -137 -1 -145 -20 -145 -16 0 -19 8 -22 58 l-3 57 -70 0 -70 0 -3 -57 c-3 -50 -6 -58 -22 -58 -19 0 -20 8 -20 145 0 137 1 145 20 145 17 0 19 -8 22 -67z m393 44 c35 -29 45 -99 21 -145 -34 -65 -138 -64 -170 2 -26 55 -19 101 22 149 23 26 94 23 127 -6z m212 1 c43 -41 23 -81 -53 -107 -58 -19 -66 -44 -16 -49 22 -2 34 2 38 12 6 17 44 23 44 7 0 -5 -9 -19 -19 -32 -15 -19 -29 -24 -64 -24 -54 0 -77 18 -77 60 0 27 6 35 34 49 19 9 41 16 49 16 9 0 23 7 32 16 12 12 13 19 4 30 -17 20 -56 17 -79 -6 -20 -20 -50 -27 -50 -11 0 4 9 20 21 35 27 35 101 37 136 4z m143 6 c0 -9 -9 -18 -20 -21 -18 -5 -20 -14 -20 -74 0 -62 2 -69 20 -69 11 0 20 -5 20 -11 0 -6 -9 -13 -20 -16 -15 -4 -20 -14 -20 -39 0 -37 0 -37 -24 -28 -10 4 -16 18 -16 35 0 19 -5 29 -15 29 -8 0 -15 7 -15 15 0 8 7 15 15 15 12 0 15 15 15 78 0 47 5 83 12 90 18 18 68 15 68 -4z m-7640 -183 c19 -10 43 -33 54 -50 20 -35 20 -36 -9 -44 -15 -5 -25 2 -40 26 -21 33 -55 44 -99 33 -49 -12 -65 -134 -23 -180 35 -39 101 -39 119 -1 12 26 58 36 58 12 0 -37 -66 -87 -115 -87 -81 0 -135 60 -135 150 0 70 24 120 70 142 45 23 77 23 120 -1z m235 7 c35 -16 55 -57 55 -110 -1 -112 -139 -149 -189 -51 -29 56 -2 148 47 159 15 3 32 7 37 9 18 6 24 5 50 -7z m444 -3 c32 -16 47 -56 32 -84 -6 -10 -34 -27 -63 -38 -29 -11 -53 -26 -53 -34 0 -20 49 -23 65 -5 15 19 50 21 50 3 0 -29 -27 -49 -72 -54 -40 -5 -50 -2 -72 20 -44 45 -28 79 50 106 36 13 49 22 49 37 0 28 -49 31 -72 5 -21 -25 -58 -29 -49 -5 3 9 6 20 6 24 0 13 51 39 78 40 13 0 36 -7 51 -15z m189 -1 c12 -8 22 -10 22 -5 0 6 9 11 20 11 19 0 20 -7 20 -111 0 -109 0 -110 -22 -107 -21 3 -23 9 -26 79 -2 60 -7 80 -22 94 -14 13 -23 14 -39 6 -17 -10 -21 -23 -23 -94 -3 -74 -5 -82 -23 -82 -18 0 -20 8 -23 82 -3 89 6 119 41 133 33 13 50 12 75 -6z m578 -3 c40 -24 52 -61 20 -61 -11 0 -27 9 -34 20 -15 24 -40 26 -70 4 -42 -29 -28 -43 51 -46 71 -3 72 -4 75 -31 5 -38 -54 -97 -94 -97 -61 1 -104 50 -104 117 0 45 14 70 53 93 40 25 64 25 103 1z m-1086 -45 c0 -67 16 -113 42 -122 35 -11 50 18 56 100 4 66 7 76 23 76 17 0 19 -9 19 -84 0 -69 -4 -88 -21 -110 -21 -27 -69 -35 -99 -16 -9 6 -17 5 -21 -2 -4 -6 -14 -8 -23 -5 -13 5 -16 24 -16 112 0 98 1 105 20 105 18 0 20 -7 20 -54z m650 0 c0 -67 16 -113 42 -122 32 -10 41 9 46 96 4 70 7 80 23 80 17 0 19 -8 19 -74 0 -79 13 -106 50 -106 24 0 30 19 30 106 0 67 2 74 20 74 19 0 20 -7 20 -94 0 -100 -4 -109 -53 -121 -18 -5 -35 -2 -52 9 -22 14 -26 14 -54 -2 -25 -14 -35 -15 -60 -5 -21 8 -31 8 -34 0 -2 -6 -11 -8 -20 -4 -14 5 -17 22 -17 112 0 98 1 105 20 105 18 0 20 -7 20 -54z m570 -18 c0 -83 5 -95 40 -99 33 -5 35 -43 2 -47 -13 -2 -29 1 -37 8 -10 8 -14 8 -17 -1 -2 -7 -11 -10 -21 -6 -14 5 -17 22 -17 112 l0 105 25 0 c24 0 25 -2 25 -72z m5230 -374 c0 -3 -38 -83 -84 -177 -275 -563 -326 -667 -330 -667 -3 0 -39 69 -79 153 -41 83 -134 273 -206 420 -72 148 -131 270 -131 273 0 2 187 4 415 4 228 0 415 -3 415 -6z m849 -6 c0 -7 -94 -199 -208 -427 l-208 -415 -208 420 c-115 230 -210 422 -212 427 -3 4 185 7 416 7 331 0 421 -3 420 -12z m851 3 c0 -5 -93 -197 -206 -427 l-207 -419 -208 420 c-114 231 -208 423 -208 428 -1 4 186 7 414 7 229 0 415 -4 415 -9z m-6470 -149 c0 -1 -95 -191 -210 -422 l-211 -420 -414 0 c-228 0 -415 -4 -415 -9 0 -4 92 -193 206 -418 l205 -411 -205 -411 c-114 -226 -210 -411 -216 -411 -5 0 -106 192 -224 428 -482 962 -1036 2072 -1036 2075 0 1 567 2 1260 2 693 0 1260 -1 1260 -3z m6050 -707 c0 -8 -420 -845 -424 -845 -2 0 -92 177 -200 393 -108 216 -202 402 -209 412 -12 16 -21 3 -87 -131 -40 -82 -131 -267 -201 -411 -71 -144 -129 -265 -129 -268 0 -3 187 -5 415 -5 228 0 415 -2 415 -4 0 -5 -334 -663 -384 -757 -18 -34 -36 -61 -41 -61 -10 0 -425 814 -420 823 4 6 -5 27 -254 532 -83 170 -151 313 -151 318 0 5 324 9 835 9 459 0 835 -2 835 -5z m-5109 -640 c-1 -61 1 -118 5 -128 5 -15 24 -17 155 -17 l148 0 3 128 3 127 265 0 265 0 3 -118 3 -118 152 3 152 3 3 118 3 117 264 0 265 0 0 -130 0 -130 155 0 155 0 0 130 0 130 265 0 265 0 0 -270 0 -270 -265 0 -265 0 0 130 0 130 -139 0 c-77 0 -146 -3 -155 -6 -13 -5 -16 -26 -16 -130 l0 -124 -265 0 -265 0 0 135 0 135 -155 0 -155 0 0 -135 0 -135 -267 2 -268 3 -3 128 -3 127 -148 0 c-131 0 -150 -2 -155 -17 -4 -10 -6 -67 -5 -128 l2 -110 -267 -3 -266 -2 0 270 0 270 266 -2 267 -3 -2 -110z m614 -754 c25 -67 45 -124 45 -127 0 -2 -18 -4 -40 -4 l-40 0 0 -575 0 -575 1830 0 1830 0 0 325 c0 282 2 325 15 325 13 0 15 -44 15 -340 l0 -340 -1857 2 -1858 3 -3 588 -2 587 -40 0 c-22 0 -40 2 -40 4 0 4 71 204 85 239 4 10 9 16 11 14 2 -2 24 -59 49 -126z m1537 -252 c118 -25 230 -110 282 -214 80 -161 48 -344 -83 -468 -68 -64 -130 -95 -213 -107 -228 -32 -422 109 -461 335 -28 165 64 340 219 416 97 48 163 58 256 38z m999 -8 c164 -52 273 -189 286 -363 11 -132 -61 -279 -171 -352 -66 -44 -88 -52 -169 -66 -170 -30 -349 66 -425 228 -24 51 -27 69 -27 167 0 100 3 115 28 166 54 111 136 182 255 220 75 24 146 24 223 0z"/>
 <path d="M8074 4369 c-22 -24 -25 -89 -5 -113 20 -24 67 -20 85 6 49 69 -25 168 -80 107z"/>
 <path d="M1060 4193 c-8 -3 -18 -11 -22 -17 -11 -16 -10 -84 2 -107 21 -39 89 -14 91 34 4 73 -24 108 -71 90z"/>
 <path d="M2230 4091 c0 -15 30 -41 46 -41 24 0 54 19 54 35 0 11 -13 15 -50 15 -27 0 -50 -4 -50 -9z"/>
 <path d="M3380 2130 l0 -230 224 0 c195 0 225 2 230 16 8 20 8 408 0 428 -5 14 -35 16 -230 16 l-224 0 0 -230z"/>
 <path d="M4220 2130 l0 -230 230 0 230 0 0 230 0 230 -230 0 -230 0 0 -230z"/>
 <path d="M5070 2130 l0 -230 225 0 225 0 0 230 0 230 -225 0 -225 0 0 -230z"/>
 <path d="M5910 2130 l0 -230 225 0 225 0 0 230 0 230 -225 0 -225 0 0 -230z"/>
 <path d="M5860 1224 c-112 -30 -201 -109 -241 -213 -68 -178 12 -368 190 -449 79 -36 193 -36 274 1 300 137 273 558 -42 657 -74 23 -106 24 -181 4z m20 -189 c30 -30 59 -55 65 -55 6 0 35 25 65 55 33 34 63 55 76 55 25 0 64 -43 64 -69 0 -9 -25 -41 -55 -71 -30 -30 -55 -59 -55 -65 0 -6 25 -35 55 -65 30 -30 55 -63 55 -73 0 -23 -44 -67 -67 -67 -10 0 -43 25 -73 55 -30 30 -59 55 -65 55 -6 0 -35 -25 -65 -55 -30 -30 -62 -55 -71 -55 -26 0 -69 39 -69 64 0 13 21 43 55 76 30 30 55 59 55 66 0 6 -25 35 -55 63 -31 29 -55 61 -55 72 0 25 43 69 67 69 10 0 43 -25 73 -55z"/>
 <path d="M6833 1230 c-283 -59 -371 -433 -146 -619 95 -79 252 -97 365 -43 77 36 130 88 171 167 28 53 32 70 32 145 0 76 -3 92 -32 151 -74 149 -235 232 -390 199z m164 -292 c147 -147 166 -173 145 -204 -7 -12 -46 -34 -58 -34 -4 0 -63 55 -130 122 l-123 121 -45 -41 c-25 -23 -53 -42 -61 -42 -19 0 -65 44 -65 61 0 17 153 169 170 169 7 0 82 -68 167 -152z"/>
 </g>
<g id="layer120" fill="#ffffff" stroke="none">
 <path d="M0 2410 l0 -2410 4780 0 4780 0 0 2410 0 2410 -4780 0 -4780 0 0 -2410z m8189 1984 c20 -24 23 -35 19 -87 -4 -50 -9 -64 -32 -84 -40 -34 -99 -32 -137 6 -25 25 -29 37 -29 83 0 58 18 90 60 107 39 17 92 5 119 -25z m204 5 c13 -16 17 -32 13 -53 -8 -37 -6 -36 -68 -57 -60 -20 -69 -42 -20 -47 24 -2 32 1 32 12 0 10 9 16 25 16 18 0 25 -5 25 -19 0 -27 -42 -51 -89 -51 -31 0 -44 6 -60 26 -12 15 -21 33 -21 41 0 25 46 61 88 68 44 7 55 27 25 43 -23 12 -44 5 -63 -20 -18 -22 -50 -15 -50 12 0 17 24 43 50 53 31 13 94 -1 113 -24z m134 15 c3 -9 -3 -23 -16 -35 -17 -16 -21 -31 -21 -79 0 -53 2 -60 20 -60 14 0 20 -7 20 -21 0 -16 -4 -19 -20 -14 -17 6 -20 2 -20 -29 0 -20 -2 -36 -4 -36 -22 0 -36 17 -36 41 0 19 -5 29 -15 29 -8 0 -15 7 -15 15 0 8 7 15 15 15 12 0 15 16 15 85 0 69 3 86 18 94 25 15 52 13 59 -5z m-735 -61 l3 -68 60 0 60 0 3 68 c3 64 4 67 27 67 l25 0 0 -151 c0 -150 0 -150 -22 -147 -20 3 -24 10 -28 63 l-5 60 -60 0 -60 0 -5 -60 c-4 -53 -8 -60 -27 -63 -23 -3 -23 -3 -23 147 l0 151 25 0 c23 0 24 -3 27 -67z m-6902 -132 c19 -10 43 -33 54 -50 20 -35 20 -36 -9 -44 -15 -5 -25 2 -40 26 -21 33 -55 44 -99 33 -49 -12 -65 -134 -23 -180 35 -39 101 -39 119 -1 12 26 58 36 58 12 0 -37 -66 -87 -115 -87 -81 0 -135 60 -135 150 0 70 24 120 70 142 45 23 77 23 120 -1z m235 7 c35 -16 55 -57 55 -110 -1 -112 -139 -149 -189 -51 -29 56 -2 148 47 159 15 3 32 7 37 9 18 6 24 5 50 -7z m444 -3 c32 -16 47 -56 32 -84 -6 -10 -34 -27 -63 -38 -29 -11 -53 -26 -53 -34 0 -20 49 -23 65 -5 15 19 50 21 50 3 0 -29 -27 -49 -72 -54 -40 -5 -50 -2 -72 20 -44 45 -28 79 50 106 36 13 49 22 49 37 0 28 -49 31 -72 5 -21 -25 -58 -29 -49 -5 3 9 6 20 6 24 0 13 51 39 78 40 13 0 36 -7 51 -15z m189 -1 c12 -8 22 -10 22 -5 0 6 9 11 20 11 19 0 20 -7 20 -111 0 -109 0 -110 -22 -107 -21 3 -23 9 -26 79 -2 60 -7 80 -22 94 -14 13 -23 14 -39 6 -17 -10 -21 -23 -23 -94 -3 -74 -5 -82 -23 -82 -18 0 -20 8 -23 82 -3 89 6 119 41 133 33 13 50 12 75 -6z m578 -3 c40 -24 52 -61 20 -61 -11 0 -27 9 -34 20 -15 24 -40 26 -70 4 -42 -29 -28 -43 51 -46 71 -3 72 -4 75 -31 5 -38 -54 -97 -94 -97 -61 1 -104 50 -104 117 0 45 14 70 53 93 40 25 64 25 103 1z m-1086 -45 c0 -67 16 -113 42 -122 35 -11 50 18 56 100 4 66 7 76 23 76 17 0 19 -9 19 -84 0 -69 -4 -88 -21 -110 -21 -27 -69 -35 -99 -16 -9 6 -17 5 -21 -2 -4 -6 -14 -8 -23 -5 -13 5 -16 24 -16 112 0 98 1 105 20 105 18 0 20 -7 20 -54z m650 0 c0 -67 16 -113 42 -122 32 -10 41 9 46 96 4 70 7 80 23 80 17 0 19 -8 19 -74 0 -79 13 -106 50 -106 24 0 30 19 30 106 0 67 2 74 20 74 19 0 20 -7 20 -94 0 -100 -4 -109 -53 -121 -18 -5 -35 -2 -52 9 -22 14 -26 14 -54 -2 -25 -14 -35 -15 -60 -5 -21 8 -31 8 -34 0 -2 -6 -11 -8 -20 -4 -14 5 -17 22 -17 112 0 98 1 105 20 105 18 0 20 -7 20 -54z m570 -18 c0 -83 5 -95 40 -99 33 -5 35 -43 2 -47 -13 -2 -29 1 -37 8 -10 8 -14 8 -17 -1 -2 -7 -11 -10 -21 -6 -14 5 -17 22 -17 112 l0 105 25 0 c24 0 25 -2 25 -72z m6940 -374 c0 -4 -22 -50 -49 -103 -27 -53 -54 -107 -60 -121 -6 -14 -15 -32 -19 -40 -13 -22 -218 -439 -236 -480 -9 -19 -20 -42 -25 -50 -5 -8 -25 -49 -45 -90 -20 -41 -40 -82 -45 -90 -5 -8 -43 -85 -85 -170 -42 -85 -80 -162 -85 -170 -5 -8 -43 -86 -85 -172 -42 -86 -81 -160 -86 -163 -6 -3 -10 -15 -10 -25 0 -14 -142 -307 -199 -410 -17 -32 -42 -82 -137 -272 -54 -109 -102 -198 -106 -198 -6 0 -49 78 -85 155 -8 17 -19 37 -24 45 -5 8 -14 26 -20 40 -6 14 -15 32 -20 40 -5 8 -48 91 -95 185 -47 93 -89 174 -94 180 -5 5 -11 22 -15 37 -4 15 -13 32 -21 39 -8 6 -14 18 -14 26 0 7 -9 26 -21 42 -11 15 -22 45 -25 65 -2 21 -13 51 -24 66 -11 16 -20 33 -20 39 0 7 -58 128 -129 269 -70 141 -151 305 -180 365 -28 59 -55 107 -61 107 -5 0 -40 62 -76 138 -36 75 -70 144 -75 152 -5 8 -16 31 -25 50 -9 19 -63 128 -120 243 -57 114 -104 213 -104 221 0 7 -7 19 -15 26 -8 7 -15 16 -15 21 0 5 550 9 1275 9 701 0 1275 -3 1275 -6z m-6480 -152 c0 -1 -95 -191 -210 -422 l-211 -420 -414 0 c-228 0 -415 -4 -415 -9 0 -4 92 -193 206 -418 l205 -411 -205 -411 c-114 -226 -210 -411 -216 -411 -5 0 -106 192 -224 428 -482 962 -1036 2072 -1036 2075 0 1 567 2 1260 2 693 0 1260 -1 1260 -3z m941 -1347 c-1 -61 1 -118 5 -128 5 -15 24 -17 155 -17 l148 0 3 128 3 127 265 0 265 0 3 -118 3 -118 152 3 152 3 3 118 3 117 264 0 265 0 0 -130 0 -130 155 0 155 0 0 130 0 130 265 0 265 0 0 -270 0 -270 -265 0 -265 0 0 130 0 130 -139 0 c-77 0 -146 -3 -155 -6 -13 -5 -16 -26 -16 -130 l0 -124 -265 0 -265 0 0 135 0 135 -155 0 -155 0 0 -135 0 -135 -267 2 -268 3 -3 128 -3 127 -148 0 c-131 0 -150 -2 -155 -17 -4 -10 -6 -67 -5 -128 l2 -110 -267 -3 -266 -2 0 270 0 270 266 -2 267 -3 -2 -110z m614 -754 c25 -67 45 -124 45 -127 0 -2 -18 -4 -40 -4 l-40 0 0 -575 0 -575 1830 0 1830 0 0 325 c0 282 2 325 15 325 13 0 15 -44 15 -340 l0 -340 -1857 2 -1858 3 -3 588 -2 587 -40 0 c-22 0 -40 2 -40 4 0 4 71 204 85 239 4 10 9 16 11 14 2 -2 24 -59 49 -126z m1640 -277 c108 -52 209 -179 219 -275 2 -19 7 -42 11 -52 4 -9 4 -34 1 -55 -4 -20 -8 -48 -10 -62 -2 -14 -5 -27 -6 -30 -1 -3 -3 -9 -4 -15 -7 -36 -49 -116 -63 -122 -7 -3 -13 -10 -13 -16 0 -13 -40 -57 -51 -57 -4 0 -20 -11 -35 -25 -15 -14 -39 -28 -53 -32 -14 -3 -30 -9 -36 -13 -5 -3 -25 -7 -44 -9 -19 -1 -39 -5 -45 -9 -12 -8 -83 -8 -106 0 -8 3 -44 14 -80 23 -36 10 -69 24 -75 30 -5 6 -30 26 -54 43 -24 18 -50 42 -57 55 -73 123 -94 212 -75 322 12 71 48 159 75 180 7 6 15 18 19 28 3 9 13 17 21 17 9 0 20 8 25 19 10 18 117 76 156 84 11 2 65 3 120 2 88 -1 107 -5 160 -31z m967 -2 c81 -40 149 -110 191 -200 29 -61 32 -75 31 -162 0 -73 -5 -108 -22 -150 -24 -60 -86 -147 -117 -164 -11 -6 -24 -16 -30 -23 -5 -7 -32 -20 -60 -31 -27 -10 -59 -22 -70 -27 -54 -21 -243 -7 -276 21 -8 8 -23 14 -32 14 -8 0 -48 35 -87 78 -58 62 -76 90 -91 137 -33 106 -19 281 27 354 26 40 118 127 155 147 68 35 113 44 215 41 90 -2 107 -6 166 -35z"/>
 <path d="M8069 4358 c-37 -69 26 -153 74 -100 17 18 23 76 11 106 -10 26 -71 21 -85 -6z"/>
 <path d="M1060 4193 c-8 -3 -18 -11 -22 -17 -11 -16 -10 -84 2 -107 21 -39 89 -14 91 34 4 73 -24 108 -71 90z"/>
 <path d="M2230 4091 c0 -15 30 -41 46 -41 24 0 54 19 54 35 0 11 -13 15 -50 15 -27 0 -50 -4 -50 -9z"/>
 <path d="M3380 2130 l0 -230 224 0 c195 0 225 2 230 16 8 20 8 408 0 428 -5 14 -35 16 -230 16 l-224 0 0 -230z"/>
 <path d="M4220 2130 l0 -230 230 0 230 0 0 230 0 230 -230 0 -230 0 0 -230z"/>
 <path d="M5070 2130 l0 -230 225 0 225 0 0 230 0 230 -225 0 -225 0 0 -230z"/>
 <path d="M5910 2130 l0 -230 225 0 225 0 0 230 0 230 -225 0 -225 0 0 -230z"/>
 <path d="M5900 1233 c-8 -2 -22 -7 -30 -11 -8 -3 -22 -6 -31 -7 -9 -1 -36 -15 -60 -31 -25 -16 -53 -34 -64 -40 -21 -12 -42 -43 -78 -114 -29 -59 -32 -224 -5 -280 36 -74 65 -115 94 -132 58 -36 130 -68 152 -68 12 0 31 -5 42 -12 15 -10 27 -10 55 1 20 7 39 11 41 8 3 -3 40 12 83 33 74 38 104 62 127 105 51 95 55 106 61 150 19 139 -33 259 -148 338 -30 21 -66 39 -79 41 -14 1 -38 8 -53 14 -29 12 -79 15 -107 5z m-12 -187 l57 -55 57 55 c39 37 64 54 83 54 31 0 75 -41 75 -70 0 -30 -18 -60 -35 -60 -8 0 -15 -6 -15 -12 0 -7 -14 -26 -30 -42 l-30 -29 55 -58 c30 -32 55 -66 55 -76 0 -11 -15 -34 -34 -52 -40 -39 -47 -37 -121 38 -49 51 -75 64 -75 37 0 -13 -92 -106 -105 -106 -30 0 -95 57 -95 83 0 10 27 47 60 81 l60 63 -54 51 c-30 29 -57 60 -60 70 -8 23 46 82 74 82 12 0 46 -23 78 -54z"/>
 <path d="M6855 1234 c-58 -14 -196 -93 -210 -120 -5 -11 -20 -36 -33 -56 -33 -53 -53 -159 -42 -220 15 -78 48 -142 98 -191 113 -110 261 -133 400 -63 57 29 151 128 159 169 3 15 9 30 14 33 4 2 6 11 3 18 -3 8 -1 17 5 21 6 3 11 30 11 60 0 30 -5 57 -11 60 -6 4 -8 13 -5 20 3 8 -9 41 -25 74 -37 73 -114 146 -172 162 -23 6 -46 14 -52 17 -20 13 -111 23 -140 16z m158 -293 c165 -163 176 -184 115 -221 -18 -11 -37 -20 -42 -20 -5 0 -64 54 -131 120 l-121 120 -39 -40 c-24 -24 -48 -40 -62 -40 -24 0 -73 40 -73 60 0 14 139 163 160 171 8 3 22 4 30 1 8 -2 81 -70 163 -151z"/>
 </g>

</svg>