<!DOCTYPE svg PUBLIC "-//W3C//DTD SVG 20010904//EN" "http://www.w3.org/TR/2001/REC-SVG-20010904/DTD/svg10.dtd">
<svg version="1.0" xmlns="http://www.w3.org/2000/svg" width="670px" height="398px" viewBox="0 0 6700 3980" preserveAspectRatio="xMidYMid meet">
<g id="layer101" fill="#8d1a10" stroke="none">
 <path d="M0 1990 l0 -1990 3350 0 3350 0 0 1990 0 1990 -3350 0 -3350 0 0 -1990z"/>
 </g>
<g id="layer102" fill="#3f562a" stroke="none">
 <path d="M0 1990 l0 -1990 3350 0 3350 0 0 1990 0 1990 -3350 0 -3350 0 0 -1990z m4560 1490 l0 -60 50 0 c28 0 66 -6 84 -14 63 -26 56 -121 -10 -146 -14 -6 -57 -10 -95 -10 l-69 0 0 145 c0 138 1 145 20 145 18 0 20 -7 20 -60z m251 3 c1 -110 3 -114 44 -117 20 -1 25 -6 23 -21 -2 -15 -9 -19 -28 -17 -14 1 -37 2 -52 2 l-28 0 0 105 c0 98 1 105 20 105 18 0 20 -7 21 -57z m233 47 c31 -12 47 -41 50 -93 3 -54 -12 -82 -53 -102 -72 -34 -131 10 -131 99 1 86 56 126 134 96z m207 0 c13 -7 19 -7 19 0 0 5 9 10 20 10 19 0 20 -7 20 -145 0 -138 -1 -145 -20 -145 -17 0 -20 7 -20 45 0 25 -2 45 -4 45 -3 0 -17 -5 -32 -10 -38 -15 -89 10 -99 47 -23 84 10 163 66 163 17 0 39 -5 50 -10z m220 -6 c11 -14 13 -14 21 0 5 9 16 16 23 16 12 0 15 -20 15 -105 0 -98 -1 -105 -20 -105 -18 0 -20 7 -20 73 0 39 -4 77 -8 83 -12 18 -50 26 -72 14 -18 -9 -20 -20 -20 -90 0 -73 -2 -80 -20 -80 -18 0 -20 7 -20 80 0 73 3 83 25 105 28 29 76 33 96 9z m249 3 c27 -13 35 -57 13 -64 -7 -3 -13 2 -13 11 0 17 -29 36 -54 36 -49 0 -70 -92 -30 -135 28 -30 45 -31 69 -5 21 23 45 26 45 7 0 -26 -40 -52 -80 -52 -46 0 -72 22 -89 73 -31 94 53 173 139 129z m221 -5 c14 -12 20 -25 16 -35 -9 -23 -34 -21 -40 3 -8 29 -70 28 -91 -2 -27 -38 -20 -43 55 -43 64 0 72 -2 79 -21 18 -46 -52 -111 -104 -98 -36 9 -74 51 -82 89 -7 38 26 111 53 118 43 11 92 6 114 -11z m100 -39 c1 -110 3 -114 44 -117 20 -1 25 -6 23 -21 -2 -15 -9 -19 -28 -17 -14 1 -37 2 -52 2 l-28 0 0 105 c0 98 1 105 20 105 18 0 20 -7 21 -57z"/>
 <path d="M4603 3383 l-43 -4 0 -45 c0 -43 0 -44 34 -44 19 0 41 -3 49 -6 18 -6 57 29 57 51 0 16 -35 56 -47 53 -5 -1 -27 -3 -50 -5z"/>
 <path d="M4966 3494 c-36 -36 -34 -98 5 -127 23 -16 30 -17 50 -7 33 18 39 29 39 77 0 32 -5 46 -22 57 -29 20 -52 20 -72 0z"/>
 <path d="M5193 3502 c-15 -10 -33 -57 -33 -88 0 -27 32 -64 55 -64 30 0 55 38 55 84 0 61 -37 94 -77 68z"/>
 <path d="M5816 3412 c-3 -5 6 -21 21 -36 35 -35 77 -26 85 19 3 18 -3 20 -49 23 -28 2 -54 -1 -57 -6z"/>
 </g>
<g id="layer103" fill="#b22418" stroke="none">
 <path d="M0 1990 l0 -1990 3350 0 3350 0 0 1990 0 1990 -3350 0 -3350 0 0 -1990z m4560 1490 l0 -60 50 0 c28 0 66 -6 84 -14 63 -26 56 -121 -10 -146 -14 -6 -57 -10 -95 -10 l-69 0 0 145 c0 138 1 145 20 145 18 0 20 -7 20 -60z m251 3 c1 -110 3 -114 44 -117 20 -1 25 -6 23 -21 -2 -15 -9 -19 -28 -17 -14 1 -37 2 -52 2 l-28 0 0 105 c0 98 1 105 20 105 18 0 20 -7 21 -57z m233 47 c31 -12 47 -41 50 -93 3 -54 -12 -82 -53 -102 -72 -34 -131 10 -131 99 1 86 56 126 134 96z m207 0 c13 -7 19 -7 19 0 0 5 9 10 20 10 19 0 20 -7 20 -145 0 -138 -1 -145 -20 -145 -17 0 -20 7 -20 45 0 25 -2 45 -4 45 -3 0 -17 -5 -32 -10 -38 -15 -89 10 -99 47 -23 84 10 163 66 163 17 0 39 -5 50 -10z m220 -6 c11 -14 13 -14 21 0 5 9 16 16 23 16 12 0 15 -20 15 -105 0 -98 -1 -105 -20 -105 -18 0 -20 7 -20 73 0 39 -4 77 -8 83 -12 18 -50 26 -72 14 -18 -9 -20 -20 -20 -90 0 -73 -2 -80 -20 -80 -18 0 -20 7 -20 80 0 73 3 83 25 105 28 29 76 33 96 9z m249 3 c27 -13 35 -57 13 -64 -7 -3 -13 2 -13 11 0 17 -29 36 -54 36 -49 0 -70 -92 -30 -135 28 -30 45 -31 69 -5 21 23 45 26 45 7 0 -26 -40 -52 -80 -52 -46 0 -72 22 -89 73 -31 94 53 173 139 129z m221 -5 c14 -12 20 -25 16 -35 -9 -23 -34 -21 -40 3 -8 29 -70 28 -91 -2 -27 -38 -20 -43 55 -43 64 0 72 -2 79 -21 18 -46 -52 -111 -104 -98 -36 9 -74 51 -82 89 -7 38 26 111 53 118 43 11 92 6 114 -11z m100 -39 c1 -110 3 -114 44 -117 20 -1 25 -6 23 -21 -2 -15 -9 -19 -28 -17 -14 1 -37 2 -52 2 l-28 0 0 105 c0 98 1 105 20 105 18 0 20 -7 21 -57z m-5081 -1278 l0 -125 168 2 167 3 3 123 3 122 254 0 255 0 0 -120 0 -120 165 0 165 0 0 120 0 120 255 0 255 0 0 -125 0 -125 165 0 165 0 0 125 0 125 255 0 255 0 0 -260 0 -260 -255 0 -255 0 0 125 0 125 -165 0 -165 0 0 -125 0 -125 -255 0 -255 0 0 130 0 130 -165 0 -165 0 0 -130 0 -130 -255 0 -254 0 -3 123 -3 122 -167 3 -168 2 0 -125 0 -125 -255 0 -255 0 0 260 0 260 255 0 255 0 0 -125z"/>
 <path d="M4603 3383 l-43 -4 0 -45 c0 -43 0 -44 34 -44 19 0 41 -3 49 -6 18 -6 57 29 57 51 0 16 -35 56 -47 53 -5 -1 -27 -3 -50 -5z"/>
 <path d="M4966 3494 c-36 -36 -34 -98 5 -127 23 -16 30 -17 50 -7 33 18 39 29 39 77 0 32 -5 46 -22 57 -29 20 -52 20 -72 0z"/>
 <path d="M5193 3502 c-15 -10 -33 -57 -33 -88 0 -27 32 -64 55 -64 30 0 55 38 55 84 0 61 -37 94 -77 68z"/>
 <path d="M5816 3412 c-3 -5 6 -21 21 -36 35 -35 77 -26 85 19 3 18 -3 20 -49 23 -28 2 -54 -1 -57 -6z"/>
 <path d="M470 2070 l0 -230 240 0 240 0 0 230 0 230 -240 0 -240 0 0 -230z"/>
 <path d="M1310 2070 l0 -230 240 0 240 0 0 230 0 230 -240 0 -240 0 0 -230z"/>
 <path d="M2160 2070 l0 -230 235 0 235 0 0 230 0 230 -235 0 -235 0 0 -230z"/>
 <path d="M3000 2070 l0 -230 235 0 235 0 0 230 0 230 -235 0 -235 0 0 -230z"/>
 </g>
<g id="layer104" fill="#4f643c" stroke="none">
 <path d="M0 1990 l0 -1990 3350 0 3350 0 0 1990 0 1990 -3350 0 -3350 0 0 -1990z m4560 1490 l0 -60 50 0 c28 0 66 -6 84 -14 63 -26 56 -121 -10 -146 -14 -6 -57 -10 -95 -10 l-69 0 0 145 c0 138 1 145 20 145 18 0 20 -7 20 -60z m251 3 c1 -110 3 -114 44 -117 20 -1 25 -6 23 -21 -2 -15 -9 -19 -28 -17 -14 1 -37 2 -52 2 l-28 0 0 105 c0 98 1 105 20 105 18 0 20 -7 21 -57z m233 47 c31 -12 47 -41 50 -93 3 -54 -12 -82 -53 -102 -72 -34 -131 10 -131 99 1 86 56 126 134 96z m207 0 c13 -7 19 -7 19 0 0 5 9 10 20 10 19 0 20 -7 20 -145 0 -138 -1 -145 -20 -145 -17 0 -20 7 -20 45 0 25 -2 45 -4 45 -3 0 -17 -5 -32 -10 -38 -15 -89 10 -99 47 -23 84 10 163 66 163 17 0 39 -5 50 -10z m220 -6 c11 -14 13 -14 21 0 5 9 16 16 23 16 12 0 15 -20 15 -105 0 -98 -1 -105 -20 -105 -18 0 -20 7 -20 73 0 39 -4 77 -8 83 -12 18 -50 26 -72 14 -18 -9 -20 -20 -20 -90 0 -73 -2 -80 -20 -80 -18 0 -20 7 -20 80 0 73 3 83 25 105 28 29 76 33 96 9z m249 3 c27 -13 35 -57 13 -64 -7 -3 -13 2 -13 11 0 17 -29 36 -54 36 -49 0 -70 -92 -30 -135 28 -30 45 -31 69 -5 21 23 45 26 45 7 0 -26 -40 -52 -80 -52 -46 0 -72 22 -89 73 -31 94 53 173 139 129z m221 -5 c14 -12 20 -25 16 -35 -9 -23 -34 -21 -40 3 -8 29 -70 28 -91 -2 -27 -38 -20 -43 55 -43 64 0 72 -2 79 -21 18 -46 -52 -111 -104 -98 -36 9 -74 51 -82 89 -7 38 26 111 53 118 43 11 92 6 114 -11z m100 -39 c1 -110 3 -114 44 -117 20 -1 25 -6 23 -21 -2 -15 -9 -19 -28 -17 -14 1 -37 2 -52 2 l-28 0 0 105 c0 98 1 105 20 105 18 0 20 -7 21 -57z m343 -581 c3 -4 -2 -19 -9 -33 -20 -34 -61 -112 -125 -237 -30 -59 -58 -109 -61 -112 -4 -3 -33 -57 -66 -120 -58 -111 -122 -229 -190 -355 -18 -33 -45 -85 -60 -115 -15 -30 -33 -61 -40 -68 -7 -7 -13 -18 -13 -23 0 -6 -27 -59 -59 -117 -33 -59 -79 -146 -104 -192 -24 -47 -70 -132 -101 -190 -31 -58 -69 -130 -84 -160 -15 -30 -32 -60 -37 -66 -6 -6 -19 -31 -30 -55 -11 -24 -22 -46 -26 -49 -4 -3 -14 -23 -23 -45 -10 -22 -24 -50 -32 -63 l-15 -23 -25 36 c-13 20 -24 38 -24 42 0 3 -42 82 -93 177 -51 94 -98 182 -105 196 -6 14 -16 32 -21 40 -15 23 -150 276 -267 497 -52 100 -172 322 -184 343 -5 8 -21 38 -35 65 -13 28 -40 77 -58 110 -60 109 -139 259 -195 365 -30 58 -63 117 -74 133 l-19 27 1085 0 c597 0 1087 -4 1090 -8z m-5424 -697 l0 -125 168 2 167 3 3 123 3 122 254 0 255 0 0 -120 0 -120 165 0 165 0 0 120 0 120 255 0 255 0 0 -125 0 -125 165 0 165 0 0 125 0 125 255 0 255 0 0 -260 0 -260 -255 0 -255 0 0 125 0 125 -165 0 -165 0 0 -125 0 -125 -255 0 -255 0 0 130 0 130 -165 0 -165 0 0 -130 0 -130 -255 0 -254 0 -3 123 -3 122 -167 3 -168 2 0 -125 0 -125 -255 0 -255 0 0 260 0 260 255 0 255 0 0 -125z"/>
 <path d="M4603 3383 l-43 -4 0 -45 c0 -43 0 -44 34 -44 19 0 41 -3 49 -6 18 -6 57 29 57 51 0 16 -35 56 -47 53 -5 -1 -27 -3 -50 -5z"/>
 <path d="M4966 3494 c-36 -36 -34 -98 5 -127 23 -16 30 -17 50 -7 33 18 39 29 39 77 0 32 -5 46 -22 57 -29 20 -52 20 -72 0z"/>
 <path d="M5193 3502 c-15 -10 -33 -57 -33 -88 0 -27 32 -64 55 -64 30 0 55 38 55 84 0 61 -37 94 -77 68z"/>
 <path d="M5816 3412 c-3 -5 6 -21 21 -36 35 -35 77 -26 85 19 3 18 -3 20 -49 23 -28 2 -54 -1 -57 -6z"/>
 <path d="M470 2070 l0 -230 240 0 240 0 0 230 0 230 -240 0 -240 0 0 -230z"/>
 <path d="M1310 2070 l0 -230 240 0 240 0 0 230 0 230 -240 0 -240 0 0 -230z"/>
 <path d="M2160 2070 l0 -230 235 0 235 0 0 230 0 230 -235 0 -235 0 0 -230z"/>
 <path d="M3000 2070 l0 -230 235 0 235 0 0 230 0 230 -235 0 -235 0 0 -230z"/>
 </g>
<g id="layer105" fill="#ac332a" stroke="none">
 <path d="M0 1990 l0 -1990 3350 0 3350 0 0 1990 0 1990 -3350 0 -3350 0 0 -1990z m4560 1490 l0 -60 50 0 c28 0 66 -6 84 -14 63 -26 56 -121 -10 -146 -14 -6 -57 -10 -95 -10 l-69 0 0 145 c0 138 1 145 20 145 18 0 20 -7 20 -60z m251 3 c1 -110 3 -114 44 -117 20 -1 25 -6 23 -21 -2 -15 -9 -19 -28 -17 -14 1 -37 2 -52 2 l-28 0 0 105 c0 98 1 105 20 105 18 0 20 -7 21 -57z m233 47 c31 -12 47 -41 50 -93 3 -54 -12 -82 -53 -102 -72 -34 -131 10 -131 99 1 86 56 126 134 96z m207 0 c13 -7 19 -7 19 0 0 5 9 10 20 10 19 0 20 -7 20 -145 0 -138 -1 -145 -20 -145 -17 0 -20 7 -20 45 0 25 -2 45 -4 45 -3 0 -17 -5 -32 -10 -38 -15 -89 10 -99 47 -23 84 10 163 66 163 17 0 39 -5 50 -10z m220 -6 c11 -14 13 -14 21 0 5 9 16 16 23 16 12 0 15 -20 15 -105 0 -98 -1 -105 -20 -105 -18 0 -20 7 -20 73 0 39 -4 77 -8 83 -12 18 -50 26 -72 14 -18 -9 -20 -20 -20 -90 0 -73 -2 -80 -20 -80 -18 0 -20 7 -20 80 0 73 3 83 25 105 28 29 76 33 96 9z m249 3 c27 -13 35 -57 13 -64 -7 -3 -13 2 -13 11 0 17 -29 36 -54 36 -49 0 -70 -92 -30 -135 28 -30 45 -31 69 -5 21 23 45 26 45 7 0 -26 -40 -52 -80 -52 -46 0 -72 22 -89 73 -31 94 53 173 139 129z m221 -5 c14 -12 20 -25 16 -35 -9 -23 -34 -21 -40 3 -8 29 -70 28 -91 -2 -27 -38 -20 -43 55 -43 64 0 72 -2 79 -21 18 -46 -52 -111 -104 -98 -36 9 -74 51 -82 89 -7 38 26 111 53 118 43 11 92 6 114 -11z m100 -39 c1 -110 3 -114 44 -117 20 -1 25 -6 23 -21 -2 -15 -9 -19 -28 -17 -14 1 -37 2 -52 2 l-28 0 0 105 c0 98 1 105 20 105 18 0 20 -7 21 -57z m343 -581 c3 -4 -2 -19 -9 -33 -20 -34 -61 -112 -125 -237 -30 -59 -58 -109 -61 -112 -4 -3 -33 -57 -66 -120 -58 -111 -122 -229 -190 -355 -18 -33 -45 -85 -60 -115 -15 -30 -33 -61 -40 -68 -7 -7 -13 -18 -13 -23 0 -6 -27 -59 -59 -117 -33 -59 -79 -146 -104 -192 -24 -47 -70 -132 -101 -190 -31 -58 -69 -130 -84 -160 -15 -30 -32 -60 -37 -66 -6 -6 -19 -31 -30 -55 -11 -24 -22 -46 -26 -49 -4 -3 -14 -23 -23 -45 -10 -22 -24 -50 -32 -63 l-15 -23 -25 36 c-13 20 -24 38 -24 42 0 3 -42 82 -93 177 -51 94 -98 182 -105 196 -6 14 -16 32 -21 40 -15 23 -150 276 -267 497 -52 100 -172 322 -184 343 -5 8 -21 38 -35 65 -13 28 -40 77 -58 110 -60 109 -139 259 -195 365 -30 58 -63 117 -74 133 l-19 27 1085 0 c597 0 1087 -4 1090 -8z m-5414 -697 l0 -125 160 0 160 0 0 125 0 125 260 0 260 0 0 -120 0 -120 163 2 162 3 3 118 3 117 254 0 255 0 0 -125 0 -125 165 0 165 0 0 125 0 125 260 0 260 0 0 -260 0 -260 -260 0 -260 0 0 125 0 125 -165 0 -165 0 0 -125 0 -125 -255 0 -254 0 -3 128 -3 127 -162 3 -163 2 0 -130 0 -130 -260 0 -260 0 0 125 0 125 -160 0 -160 0 0 -125 0 -125 -260 0 -260 0 0 260 0 260 260 0 260 0 0 -125z"/>
 <path d="M4603 3383 l-43 -4 0 -45 c0 -43 0 -44 34 -44 19 0 41 -3 49 -6 18 -6 57 29 57 51 0 16 -35 56 -47 53 -5 -1 -27 -3 -50 -5z"/>
 <path d="M4966 3494 c-36 -36 -34 -98 5 -127 23 -16 30 -17 50 -7 33 18 39 29 39 77 0 32 -5 46 -22 57 -29 20 -52 20 -72 0z"/>
 <path d="M5193 3502 c-15 -10 -33 -57 -33 -88 0 -27 32 -64 55 -64 30 0 55 38 55 84 0 61 -37 94 -77 68z"/>
 <path d="M5816 3412 c-3 -5 6 -21 21 -36 35 -35 77 -26 85 19 3 18 -3 20 -49 23 -28 2 -54 -1 -57 -6z"/>
 <path d="M470 2070 l0 -230 235 0 235 0 0 230 0 230 -235 0 -235 0 0 -230z"/>
 <path d="M1320 2070 l0 -230 235 0 235 0 -2 228 -3 227 -232 3 -233 2 0 -230z"/>
 <path d="M2160 2070 l0 -230 235 0 235 0 0 230 0 230 -235 0 -235 0 0 -230z"/>
 <path d="M3000 2070 l0 -230 235 0 235 0 0 230 0 230 -235 0 -235 0 0 -230z"/>
 </g>
<g id="layer106" fill="#595959" stroke="none">
 <path d="M0 1990 l0 -1990 3350 0 3350 0 0 1990 0 1990 -3350 0 -3350 0 0 -1990z m4560 1490 l0 -60 65 0 c82 0 115 -25 115 -89 0 -61 -35 -81 -139 -81 l-81 0 0 145 c0 138 1 145 20 145 18 0 20 -7 20 -60z m251 3 c1 -86 10 -107 44 -113 35 -6 45 -35 16 -45 -12 -3 -26 -3 -33 1 -7 4 -25 7 -40 6 l-28 -2 0 105 c0 98 1 105 20 105 18 0 20 -7 21 -57z m257 34 c28 -30 38 -97 21 -136 -29 -66 -119 -76 -162 -19 -29 39 -26 122 4 154 31 33 106 34 137 1z m183 13 c13 -7 19 -7 19 0 0 5 9 10 20 10 19 0 20 -7 20 -145 0 -138 -1 -145 -20 -145 -17 0 -20 7 -20 45 0 25 -2 45 -4 45 -1 0 -16 -5 -33 -10 -66 -23 -119 37 -108 123 9 72 68 107 126 77z m227 -2 c9 -9 12 -9 12 0 0 7 9 12 20 12 19 0 20 -7 20 -105 0 -98 -1 -105 -20 -105 -17 0 -19 8 -22 77 -3 73 -5 78 -31 93 -27 14 -29 14 -48 -9 -15 -18 -19 -39 -19 -92 0 -62 -2 -69 -20 -69 -18 0 -20 7 -20 79 0 98 20 131 79 131 20 0 42 -5 49 -12z m250 -5 c11 -10 23 -28 27 -40 9 -33 -23 -30 -50 4 -17 21 -27 25 -48 19 -26 -6 -32 -17 -41 -70 -7 -40 19 -76 55 -76 17 0 32 6 35 15 8 19 44 20 44 2 0 -26 -40 -52 -80 -52 -70 0 -112 67 -90 144 5 19 17 42 26 52 22 25 94 26 122 2z m209 2 c11 -8 23 -24 26 -35 7 -27 -33 -28 -51 0 -22 36 -83 20 -96 -25 -5 -19 -1 -20 72 -20 l77 0 -2 -33 c-4 -77 -97 -115 -155 -64 -24 20 -41 77 -33 111 11 50 48 81 97 81 24 0 53 -7 65 -15z m104 -42 c1 -86 10 -107 44 -113 35 -6 45 -35 16 -45 -12 -3 -26 -3 -33 1 -7 4 -25 7 -40 6 l-28 -2 0 105 c0 98 1 105 20 105 18 0 20 -7 21 -57z m344 -583 c5 -7 -90 -197 -136 -270 -5 -8 -31 -58 -58 -110 -26 -52 -85 -161 -130 -242 -44 -81 -81 -152 -81 -158 0 -6 -12 -27 -26 -46 -15 -19 -24 -37 -20 -41 3 -3 -4 -20 -17 -37 -25 -33 -177 -309 -177 -321 0 -4 -9 -20 -21 -37 -12 -16 -19 -32 -15 -35 3 -3 -8 -24 -23 -47 -40 -57 -221 -394 -221 -411 0 -8 -4 -16 -9 -19 -5 -4 -40 -63 -77 -132 l-68 -125 -32 58 c-17 32 -44 77 -58 99 -14 23 -26 48 -26 56 0 9 -9 27 -20 41 -11 14 -20 28 -20 32 0 3 -36 72 -81 153 -84 155 -85 157 -113 212 -39 76 -127 239 -165 305 -22 39 -48 86 -57 105 -9 19 -20 42 -25 50 -4 8 -19 38 -33 65 -43 86 -140 260 -158 285 -10 14 -18 30 -18 37 0 8 -11 31 -25 53 -14 22 -25 42 -25 45 0 3 -37 72 -82 153 -44 81 -90 165 -101 187 -12 22 -29 51 -39 64 -10 13 -18 28 -18 32 0 13 2167 12 2175 -1z m-5415 -695 l0 -125 160 0 160 0 0 125 0 125 260 0 260 0 0 -120 0 -120 163 2 162 3 3 118 3 117 254 0 255 0 0 -125 0 -125 165 0 165 0 0 125 0 125 260 0 260 0 0 -260 0 -260 -260 0 -260 0 0 125 0 125 -165 0 -165 0 0 -125 0 -125 -255 0 -254 0 -3 128 -3 127 -162 3 -163 2 0 -130 0 -130 -260 0 -260 0 0 125 0 125 -160 0 -160 0 0 -125 0 -125 -260 0 -260 0 0 260 0 260 260 0 260 0 0 -125z"/>
 <path d="M4603 3383 l-43 -4 0 -45 c0 -43 0 -44 34 -44 19 0 41 -3 49 -6 18 -6 57 29 57 51 0 16 -35 56 -47 53 -5 -1 -27 -3 -50 -5z"/>
 <path d="M4966 3494 c-38 -37 -23 -125 23 -137 31 -8 71 28 71 64 0 71 -54 113 -94 73z"/>
 <path d="M5187 3495 c-35 -35 -28 -113 11 -134 16 -8 26 -6 46 10 21 16 26 29 26 63 0 64 -47 98 -83 61z"/>
 <path d="M5822 3390 c24 -39 98 -38 98 1 0 16 -7 19 -55 19 -53 0 -55 -1 -43 -20z"/>
 <path d="M470 2070 l0 -230 235 0 235 0 0 230 0 230 -235 0 -235 0 0 -230z"/>
 <path d="M1320 2070 l0 -230 235 0 235 0 -2 228 -3 227 -232 3 -233 2 0 -230z"/>
 <path d="M2160 2070 l0 -230 235 0 235 0 0 230 0 230 -235 0 -235 0 0 -230z"/>
 <path d="M3000 2070 l0 -230 235 0 235 0 0 230 0 230 -235 0 -235 0 0 -230z"/>
 </g>
<g id="layer107" fill="#5f724e" stroke="none">
 <path d="M0 1990 l0 -1990 3350 0 3350 0 0 1990 0 1990 -3350 0 -3350 0 0 -1990z m4560 1490 l0 -60 65 0 c82 0 115 -25 115 -89 0 -61 -35 -81 -139 -81 l-81 0 0 145 c0 138 1 145 20 145 18 0 20 -7 20 -60z m251 3 c1 -86 10 -107 44 -113 35 -6 45 -35 16 -45 -12 -3 -26 -3 -33 1 -7 4 -25 7 -40 6 l-28 -2 0 105 c0 98 1 105 20 105 18 0 20 -7 21 -57z m257 34 c28 -30 38 -97 21 -136 -29 -66 -119 -76 -162 -19 -29 39 -26 122 4 154 31 33 106 34 137 1z m183 13 c13 -7 19 -7 19 0 0 5 9 10 20 10 19 0 20 -7 20 -145 0 -138 -1 -145 -20 -145 -17 0 -20 7 -20 45 0 25 -2 45 -4 45 -1 0 -16 -5 -33 -10 -66 -23 -119 37 -108 123 9 72 68 107 126 77z m227 -2 c9 -9 12 -9 12 0 0 7 9 12 20 12 19 0 20 -7 20 -105 0 -98 -1 -105 -20 -105 -17 0 -19 8 -22 77 -3 73 -5 78 -31 93 -27 14 -29 14 -48 -9 -15 -18 -19 -39 -19 -92 0 -62 -2 -69 -20 -69 -18 0 -20 7 -20 79 0 98 20 131 79 131 20 0 42 -5 49 -12z m250 -5 c11 -10 23 -28 27 -40 9 -33 -23 -30 -50 4 -17 21 -27 25 -48 19 -26 -6 -32 -17 -41 -70 -7 -40 19 -76 55 -76 17 0 32 6 35 15 8 19 44 20 44 2 0 -26 -40 -52 -80 -52 -70 0 -112 67 -90 144 5 19 17 42 26 52 22 25 94 26 122 2z m209 2 c11 -8 23 -24 26 -35 7 -27 -33 -28 -51 0 -22 36 -83 20 -96 -25 -5 -19 -1 -20 72 -20 l77 0 -2 -33 c-4 -77 -97 -115 -155 -64 -24 20 -41 77 -33 111 11 50 48 81 97 81 24 0 53 -7 65 -15z m104 -42 c1 -86 10 -107 44 -113 35 -6 45 -35 16 -45 -12 -3 -26 -3 -33 1 -7 4 -25 7 -40 6 l-28 -2 0 105 c0 98 1 105 20 105 18 0 20 -7 21 -57z m344 -583 c5 -7 -90 -197 -136 -270 -5 -8 -31 -58 -58 -110 -26 -52 -85 -161 -130 -242 -44 -81 -81 -152 -81 -158 0 -6 -12 -27 -26 -46 -15 -19 -24 -37 -20 -41 3 -3 -4 -20 -17 -37 -25 -33 -177 -309 -177 -321 0 -4 -9 -20 -21 -37 -12 -16 -19 -32 -15 -35 3 -3 -8 -24 -23 -47 -40 -57 -221 -394 -221 -411 0 -8 -4 -16 -9 -19 -5 -4 -40 -63 -77 -132 l-68 -125 -32 58 c-17 32 -44 77 -58 99 -14 23 -26 48 -26 56 0 9 -9 27 -20 41 -11 14 -20 28 -20 32 0 3 -36 72 -81 153 -84 155 -85 157 -113 212 -39 76 -127 239 -165 305 -22 39 -48 86 -57 105 -9 19 -20 42 -25 50 -4 8 -19 38 -33 65 -43 86 -140 260 -158 285 -10 14 -18 30 -18 37 0 8 -11 31 -25 53 -14 22 -25 42 -25 45 0 3 -37 72 -82 153 -44 81 -90 165 -101 187 -12 22 -29 51 -39 64 -10 13 -18 28 -18 32 0 13 2167 12 2175 -1z m-5415 -695 l0 -125 160 0 160 0 0 125 0 125 260 0 260 0 0 -120 0 -120 163 2 162 3 3 118 3 117 254 0 255 0 0 -125 0 -125 165 0 165 0 0 125 0 125 260 0 260 0 0 -260 0 -260 -260 0 -260 0 0 125 0 125 -165 0 -165 0 0 -125 0 -125 -255 0 -254 0 -3 128 -3 127 -162 3 -163 2 0 -130 0 -130 -260 0 -260 0 0 125 0 125 -160 0 -160 0 0 -125 0 -125 -260 0 -260 0 0 260 0 260 260 0 260 0 0 -125z m609 -733 c22 -63 41 -115 41 -117 0 -2 -17 -5 -37 -7 l-38 -3 0 -575 0 -575 1875 0 1875 0 3 328 c1 209 6 327 12 327 7 0 9 -117 8 -337 l-3 -338 -1892 -3 -1893 -2 -2 587 -3 588 -38 3 c-25 2 -37 8 -34 15 2 7 21 60 42 120 21 59 39 106 40 105 1 -2 21 -54 44 -116z"/>
 <path d="M4603 3383 l-43 -4 0 -45 c0 -43 0 -44 34 -44 19 0 41 -3 49 -6 18 -6 57 29 57 51 0 16 -35 56 -47 53 -5 -1 -27 -3 -50 -5z"/>
 <path d="M4966 3494 c-38 -37 -23 -125 23 -137 31 -8 71 28 71 64 0 71 -54 113 -94 73z"/>
 <path d="M5187 3495 c-35 -35 -28 -113 11 -134 16 -8 26 -6 46 10 21 16 26 29 26 63 0 64 -47 98 -83 61z"/>
 <path d="M5822 3390 c24 -39 98 -38 98 1 0 16 -7 19 -55 19 -53 0 -55 -1 -43 -20z"/>
 <path d="M470 2070 l0 -230 235 0 235 0 0 230 0 230 -235 0 -235 0 0 -230z"/>
 <path d="M1320 2070 l0 -230 235 0 235 0 -2 228 -3 227 -232 3 -233 2 0 -230z"/>
 <path d="M2160 2070 l0 -230 235 0 235 0 0 230 0 230 -235 0 -235 0 0 -230z"/>
 <path d="M3000 2070 l0 -230 235 0 235 0 0 230 0 230 -235 0 -235 0 0 -230z"/>
 </g>
<g id="layer108" fill="#c2443d" stroke="none">
 <path d="M0 1990 l0 -1990 3350 0 3350 0 0 1990 0 1990 -3350 0 -3350 0 0 -1990z m4560 1490 l0 -60 65 0 c82 0 115 -25 115 -89 0 -61 -35 -81 -139 -81 l-81 0 0 145 c0 138 1 145 20 145 18 0 20 -7 20 -60z m251 3 c1 -86 10 -107 44 -113 35 -6 45 -35 16 -45 -12 -3 -26 -3 -33 1 -7 4 -25 7 -40 6 l-28 -2 0 105 c0 98 1 105 20 105 18 0 20 -7 21 -57z m257 34 c28 -30 38 -97 21 -136 -29 -66 -119 -76 -162 -19 -29 39 -26 122 4 154 31 33 106 34 137 1z m183 13 c13 -7 19 -7 19 0 0 5 9 10 20 10 19 0 20 -7 20 -145 0 -138 -1 -145 -20 -145 -17 0 -20 7 -20 45 0 25 -2 45 -4 45 -1 0 -16 -5 -33 -10 -66 -23 -119 37 -108 123 9 72 68 107 126 77z m227 -2 c9 -9 12 -9 12 0 0 7 9 12 20 12 19 0 20 -7 20 -105 0 -98 -1 -105 -20 -105 -17 0 -19 8 -22 77 -3 73 -5 78 -31 93 -27 14 -29 14 -48 -9 -15 -18 -19 -39 -19 -92 0 -62 -2 -69 -20 -69 -18 0 -20 7 -20 79 0 98 20 131 79 131 20 0 42 -5 49 -12z m250 -5 c11 -10 23 -28 27 -40 9 -33 -23 -30 -50 4 -17 21 -27 25 -48 19 -26 -6 -32 -17 -41 -70 -7 -40 19 -76 55 -76 17 0 32 6 35 15 8 19 44 20 44 2 0 -26 -40 -52 -80 -52 -70 0 -112 67 -90 144 5 19 17 42 26 52 22 25 94 26 122 2z m209 2 c11 -8 23 -24 26 -35 7 -27 -33 -28 -51 0 -22 36 -83 20 -96 -25 -5 -19 -1 -20 72 -20 l77 0 -2 -33 c-4 -77 -97 -115 -155 -64 -24 20 -41 77 -33 111 11 50 48 81 97 81 24 0 53 -7 65 -15z m104 -42 c1 -86 10 -107 44 -113 35 -6 45 -35 16 -45 -12 -3 -26 -3 -33 1 -7 4 -25 7 -40 6 l-28 -2 0 105 c0 98 1 105 20 105 18 0 20 -7 21 -57z m344 -583 c5 -7 -90 -197 -136 -270 -5 -8 -31 -58 -58 -110 -26 -52 -85 -161 -130 -242 -44 -81 -81 -152 -81 -158 0 -6 -12 -27 -26 -46 -15 -19 -24 -37 -20 -41 3 -3 -4 -20 -17 -37 -25 -33 -177 -309 -177 -321 0 -4 -9 -20 -21 -37 -12 -16 -19 -32 -15 -35 3 -3 -8 -24 -23 -47 -40 -57 -221 -394 -221 -411 0 -8 -4 -16 -9 -19 -5 -4 -40 -63 -77 -132 l-68 -125 -32 58 c-17 32 -44 77 -58 99 -14 23 -26 48 -26 56 0 9 -9 27 -20 41 -11 14 -20 28 -20 32 0 3 -36 72 -81 153 -84 155 -85 157 -113 212 -39 76 -127 239 -165 305 -22 39 -48 86 -57 105 -9 19 -20 42 -25 50 -4 8 -19 38 -33 65 -43 86 -140 260 -158 285 -10 14 -18 30 -18 37 0 8 -11 31 -25 53 -14 22 -25 42 -25 45 0 3 -37 72 -82 153 -44 81 -90 165 -101 187 -12 22 -29 51 -39 64 -10 13 -18 28 -18 32 0 13 2167 12 2175 -1z m-5415 -695 l0 -125 160 0 160 0 0 125 0 125 260 0 260 0 0 -120 0 -120 160 0 160 0 0 120 0 120 265 0 265 0 0 -125 0 -125 155 0 155 0 0 125 0 125 265 0 265 0 0 -260 0 -260 -265 0 -265 0 0 125 0 125 -155 0 -155 0 0 -125 0 -125 -265 0 -265 0 0 130 0 130 -160 0 -160 0 0 -130 0 -130 -260 0 -260 0 0 125 0 125 -160 0 -160 0 0 -125 0 -125 -260 0 -260 0 0 260 0 260 260 0 260 0 0 -125z m609 -733 c22 -63 41 -115 41 -117 0 -2 -17 -5 -37 -7 l-38 -3 0 -575 0 -575 1875 0 1875 0 3 328 c1 209 6 327 12 327 7 0 9 -117 8 -337 l-3 -338 -1892 -3 -1893 -2 -2 587 -3 588 -38 3 c-25 2 -37 8 -34 15 2 7 21 60 42 120 21 59 39 106 40 105 1 -2 21 -54 44 -116z"/>
 <path d="M4603 3383 l-43 -4 0 -45 c0 -43 0 -44 34 -44 19 0 41 -3 49 -6 18 -6 57 29 57 51 0 16 -35 56 -47 53 -5 -1 -27 -3 -50 -5z"/>
 <path d="M4966 3494 c-38 -37 -23 -125 23 -137 31 -8 71 28 71 64 0 71 -54 113 -94 73z"/>
 <path d="M5187 3495 c-35 -35 -28 -113 11 -134 16 -8 26 -6 46 10 21 16 26 29 26 63 0 64 -47 98 -83 61z"/>
 <path d="M5822 3390 c24 -39 98 -38 98 1 0 16 -7 19 -55 19 -53 0 -55 -1 -43 -20z"/>
 <path d="M480 2070 l0 -230 230 0 230 0 0 230 0 230 -230 0 -230 0 0 -230z"/>
 <path d="M1320 2070 l0 -230 230 0 230 0 0 230 0 230 -230 0 -230 0 0 -230z"/>
 <path d="M2160 2070 l0 -230 233 2 232 3 0 225 0 225 -232 3 -233 2 0 -230z"/>
 <path d="M3010 2070 l0 -230 230 0 230 0 0 230 0 230 -230 0 -230 0 0 -230z"/>
 </g>
<g id="layer109" fill="#db3833" stroke="none">
 <path d="M0 1990 l0 -1990 3350 0 3350 0 0 1990 0 1990 -3350 0 -3350 0 0 -1990z m4560 1490 l0 -60 65 0 c82 0 115 -25 115 -89 0 -62 -31 -81 -136 -81 l-84 0 0 145 c0 138 1 145 20 145 18 0 20 -7 20 -60z m251 3 c1 -86 10 -107 44 -113 35 -6 45 -35 16 -45 -12 -3 -26 -3 -33 1 -7 4 -25 7 -40 6 l-28 -2 0 105 c0 98 1 105 20 105 18 0 20 -7 21 -57z m263 26 c47 -55 31 -145 -31 -174 -42 -20 -82 -13 -114 21 -19 21 -24 36 -23 80 0 74 28 104 95 104 40 0 51 -4 73 -31z m184 19 c9 -9 12 -9 12 0 0 7 9 12 20 12 19 0 20 -7 20 -145 0 -138 -1 -145 -20 -145 -17 0 -20 7 -20 45 0 25 -2 45 -4 45 -1 0 -16 -5 -33 -10 -44 -16 -81 2 -100 47 -33 79 7 163 77 163 20 0 41 -5 48 -12z m220 0 c9 -9 12 -9 12 0 0 7 9 12 20 12 19 0 20 -7 20 -105 0 -98 -1 -105 -20 -105 -18 0 -20 7 -20 59 0 73 -12 107 -41 116 -38 13 -59 -25 -59 -106 0 -63 -2 -69 -21 -69 -20 0 -21 4 -17 88 2 56 8 95 17 105 16 20 91 23 109 5z m250 -5 c11 -10 23 -28 27 -40 9 -33 -23 -30 -50 4 -52 64 -117 -28 -75 -106 15 -29 63 -28 82 1 8 12 19 18 26 14 35 -22 -12 -71 -68 -71 -70 0 -112 67 -90 144 5 19 17 42 26 52 22 25 94 26 122 2z m209 2 c11 -8 23 -24 26 -35 7 -27 -33 -28 -51 0 -15 24 -49 26 -74 3 -35 -31 -22 -42 55 -45 l72 -3 -2 -34 c-2 -50 -42 -86 -93 -85 -49 2 -76 24 -91 74 -14 46 2 102 34 125 27 19 96 19 124 0z m104 -42 c1 -86 10 -107 44 -113 35 -6 45 -35 16 -45 -12 -3 -26 -3 -33 1 -7 4 -25 7 -40 6 l-28 -2 0 105 c0 98 1 105 20 105 18 0 20 -7 21 -57z m343 -582 c3 -5 -3 -28 -14 -52 -20 -42 -26 -55 -50 -96 -5 -10 -23 -46 -39 -79 -16 -34 -34 -64 -40 -68 -6 -4 -11 -14 -11 -22 0 -8 -12 -33 -27 -57 -28 -42 -82 -140 -104 -187 -6 -14 -15 -32 -20 -40 -5 -8 -18 -36 -30 -62 -12 -26 -27 -53 -35 -59 -8 -6 -14 -18 -14 -26 0 -8 -13 -35 -30 -60 -16 -24 -30 -49 -31 -56 0 -7 -14 -32 -29 -57 -16 -25 -39 -65 -51 -90 -37 -78 -62 -125 -75 -141 -8 -8 -14 -21 -14 -28 0 -7 -13 -33 -30 -58 -16 -24 -30 -49 -30 -54 0 -6 -8 -23 -17 -37 -36 -54 -44 -69 -88 -157 -24 -49 -49 -97 -54 -105 -5 -8 -24 -44 -42 -80 -18 -36 -45 -85 -61 -110 -15 -25 -47 -85 -71 -135 -39 -80 -71 -126 -81 -114 -1 2 -17 33 -35 69 -18 36 -47 90 -64 121 -18 31 -51 90 -74 130 -23 41 -57 108 -76 150 -20 42 -49 96 -66 121 -17 25 -31 53 -31 61 0 9 -5 19 -11 22 -10 7 -26 37 -119 220 -27 55 -65 125 -83 156 -67 117 -147 262 -147 269 0 7 -36 77 -83 161 -136 242 -167 300 -167 312 0 8 -10 29 -23 48 -12 19 -31 52 -42 74 -11 21 -30 55 -42 73 -13 19 -23 39 -23 43 0 12 2167 12 2174 0z m-5414 -696 l0 -125 160 0 160 0 0 125 0 125 260 0 260 0 0 -120 0 -120 160 0 160 0 0 120 0 120 265 0 265 0 0 -125 0 -125 155 0 155 0 0 125 0 125 265 0 265 0 0 -260 0 -260 -265 0 -265 0 0 125 0 125 -155 0 -155 0 0 -125 0 -125 -265 0 -265 0 0 130 0 130 -160 0 -160 0 0 -130 0 -130 -260 0 -260 0 0 125 0 125 -160 0 -160 0 0 -125 0 -125 -260 0 -260 0 0 260 0 260 260 0 260 0 0 -125z m609 -733 c22 -63 41 -115 41 -117 0 -2 -17 -5 -37 -7 l-38 -3 0 -575 0 -575 1875 0 1875 0 3 328 c1 209 6 327 12 327 7 0 9 -117 8 -337 l-3 -338 -1892 -3 -1893 -2 -2 587 -3 588 -38 3 c-25 2 -37 8 -34 15 2 7 21 60 42 120 21 59 39 106 40 105 1 -2 21 -54 44 -116z m1891 -368 c154 -46 260 -189 260 -351 0 -35 -4 -63 -8 -63 -4 0 -8 30 -9 68 -2 174 -119 310 -293 342 -35 6 -74 7 -103 1 -26 -5 -50 -5 -52 0 -13 21 137 23 205 3z m-225 -14 c-3 -5 -14 -10 -23 -9 -14 0 -13 2 3 9 27 11 27 11 20 0z m-188 -97 c-4 -3 -7 0 -7 7 0 7 3 10 7 7 3 -4 3 -10 0 -14z m63 13 c0 -3 -4 -8 -10 -11 -5 -3 -10 -1 -10 4 0 6 5 11 10 11 6 0 10 -2 10 -4z m67 -83 c-4 -3 -7 0 -7 7 0 7 3 10 7 7 3 -4 3 -10 0 -14z m51 -105 c31 -32 54 -60 51 -62 -3 -3 -34 23 -68 58 -50 50 -62 68 -56 83 8 17 8 17 12 -2 3 -11 30 -46 61 -77z m-238 62 c0 -5 -5 -10 -11 -10 -5 0 -7 5 -4 10 3 6 8 10 11 10 2 0 4 -4 4 -10z m-10 -34 c0 -3 -5 -8 -12 -12 -7 -4 -8 -3 -4 4 7 12 16 16 16 8z m30 -262 c66 -129 182 -204 327 -212 86 -5 106 -22 25 -22 -158 1 -294 90 -369 241 -33 67 -52 164 -38 196 6 12 11 -7 16 -60 5 -59 15 -94 39 -143z m0 202 c0 -3 -5 -8 -12 -12 -7 -4 -8 -3 -4 4 7 12 16 16 16 8z m410 -161 c29 -30 63 -56 74 -58 20 -3 20 -4 3 -12 -15 -6 -32 5 -81 54 -34 34 -66 58 -71 54 -4 -4 -5 -2 -1 5 11 19 18 15 76 -43z m290 35 c0 -5 -5 -10 -11 -10 -5 0 -7 5 -4 10 3 6 8 10 11 10 2 0 4 -4 4 -10z m-540 -39 c0 -27 27 -51 58 -51 19 0 23 -3 15 -11 -18 -18 -61 -1 -78 31 -17 34 -19 50 -5 50 6 0 10 -9 10 -19z m513 -26 c-3 -9 -8 -14 -10 -11 -3 3 -2 9 2 15 9 16 15 13 8 -4z m-143 -15 c0 -5 -5 -10 -11 -10 -5 0 -7 5 -4 10 3 6 8 10 11 10 2 0 4 -4 4 -10z m57 -147 c-4 -3 -10 -3 -14 0 -3 4 0 7 7 7 7 0 10 -3 7 -7z m-47 -28 c-7 -8 -20 -15 -29 -15 -11 1 -8 5 9 15 32 18 35 18 20 0z m-90 -29 c0 -11 -19 -15 -25 -6 -3 5 1 10 9 10 9 0 16 -2 16 -4z"/>
 <path d="M4560 3335 l0 -45 60 0 c50 0 61 3 71 21 8 16 8 28 0 45 -9 21 -17 24 -71 24 l-60 0 0 -45z"/>
 <path d="M4966 3494 c-26 -25 -30 -63 -13 -100 13 -27 23 -34 46 -34 33 0 49 15 57 57 13 67 -48 119 -90 77z"/>
 <path d="M5187 3495 c-23 -23 -30 -71 -15 -102 18 -38 66 -39 86 -3 14 28 10 84 -9 106 -15 18 -44 18 -62 -1z"/>
 <path d="M5820 3401 c0 -33 64 -53 88 -29 26 26 13 38 -38 38 -27 0 -50 -4 -50 -9z"/>
 <path d="M480 2070 l0 -230 230 0 230 0 0 230 0 230 -230 0 -230 0 0 -230z"/>
 <path d="M1320 2070 l0 -230 230 0 230 0 0 230 0 230 -230 0 -230 0 0 -230z"/>
 <path d="M2160 2070 l0 -230 233 2 232 3 0 225 0 225 -232 3 -233 2 0 -230z"/>
 <path d="M3010 2070 l0 -230 230 0 230 0 0 230 0 230 -230 0 -230 0 0 -230z"/>
 </g>
<g id="layer110" fill="#707070" stroke="none">
 <path d="M0 1990 l0 -1990 3350 0 3350 0 0 1990 0 1990 -3350 0 -3350 0 0 -1990z m4560 1490 l0 -60 65 0 c82 0 115 -25 115 -89 0 -62 -31 -81 -136 -81 l-84 0 0 145 c0 138 1 145 20 145 18 0 20 -7 20 -60z m251 3 c1 -86 10 -107 44 -113 35 -6 45 -35 16 -45 -12 -3 -26 -3 -33 1 -7 4 -25 7 -40 6 l-28 -2 0 105 c0 98 1 105 20 105 18 0 20 -7 21 -57z m263 26 c47 -55 31 -145 -31 -174 -42 -20 -82 -13 -114 21 -19 21 -24 36 -23 80 0 74 28 104 95 104 40 0 51 -4 73 -31z m184 19 c9 -9 12 -9 12 0 0 7 9 12 20 12 19 0 20 -7 20 -145 0 -138 -1 -145 -20 -145 -17 0 -20 7 -20 45 0 25 -2 45 -4 45 -1 0 -16 -5 -33 -10 -44 -16 -81 2 -100 47 -33 79 7 163 77 163 20 0 41 -5 48 -12z m220 0 c9 -9 12 -9 12 0 0 7 9 12 20 12 19 0 20 -7 20 -105 0 -98 -1 -105 -20 -105 -18 0 -20 7 -20 59 0 73 -12 107 -41 116 -38 13 -59 -25 -59 -106 0 -63 -2 -69 -21 -69 -20 0 -21 4 -17 88 2 56 8 95 17 105 16 20 91 23 109 5z m250 -5 c11 -10 23 -28 27 -40 9 -33 -23 -30 -50 4 -52 64 -117 -28 -75 -106 15 -29 63 -28 82 1 8 12 19 18 26 14 35 -22 -12 -71 -68 -71 -70 0 -112 67 -90 144 5 19 17 42 26 52 22 25 94 26 122 2z m209 2 c11 -8 23 -24 26 -35 7 -27 -33 -28 -51 0 -15 24 -49 26 -74 3 -35 -31 -22 -42 55 -45 l72 -3 -2 -34 c-2 -50 -42 -86 -93 -85 -49 2 -76 24 -91 74 -14 46 2 102 34 125 27 19 96 19 124 0z m104 -42 c1 -86 10 -107 44 -113 35 -6 45 -35 16 -45 -12 -3 -26 -3 -33 1 -7 4 -25 7 -40 6 l-28 -2 0 105 c0 98 1 105 20 105 18 0 20 -7 21 -57z m343 -582 c3 -5 -3 -28 -14 -52 -20 -42 -26 -55 -50 -96 -5 -10 -23 -46 -39 -79 -16 -34 -34 -64 -40 -68 -6 -4 -11 -14 -11 -22 0 -8 -12 -33 -27 -57 -28 -42 -82 -140 -104 -187 -6 -14 -15 -32 -20 -40 -5 -8 -18 -36 -30 -62 -12 -26 -27 -53 -35 -59 -8 -6 -14 -18 -14 -26 0 -8 -13 -35 -30 -60 -16 -24 -30 -49 -31 -56 0 -7 -14 -32 -29 -57 -16 -25 -39 -65 -51 -90 -37 -78 -62 -125 -75 -141 -8 -8 -14 -21 -14 -28 0 -7 -13 -33 -30 -58 -16 -24 -30 -49 -30 -54 0 -6 -8 -23 -17 -37 -36 -54 -44 -69 -88 -157 -24 -49 -49 -97 -54 -105 -5 -8 -24 -44 -42 -80 -18 -36 -45 -85 -61 -110 -15 -25 -47 -85 -71 -135 -39 -80 -71 -126 -81 -114 -1 2 -17 33 -35 69 -18 36 -47 90 -64 121 -18 31 -51 90 -74 130 -23 41 -57 108 -76 150 -20 42 -49 96 -66 121 -17 25 -31 53 -31 61 0 9 -5 19 -11 22 -10 7 -26 37 -119 220 -27 55 -65 125 -83 156 -67 117 -147 262 -147 269 0 7 -36 77 -83 161 -136 242 -167 300 -167 312 0 8 -10 29 -23 48 -12 19 -31 52 -42 74 -11 21 -30 55 -42 73 -13 19 -23 39 -23 43 0 12 2167 12 2174 0z m-5414 -696 l0 -125 160 0 160 0 0 125 0 125 260 0 260 0 0 -120 0 -120 160 0 160 0 0 120 0 120 265 0 265 0 0 -125 0 -125 155 0 155 0 0 125 0 125 265 0 265 0 0 -260 0 -260 -265 0 -265 0 0 125 0 125 -155 0 -155 0 0 -125 0 -125 -265 0 -265 0 0 130 0 130 -160 0 -160 0 0 -130 0 -130 -260 0 -260 0 0 125 0 125 -160 0 -160 0 0 -125 0 -125 -260 0 -260 0 0 260 0 260 260 0 260 0 0 -125z m609 -733 c22 -63 41 -115 41 -117 0 -2 -17 -5 -37 -7 l-38 -3 0 -575 0 -575 1875 0 1875 0 3 328 c1 209 6 327 12 327 7 0 9 -117 8 -337 l-3 -338 -1892 -3 -1893 -2 -2 587 -3 588 -38 3 c-25 2 -37 8 -34 15 2 7 21 60 42 120 21 59 39 106 40 105 1 -2 21 -54 44 -116z m1816 -323 c4 -5 17 -9 28 -8 24 2 39 -3 112 -37 58 -27 77 -39 114 -74 34 -31 89 -141 98 -192 3 -21 10 -41 14 -44 13 -7 11 -72 -2 -79 -5 -4 -9 -17 -7 -29 6 -49 -124 -256 -161 -256 -4 0 -16 -9 -26 -20 -10 -11 -26 -20 -36 -20 -10 0 -30 -5 -46 -12 -15 -6 -33 -10 -40 -9 -6 1 -14 -3 -18 -9 -14 -23 -153 -6 -225 28 -118 56 -223 202 -236 330 -5 42 -3 66 5 76 7 8 10 20 6 26 -4 6 -1 18 6 26 6 8 9 17 6 20 -3 3 10 33 29 66 19 33 34 63 34 66 1 14 109 93 151 111 75 31 83 34 106 32 11 -1 24 3 28 8 3 6 17 11 30 11 13 0 27 -5 30 -11z"/>
 <path d="M4560 3335 l0 -45 60 0 c50 0 61 3 71 21 8 16 8 28 0 45 -9 21 -17 24 -71 24 l-60 0 0 -45z"/>
 <path d="M4966 3494 c-26 -25 -30 -63 -13 -100 13 -27 23 -34 46 -34 33 0 49 15 57 57 13 67 -48 119 -90 77z"/>
 <path d="M5187 3495 c-23 -23 -30 -71 -15 -102 18 -38 66 -39 86 -3 14 28 10 84 -9 106 -15 18 -44 18 -62 -1z"/>
 <path d="M5820 3401 c0 -33 64 -53 88 -29 26 26 13 38 -38 38 -27 0 -50 -4 -50 -9z"/>
 <path d="M480 2070 l0 -230 230 0 230 0 0 230 0 230 -230 0 -230 0 0 -230z"/>
 <path d="M1320 2070 l0 -230 230 0 230 0 0 230 0 230 -230 0 -230 0 0 -230z"/>
 <path d="M2160 2070 l0 -230 233 2 232 3 0 225 0 225 -232 3 -233 2 0 -230z"/>
 <path d="M3010 2070 l0 -230 230 0 230 0 0 230 0 230 -230 0 -230 0 0 -230z"/>
 <path d="M3339 1106 c-2 -3 -23 -6 -44 -7 -22 -1 -44 -6 -50 -9 -5 -4 -22 -10 -37 -14 -46 -11 -153 -128 -178 -192 -11 -31 -18 -65 -15 -75 3 -10 1 -26 -6 -37 -8 -12 -9 -27 -4 -38 5 -11 10 -35 11 -55 2 -42 48 -137 69 -146 8 -3 15 -11 15 -18 0 -29 164 -123 195 -111 8 3 17 1 20 -4 8 -13 92 -13 100 0 3 5 12 7 20 4 23 -9 141 52 184 95 40 40 95 136 86 151 -3 5 -1 11 3 14 17 10 5 159 -18 221 -29 79 -113 164 -191 192 -56 21 -150 38 -160 29z m191 -162 c9 -3 22 -19 29 -36 14 -32 14 -32 -47 -90 -34 -31 -62 -61 -62 -65 0 -4 27 -35 60 -68 57 -57 59 -62 48 -86 -7 -14 -25 -32 -41 -39 -28 -12 -31 -11 -90 49 l-62 61 -61 -61 c-54 -53 -66 -61 -88 -55 -17 4 -33 19 -42 39 l-16 33 64 62 63 61 -64 65 c-63 64 -63 64 -50 95 9 20 23 33 42 37 26 5 36 -1 86 -50 31 -31 61 -56 67 -56 5 0 36 27 69 60 33 33 64 58 70 55 5 -3 17 -8 25 -11z"/>
 </g>
<g id="layer111" fill="#83856a" stroke="none">
 <path d="M0 1990 l0 -1990 3350 0 3350 0 0 1990 0 1990 -3350 0 -3350 0 0 -1990z m4560 1490 l0 -60 65 0 c82 0 115 -25 115 -89 0 -62 -31 -81 -136 -81 l-84 0 0 145 c0 138 1 145 20 145 18 0 20 -7 20 -60z m251 3 c1 -86 10 -107 44 -113 35 -6 45 -35 16 -45 -12 -3 -26 -3 -33 1 -7 4 -25 7 -40 6 l-28 -2 0 105 c0 98 1 105 20 105 18 0 20 -7 21 -57z m263 26 c47 -55 31 -145 -31 -174 -42 -20 -82 -13 -114 21 -19 21 -24 36 -23 80 0 74 28 104 95 104 40 0 51 -4 73 -31z m184 19 c9 -9 12 -9 12 0 0 7 9 12 20 12 19 0 20 -7 20 -145 0 -138 -1 -145 -20 -145 -17 0 -20 7 -20 45 0 25 -2 45 -4 45 -1 0 -16 -5 -33 -10 -44 -16 -81 2 -100 47 -33 79 7 163 77 163 20 0 41 -5 48 -12z m220 0 c9 -9 12 -9 12 0 0 7 9 12 20 12 19 0 20 -7 20 -105 0 -98 -1 -105 -20 -105 -18 0 -20 7 -20 59 0 73 -12 107 -41 116 -38 13 -59 -25 -59 -106 0 -63 -2 -69 -21 -69 -20 0 -21 4 -17 88 2 56 8 95 17 105 16 20 91 23 109 5z m250 -5 c11 -10 23 -28 27 -40 9 -33 -23 -30 -50 4 -52 64 -117 -28 -75 -106 15 -29 63 -28 82 1 8 12 19 18 26 14 35 -22 -12 -71 -68 -71 -70 0 -112 67 -90 144 5 19 17 42 26 52 22 25 94 26 122 2z m209 2 c11 -8 23 -24 26 -35 7 -27 -33 -28 -51 0 -15 24 -49 26 -74 3 -35 -31 -22 -42 55 -45 l72 -3 -2 -34 c-2 -50 -42 -86 -93 -85 -49 2 -76 24 -91 74 -14 46 2 102 34 125 27 19 96 19 124 0z m104 -42 c1 -86 10 -107 44 -113 35 -6 45 -35 16 -45 -12 -3 -26 -3 -33 1 -7 4 -25 7 -40 6 l-28 -2 0 105 c0 98 1 105 20 105 18 0 20 -7 21 -57z m343 -582 c3 -5 -3 -28 -14 -52 -20 -42 -26 -55 -50 -96 -5 -10 -23 -46 -39 -79 -16 -34 -34 -64 -40 -68 -6 -4 -11 -14 -11 -22 0 -8 -12 -33 -27 -57 -28 -42 -82 -140 -104 -187 -6 -14 -15 -32 -20 -40 -5 -8 -18 -36 -30 -62 -12 -26 -27 -53 -35 -59 -8 -6 -14 -18 -14 -26 0 -8 -13 -35 -30 -60 -16 -24 -30 -49 -31 -56 0 -7 -14 -32 -29 -57 -16 -25 -39 -65 -51 -90 -37 -78 -62 -125 -75 -141 -8 -8 -14 -21 -14 -28 0 -7 -13 -33 -30 -58 -16 -24 -30 -49 -30 -54 0 -6 -8 -23 -17 -37 -36 -54 -44 -69 -88 -157 -24 -49 -49 -97 -54 -105 -5 -8 -24 -44 -42 -80 -18 -36 -45 -85 -61 -110 -15 -25 -47 -85 -71 -135 -39 -80 -71 -126 -81 -114 -1 2 -17 33 -35 69 -18 36 -47 90 -64 121 -18 31 -51 90 -74 130 -23 41 -57 108 -76 150 -20 42 -49 96 -66 121 -17 25 -31 53 -31 61 0 9 -5 19 -11 22 -10 7 -26 37 -119 220 -27 55 -65 125 -83 156 -67 117 -147 262 -147 269 0 7 -36 77 -83 161 -136 242 -167 300 -167 312 0 8 -10 29 -23 48 -12 19 -31 52 -42 74 -11 21 -30 55 -42 73 -13 19 -23 39 -23 43 0 12 2167 12 2174 0z m-5414 -696 l0 -125 160 0 160 0 0 125 0 125 260 0 260 0 0 -120 0 -120 160 0 160 0 0 120 0 120 265 0 265 0 0 -125 0 -125 155 0 155 0 0 125 0 125 265 0 265 0 0 -260 0 -260 -265 0 -265 0 0 125 0 125 -155 0 -155 0 0 -125 0 -125 -265 0 -265 0 0 130 0 130 -160 0 -160 0 0 -130 0 -130 -260 0 -260 0 0 125 0 125 -160 0 -160 0 0 -125 0 -125 -260 0 -260 0 0 260 0 260 260 0 260 0 0 -125z m609 -730 c23 -61 41 -113 41 -117 0 -5 -16 -8 -35 -8 l-35 0 0 -580 0 -580 1873 2 1872 3 3 328 c1 209 6 327 12 327 7 0 9 -117 8 -337 l-3 -338 -1895 0 -1895 0 -3 588 -2 587 -35 0 c-19 0 -35 3 -35 6 0 12 83 235 86 231 1 -1 21 -52 43 -112z m1816 -326 c4 -5 17 -9 28 -8 24 2 39 -3 112 -37 58 -27 77 -39 114 -74 34 -31 89 -141 98 -192 3 -21 10 -41 14 -44 13 -7 11 -72 -2 -79 -5 -4 -9 -17 -7 -29 6 -49 -124 -256 -161 -256 -4 0 -16 -9 -26 -20 -10 -11 -26 -20 -36 -20 -10 0 -30 -5 -46 -12 -15 -6 -33 -10 -40 -9 -6 1 -14 -3 -18 -9 -14 -23 -153 -6 -225 28 -118 56 -223 202 -236 330 -5 42 -3 66 5 76 7 8 10 20 6 26 -4 6 -1 18 6 26 6 8 9 17 6 20 -3 3 10 33 29 66 19 33 34 63 34 66 1 14 109 93 151 111 75 31 83 34 106 32 11 -1 24 3 28 8 3 6 17 11 30 11 13 0 27 -5 30 -11z"/>
 <path d="M4560 3335 l0 -45 60 0 c50 0 61 3 71 21 8 16 8 28 0 45 -9 21 -17 24 -71 24 l-60 0 0 -45z"/>
 <path d="M4966 3494 c-26 -25 -30 -63 -13 -100 13 -27 23 -34 46 -34 33 0 49 15 57 57 13 67 -48 119 -90 77z"/>
 <path d="M5187 3495 c-23 -23 -30 -71 -15 -102 18 -38 66 -39 86 -3 14 28 10 84 -9 106 -15 18 -44 18 -62 -1z"/>
 <path d="M5820 3401 c0 -33 64 -53 88 -29 26 26 13 38 -38 38 -27 0 -50 -4 -50 -9z"/>
 <path d="M480 2070 l0 -230 230 0 230 0 0 230 0 230 -230 0 -230 0 0 -230z"/>
 <path d="M1320 2070 l0 -230 230 0 230 0 0 230 0 230 -230 0 -230 0 0 -230z"/>
 <path d="M2160 2070 l0 -230 230 2 231 3 0 183 c0 100 -1 202 -1 227 l0 45 -230 0 -230 0 0 -230z"/>
 <path d="M3010 2070 l0 -230 230 0 230 0 0 230 0 230 -230 0 -230 0 0 -230z"/>
 <path d="M3339 1106 c-2 -3 -23 -6 -44 -7 -22 -1 -44 -6 -50 -9 -5 -4 -22 -10 -37 -14 -46 -11 -153 -128 -178 -192 -11 -31 -18 -65 -15 -75 3 -10 1 -26 -6 -37 -8 -12 -9 -27 -4 -38 5 -11 10 -35 11 -55 2 -42 48 -137 69 -146 8 -3 15 -11 15 -18 0 -29 164 -123 195 -111 8 3 17 1 20 -4 8 -13 92 -13 100 0 3 5 12 7 20 4 23 -9 141 52 184 95 40 40 95 136 86 151 -3 5 -1 11 3 14 17 10 5 159 -18 221 -29 79 -113 164 -191 192 -56 21 -150 38 -160 29z m191 -162 c9 -3 22 -19 29 -36 14 -32 14 -32 -47 -90 -34 -31 -62 -61 -62 -65 0 -4 27 -35 60 -68 57 -57 59 -62 48 -86 -7 -14 -25 -32 -41 -39 -28 -12 -31 -11 -90 49 l-62 61 -61 -61 c-54 -53 -66 -61 -88 -55 -17 4 -33 19 -42 39 l-16 33 64 62 63 61 -64 65 c-63 64 -63 64 -50 95 9 20 23 33 42 37 26 5 36 -1 86 -50 31 -31 61 -56 67 -56 5 0 36 27 69 60 33 33 64 58 70 55 5 -3 17 -8 25 -11z"/>
 </g>
<g id="layer112" fill="#d65a57" stroke="none">
 <path d="M0 1990 l0 -1990 3350 0 3350 0 0 1990 0 1990 -3350 0 -3350 0 0 -1990z m4560 1490 l0 -60 65 0 c82 0 115 -25 115 -89 0 -62 -31 -81 -136 -81 l-84 0 0 145 c0 138 1 145 20 145 18 0 20 -7 20 -60z m251 3 c1 -86 10 -107 44 -113 35 -6 45 -35 16 -45 -12 -3 -26 -3 -33 1 -7 4 -25 7 -40 6 l-28 -2 0 105 c0 98 1 105 20 105 18 0 20 -7 21 -57z m263 26 c47 -55 31 -145 -31 -174 -42 -20 -82 -13 -114 21 -19 21 -24 36 -23 80 0 74 28 104 95 104 40 0 51 -4 73 -31z m184 19 c9 -9 12 -9 12 0 0 7 9 12 20 12 19 0 20 -7 20 -145 0 -138 -1 -145 -20 -145 -17 0 -20 7 -20 45 0 25 -2 45 -4 45 -1 0 -16 -5 -33 -10 -44 -16 -81 2 -100 47 -33 79 7 163 77 163 20 0 41 -5 48 -12z m220 0 c9 -9 12 -9 12 0 0 7 9 12 20 12 19 0 20 -7 20 -105 0 -98 -1 -105 -20 -105 -18 0 -20 7 -20 59 0 73 -12 107 -41 116 -38 13 -59 -25 -59 -106 0 -63 -2 -69 -21 -69 -20 0 -21 4 -17 88 2 56 8 95 17 105 16 20 91 23 109 5z m250 -5 c11 -10 23 -28 27 -40 9 -33 -23 -30 -50 4 -52 64 -117 -28 -75 -106 15 -29 63 -28 82 1 8 12 19 18 26 14 35 -22 -12 -71 -68 -71 -70 0 -112 67 -90 144 5 19 17 42 26 52 22 25 94 26 122 2z m209 2 c11 -8 23 -24 26 -35 7 -27 -33 -28 -51 0 -15 24 -49 26 -74 3 -35 -31 -22 -42 55 -45 l72 -3 -2 -34 c-2 -50 -42 -86 -93 -85 -49 2 -76 24 -91 74 -14 46 2 102 34 125 27 19 96 19 124 0z m104 -42 c1 -86 10 -107 44 -113 35 -6 45 -35 16 -45 -12 -3 -26 -3 -33 1 -7 4 -25 7 -40 6 l-28 -2 0 105 c0 98 1 105 20 105 18 0 20 -7 21 -57z m343 -582 c3 -5 -3 -28 -14 -52 -20 -42 -26 -55 -50 -96 -5 -10 -23 -46 -39 -79 -16 -34 -34 -64 -40 -68 -6 -4 -11 -14 -11 -22 0 -8 -12 -33 -27 -57 -28 -42 -82 -140 -104 -187 -6 -14 -15 -32 -20 -40 -5 -8 -18 -36 -30 -62 -12 -26 -27 -53 -35 -59 -8 -6 -14 -18 -14 -26 0 -8 -13 -35 -30 -60 -16 -24 -30 -49 -31 -56 0 -7 -14 -32 -29 -57 -16 -25 -39 -65 -51 -90 -37 -78 -62 -125 -75 -141 -8 -8 -14 -21 -14 -28 0 -7 -13 -33 -30 -58 -16 -24 -30 -49 -30 -54 0 -6 -8 -23 -17 -37 -36 -54 -44 -69 -88 -157 -24 -49 -49 -97 -54 -105 -5 -8 -24 -44 -42 -80 -18 -36 -45 -85 -61 -110 -15 -25 -47 -85 -71 -135 -39 -80 -71 -126 -81 -114 -1 2 -17 33 -35 69 -18 36 -47 90 -64 121 -18 31 -51 90 -74 130 -23 41 -57 108 -76 150 -20 42 -49 96 -66 121 -17 25 -31 53 -31 61 0 9 -5 19 -11 22 -10 7 -26 37 -119 220 -27 55 -65 125 -83 156 -67 117 -147 262 -147 269 0 7 -36 77 -83 161 -136 242 -167 300 -167 312 0 8 -10 29 -23 48 -12 19 -31 52 -42 74 -11 21 -30 55 -42 73 -13 19 -23 39 -23 43 0 12 2167 12 2174 0z m-5414 -696 l0 -125 160 0 160 0 0 125 0 125 260 0 259 0 3 -117 3 -118 158 -3 157 -3 0 121 0 120 265 0 265 0 0 -125 0 -125 155 0 155 0 0 125 0 125 265 0 265 0 0 -260 0 -260 -265 0 -265 0 0 125 0 125 -155 0 -155 0 0 -125 0 -125 -265 0 -265 0 0 130 0 130 -160 0 -160 0 0 -130 0 -130 -260 0 -260 0 0 125 0 125 -160 0 -160 0 0 -125 0 -125 -265 0 -265 0 0 260 0 260 265 0 265 0 0 -125z m609 -730 c23 -61 41 -113 41 -117 0 -5 -16 -8 -35 -8 l-35 0 0 -580 0 -580 1873 2 1872 3 3 328 c1 209 6 327 12 327 7 0 9 -117 8 -337 l-3 -338 -1895 0 -1895 0 -3 588 -2 587 -35 0 c-19 0 -35 3 -35 8 0 12 82 233 86 230 1 -2 21 -53 43 -113z m1816 -326 c4 -5 17 -9 28 -8 24 2 39 -3 112 -37 58 -27 77 -39 114 -74 34 -31 89 -141 98 -192 3 -21 10 -41 14 -44 13 -7 11 -72 -2 -79 -5 -4 -9 -17 -7 -29 6 -49 -124 -256 -161 -256 -4 0 -16 -9 -26 -20 -10 -11 -26 -20 -36 -20 -10 0 -30 -5 -46 -12 -15 -6 -33 -10 -40 -9 -6 1 -14 -3 -18 -9 -14 -23 -153 -6 -225 28 -118 56 -223 202 -236 330 -5 42 -3 66 5 76 7 8 10 20 6 26 -4 6 -1 18 6 26 6 8 9 17 6 20 -3 3 10 33 29 66 19 33 34 63 34 66 1 14 109 93 151 111 75 31 83 34 106 32 11 -1 24 3 28 8 3 6 17 11 30 11 13 0 27 -5 30 -11z"/>
 <path d="M4560 3335 l0 -45 60 0 c50 0 61 3 71 21 8 16 8 28 0 45 -9 21 -17 24 -71 24 l-60 0 0 -45z"/>
 <path d="M4966 3494 c-26 -25 -30 -63 -13 -100 13 -27 23 -34 46 -34 33 0 49 15 57 57 13 67 -48 119 -90 77z"/>
 <path d="M5187 3495 c-23 -23 -30 -71 -15 -102 18 -38 66 -39 86 -3 14 28 10 84 -9 106 -15 18 -44 18 -62 -1z"/>
 <path d="M5820 3401 c0 -33 64 -53 88 -29 26 26 13 38 -38 38 -27 0 -50 -4 -50 -9z"/>
 <path d="M480 2070 l0 -230 230 0 230 0 0 230 0 230 -230 0 -230 0 0 -230z"/>
 <path d="M1320 2070 l0 -230 230 0 230 0 0 230 0 230 -230 0 -230 0 0 -230z"/>
 <path d="M2160 2070 l0 -230 230 0 230 0 0 230 0 230 -230 0 -230 0 0 -230z"/>
 <path d="M3010 2070 l0 -230 230 0 230 0 0 230 0 230 -230 0 -230 0 0 -230z"/>
 <path d="M3339 1106 c-2 -3 -23 -6 -44 -7 -22 -1 -44 -6 -50 -9 -5 -4 -22 -10 -37 -14 -46 -11 -153 -128 -178 -192 -11 -31 -18 -65 -15 -75 3 -10 1 -26 -6 -37 -8 -12 -9 -27 -4 -38 5 -11 10 -35 11 -55 2 -42 48 -137 69 -146 8 -3 15 -11 15 -18 0 -29 164 -123 195 -111 8 3 17 1 20 -4 8 -13 92 -13 100 0 3 5 12 7 20 4 23 -9 141 52 184 95 40 40 95 136 86 151 -3 5 -1 11 3 14 17 10 5 159 -18 221 -29 79 -113 164 -191 192 -56 21 -150 38 -160 29z m191 -162 c9 -3 22 -19 29 -36 14 -32 14 -32 -47 -90 -34 -31 -62 -61 -62 -65 0 -4 27 -35 60 -68 57 -57 59 -62 48 -86 -7 -14 -25 -32 -41 -39 -28 -12 -31 -11 -90 49 l-62 61 -61 -61 c-54 -53 -66 -61 -88 -55 -17 4 -33 19 -42 39 l-16 33 64 62 63 61 -64 65 c-63 64 -63 64 -50 95 9 20 23 33 42 37 26 5 36 -1 86 -50 31 -31 61 -56 67 -56 5 0 36 27 69 60 33 33 64 58 70 55 5 -3 17 -8 25 -11z"/>
 </g>
<g id="layer113" fill="#99c455" stroke="none">
 <path d="M0 1990 l0 -1990 3350 0 3350 0 0 1990 0 1990 -3350 0 -3350 0 0 -1990z m4560 1490 l0 -60 65 0 c82 0 115 -25 115 -89 0 -62 -31 -81 -136 -81 l-84 0 0 145 c0 138 1 145 20 145 18 0 20 -7 20 -60z m251 3 c1 -86 10 -107 44 -113 35 -6 45 -35 16 -45 -12 -3 -26 -3 -33 1 -7 4 -25 7 -40 6 l-28 -2 0 105 c0 98 1 105 20 105 18 0 20 -7 21 -57z m263 26 c47 -55 31 -145 -31 -174 -42 -20 -82 -13 -114 21 -19 21 -24 36 -23 80 0 74 28 104 95 104 40 0 51 -4 73 -31z m184 19 c9 -9 12 -9 12 0 0 7 9 12 20 12 19 0 20 -7 20 -145 0 -138 -1 -145 -20 -145 -17 0 -20 7 -20 45 0 25 -2 45 -4 45 -1 0 -16 -5 -33 -10 -44 -16 -81 2 -100 47 -33 79 7 163 77 163 20 0 41 -5 48 -12z m220 0 c9 -9 12 -9 12 0 0 7 9 12 20 12 19 0 20 -7 20 -105 0 -98 -1 -105 -20 -105 -18 0 -20 7 -20 59 0 73 -12 107 -41 116 -38 13 -59 -25 -59 -106 0 -63 -2 -69 -21 -69 -20 0 -21 4 -17 88 2 56 8 95 17 105 16 20 91 23 109 5z m250 -5 c11 -10 23 -28 27 -40 9 -33 -23 -30 -50 4 -52 64 -117 -28 -75 -106 15 -29 63 -28 82 1 8 12 19 18 26 14 35 -22 -12 -71 -68 -71 -70 0 -112 67 -90 144 5 19 17 42 26 52 22 25 94 26 122 2z m209 2 c11 -8 23 -24 26 -35 7 -27 -33 -28 -51 0 -15 24 -49 26 -74 3 -35 -31 -22 -42 55 -45 l72 -3 -2 -34 c-2 -50 -42 -86 -93 -85 -49 2 -76 24 -91 74 -14 46 2 102 34 125 27 19 96 19 124 0z m104 -42 c1 -86 10 -107 44 -113 35 -6 45 -35 16 -45 -12 -3 -26 -3 -33 1 -7 4 -25 7 -40 6 l-28 -2 0 105 c0 98 1 105 20 105 18 0 20 -7 21 -57z m359 -584 c0 -6 -66 -133 -146 -282 -170 -317 -321 -598 -497 -927 -69 -129 -180 -336 -246 -460 -67 -124 -138 -258 -159 -297 -20 -40 -40 -73 -44 -73 -9 0 -27 32 -148 260 -51 96 -108 202 -125 235 -34 63 -177 329 -377 705 -67 124 -167 311 -223 415 -146 272 -225 422 -225 429 0 3 493 6 1095 6 769 0 1095 -3 1095 -11z m-5430 -694 l0 -125 160 0 160 0 0 125 0 125 260 0 259 0 3 -117 3 -118 158 -3 157 -3 0 121 0 120 265 0 265 0 0 -125 0 -125 155 0 155 0 0 125 0 125 265 0 265 0 0 -260 0 -260 -265 0 -265 0 0 125 0 125 -155 0 -155 0 0 -125 0 -125 -265 0 -265 0 0 130 0 130 -160 0 -160 0 0 -130 0 -130 -260 0 -260 0 0 125 0 125 -160 0 -160 0 0 -125 0 -125 -265 0 -265 0 0 260 0 260 265 0 265 0 0 -125z m609 -730 c23 -61 41 -113 41 -117 0 -5 -16 -8 -35 -8 l-35 0 0 -580 0 -580 1873 2 1872 3 3 328 c1 209 6 327 12 327 7 0 9 -117 8 -337 l-3 -338 -1895 0 -1895 0 -3 588 -2 587 -35 0 c-19 0 -35 3 -35 8 0 12 82 233 86 230 1 -2 21 -53 43 -113z m1860 -325 c127 -24 257 -131 301 -246 75 -201 -8 -416 -195 -508 -209 -102 -435 -20 -543 196 -142 286 119 619 437 558z"/>
 <path d="M4560 3335 l0 -45 60 0 c50 0 61 3 71 21 8 16 8 28 0 45 -9 21 -17 24 -71 24 l-60 0 0 -45z"/>
 <path d="M4966 3494 c-26 -25 -30 -63 -13 -100 13 -27 23 -34 46 -34 33 0 49 15 57 57 13 67 -48 119 -90 77z"/>
 <path d="M5187 3495 c-23 -23 -30 -71 -15 -102 18 -38 66 -39 86 -3 14 28 10 84 -9 106 -15 18 -44 18 -62 -1z"/>
 <path d="M5820 3401 c0 -33 64 -53 88 -29 26 26 13 38 -38 38 -27 0 -50 -4 -50 -9z"/>
 <path d="M480 2070 l0 -230 230 0 230 0 0 230 0 230 -230 0 -230 0 0 -230z"/>
 <path d="M1320 2070 l0 -230 230 0 230 0 0 230 0 230 -230 0 -230 0 0 -230z"/>
 <path d="M2160 2070 l0 -230 230 0 230 0 0 230 0 230 -230 0 -230 0 0 -230z"/>
 <path d="M3010 2070 l0 -230 230 0 230 0 0 230 0 230 -230 0 -230 0 0 -230z"/>
 <path d="M3301 1100 c-104 -22 -204 -99 -251 -195 -36 -72 -40 -198 -10 -277 56 -151 225 -246 384 -217 219 39 345 264 266 474 -55 147 -234 246 -389 215z m4 -195 l59 -54 57 54 c63 61 90 67 126 33 35 -33 28 -57 -34 -120 l-56 -57 56 -61 c36 -39 57 -70 57 -85 0 -26 -42 -65 -69 -65 -9 0 -43 27 -76 60 l-59 60 -62 -61 c-53 -53 -66 -61 -88 -55 -24 6 -56 50 -56 76 0 6 26 38 57 71 l57 60 -57 57 c-62 63 -68 84 -35 119 32 35 57 28 123 -32z"/>
 </g>
<g id="layer114" fill="#9fbb65" stroke="none">
 <path d="M0 1990 l0 -1990 3350 0 3350 0 0 1990 0 1990 -3350 0 -3350 0 0 -1990z m4560 1490 l0 -60 65 0 c82 0 115 -25 115 -89 0 -62 -31 -81 -136 -81 l-84 0 0 145 c0 138 1 145 20 145 18 0 20 -7 20 -60z m251 3 c1 -86 10 -107 44 -113 35 -6 45 -35 16 -45 -12 -3 -26 -3 -33 1 -7 4 -25 7 -40 6 l-28 -2 0 105 c0 98 1 105 20 105 18 0 20 -7 21 -57z m263 26 c47 -55 31 -145 -31 -174 -42 -20 -82 -13 -114 21 -19 21 -24 36 -23 80 0 74 28 104 95 104 40 0 51 -4 73 -31z m184 19 c9 -9 12 -9 12 0 0 7 9 12 20 12 19 0 20 -7 20 -145 0 -138 -1 -145 -20 -145 -17 0 -20 7 -20 45 0 25 -2 45 -4 45 -1 0 -16 -5 -33 -10 -44 -16 -81 2 -100 47 -33 79 7 163 77 163 20 0 41 -5 48 -12z m220 0 c9 -9 12 -9 12 0 0 7 9 12 20 12 19 0 20 -7 20 -105 0 -98 -1 -105 -20 -105 -18 0 -20 7 -20 59 0 73 -12 107 -41 116 -38 13 -59 -25 -59 -106 0 -63 -2 -69 -21 -69 -20 0 -21 4 -17 88 2 56 8 95 17 105 16 20 91 23 109 5z m250 -5 c11 -10 23 -28 27 -40 9 -33 -23 -30 -50 4 -52 64 -117 -28 -75 -106 15 -29 63 -28 82 1 8 12 19 18 26 14 35 -22 -12 -71 -68 -71 -70 0 -112 67 -90 144 5 19 17 42 26 52 22 25 94 26 122 2z m209 2 c11 -8 23 -24 26 -35 7 -27 -33 -28 -51 0 -15 24 -49 26 -74 3 -35 -31 -22 -42 55 -45 l72 -3 -2 -34 c-2 -50 -42 -86 -93 -85 -49 2 -76 24 -91 74 -14 46 2 102 34 125 27 19 96 19 124 0z m104 -42 c1 -86 10 -107 44 -113 35 -6 45 -35 16 -45 -12 -3 -26 -3 -33 1 -7 4 -25 7 -40 6 l-28 -2 0 105 c0 98 1 105 20 105 18 0 20 -7 21 -57z m359 -584 c0 -6 -66 -133 -146 -282 -170 -317 -321 -598 -497 -927 -69 -129 -180 -336 -246 -460 -67 -124 -138 -258 -159 -297 -20 -40 -40 -73 -44 -73 -9 0 -27 32 -148 260 -51 96 -108 202 -125 235 -34 63 -177 329 -377 705 -67 124 -167 311 -223 415 -146 272 -225 422 -225 429 0 3 493 6 1095 6 769 0 1095 -3 1095 -11z m-5430 -694 l0 -125 160 0 160 0 0 125 0 125 260 0 259 0 3 -117 3 -118 158 -3 157 -3 0 121 0 120 265 0 265 0 0 -125 0 -125 155 0 155 0 0 125 0 125 265 0 265 0 0 -260 0 -260 -265 0 -265 0 0 125 0 125 -155 0 -155 0 0 -125 0 -125 -265 0 -265 0 0 130 0 130 -160 0 -160 0 0 -130 0 -130 -260 0 -260 0 0 125 0 125 -160 0 -160 0 0 -125 0 -125 -265 0 -265 0 0 260 0 260 265 0 265 0 0 -125z m609 -730 c23 -61 41 -113 41 -117 0 -5 -16 -8 -35 -8 l-35 0 0 -580 0 -580 1873 2 1872 3 3 328 c1 209 6 327 12 327 7 0 9 -117 8 -337 l-3 -338 -1895 0 -1895 0 -3 588 -2 587 -35 0 c-19 0 -35 3 -35 8 0 12 82 233 86 230 1 -2 21 -53 43 -113z m1860 -325 c127 -24 257 -131 301 -246 75 -201 -8 -416 -195 -508 -209 -102 -435 -20 -543 196 -142 286 119 619 437 558z m925 1 c3 -4 24 -11 47 -15 118 -19 247 -132 284 -248 9 -29 19 -60 22 -68 6 -19 6 -111 0 -130 -3 -8 -11 -33 -18 -55 -39 -131 -166 -242 -299 -261 -25 -4 -51 -11 -57 -16 -9 -7 -17 -7 -25 0 -7 5 -33 13 -58 17 -116 19 -224 101 -279 210 -28 55 -35 82 -40 155 -3 48 -3 94 1 102 3 7 20 42 36 78 50 111 166 203 273 217 22 3 42 10 45 14 7 12 61 12 68 0z"/>
 <path d="M4560 3335 l0 -45 60 0 c50 0 61 3 71 21 8 16 8 28 0 45 -9 21 -17 24 -71 24 l-60 0 0 -45z"/>
 <path d="M4966 3494 c-26 -25 -30 -63 -13 -100 13 -27 23 -34 46 -34 33 0 49 15 57 57 13 67 -48 119 -90 77z"/>
 <path d="M5187 3495 c-23 -23 -30 -71 -15 -102 18 -38 66 -39 86 -3 14 28 10 84 -9 106 -15 18 -44 18 -62 -1z"/>
 <path d="M5820 3401 c0 -33 64 -53 88 -29 26 26 13 38 -38 38 -27 0 -50 -4 -50 -9z"/>
 <path d="M480 2070 l0 -230 230 0 230 0 0 230 0 230 -230 0 -230 0 0 -230z"/>
 <path d="M1320 2070 l0 -230 230 0 230 0 0 230 0 230 -230 0 -230 0 0 -230z"/>
 <path d="M2160 2070 l0 -230 230 0 230 0 0 230 0 230 -230 0 -230 0 0 -230z"/>
 <path d="M3010 2070 l0 -230 230 0 230 0 0 230 0 230 -230 0 -230 0 0 -230z"/>
 <path d="M3301 1100 c-104 -22 -204 -99 -251 -195 -36 -72 -40 -198 -10 -277 56 -151 225 -246 384 -217 219 39 345 264 266 474 -55 147 -234 246 -389 215z m4 -195 l59 -54 57 54 c63 61 90 67 126 33 35 -33 28 -57 -34 -120 l-56 -57 56 -61 c36 -39 57 -70 57 -85 0 -26 -42 -65 -69 -65 -9 0 -43 27 -76 60 l-59 60 -62 -61 c-53 -53 -66 -61 -88 -55 -24 6 -56 50 -56 76 0 6 26 38 57 71 l57 60 -57 57 c-62 63 -68 84 -35 119 32 35 57 28 123 -32z"/>
 <path d="M4250 1110 c-66 -17 -170 -74 -170 -93 0 -2 -15 -21 -34 -41 -53 -55 -73 -123 -71 -232 2 -108 27 -172 97 -243 177 -181 473 -126 584 108 107 224 -51 493 -298 506 -40 2 -89 0 -108 -5z m173 -318 c75 -76 137 -144 137 -151 0 -24 -21 -51 -40 -51 -11 0 -64 44 -122 101 -57 55 -113 110 -126 121 l-22 22 -49 -48 c-48 -48 -49 -48 -75 -31 -14 10 -26 26 -26 36 0 17 118 143 143 152 20 7 38 -7 180 -151z"/>
 </g>
<g id="layer115" fill="#979896" stroke="none">
 <path d="M0 1990 l0 -1990 3350 0 3350 0 0 1990 0 1990 -3350 0 -3350 0 0 -1990z m4560 1490 l0 -60 65 0 c82 0 115 -25 115 -89 0 -62 -31 -81 -136 -81 l-84 0 0 145 c0 138 1 145 20 145 18 0 20 -7 20 -60z m251 3 c1 -86 10 -107 44 -113 35 -6 45 -35 16 -45 -12 -3 -26 -3 -33 1 -7 4 -25 7 -40 6 l-28 -2 0 105 c0 98 1 105 20 105 18 0 20 -7 21 -57z m263 26 c47 -55 31 -145 -31 -174 -42 -20 -82 -13 -114 21 -19 21 -24 36 -23 80 0 74 28 104 95 104 40 0 51 -4 73 -31z m184 19 c9 -9 12 -9 12 0 0 7 9 12 20 12 19 0 20 -7 20 -145 0 -138 -1 -145 -20 -145 -17 0 -20 7 -20 45 0 25 -2 45 -4 45 -1 0 -16 -5 -33 -10 -44 -16 -81 2 -100 47 -33 79 7 163 77 163 20 0 41 -5 48 -12z m220 0 c9 -9 12 -9 12 0 0 7 9 12 20 12 19 0 20 -7 20 -105 0 -98 -1 -105 -20 -105 -18 0 -20 7 -20 59 0 73 -12 107 -41 116 -38 13 -59 -25 -59 -106 0 -63 -2 -69 -21 -69 -20 0 -21 4 -17 88 2 56 8 95 17 105 16 20 91 23 109 5z m250 -5 c11 -10 23 -28 27 -40 9 -33 -23 -30 -50 4 -52 64 -117 -28 -75 -106 15 -29 63 -28 82 1 8 12 19 18 26 14 35 -22 -12 -71 -68 -71 -70 0 -112 67 -90 144 5 19 17 42 26 52 22 25 94 26 122 2z m209 2 c11 -8 23 -24 26 -35 7 -27 -33 -28 -51 0 -15 24 -49 26 -74 3 -35 -31 -22 -42 55 -45 l72 -3 -2 -34 c-2 -50 -42 -86 -93 -85 -49 2 -76 24 -91 74 -14 46 2 102 34 125 27 19 96 19 124 0z m104 -42 c1 -86 10 -107 44 -113 35 -6 45 -35 16 -45 -12 -3 -26 -3 -33 1 -7 4 -25 7 -40 6 l-28 -2 0 105 c0 98 1 105 20 105 18 0 20 -7 21 -57z m359 -584 c0 -6 -66 -133 -146 -282 -170 -317 -321 -598 -497 -927 -69 -129 -180 -336 -246 -460 -67 -124 -138 -258 -159 -297 -20 -40 -40 -73 -44 -73 -9 0 -27 32 -148 260 -51 96 -108 202 -125 235 -34 63 -177 329 -377 705 -67 124 -167 311 -223 415 -146 272 -225 422 -225 429 0 3 493 6 1095 6 769 0 1095 -3 1095 -11z m-5430 -694 l0 -125 160 0 160 0 0 125 0 125 260 0 259 0 3 -117 3 -118 158 -3 157 -3 0 121 0 120 265 0 265 0 0 -125 0 -125 155 0 155 0 0 125 0 125 265 0 265 0 0 -260 0 -260 -265 0 -265 0 0 125 0 125 -155 0 -155 0 0 -125 0 -125 -265 0 -265 0 0 130 0 130 -160 0 -160 0 0 -130 0 -130 -260 0 -260 0 0 125 0 125 -160 0 -160 0 0 -125 0 -125 -265 0 -265 0 0 260 0 260 265 0 265 0 0 -125z m609 -730 c23 -61 41 -113 41 -117 0 -5 -16 -8 -35 -8 l-35 0 0 -580 0 -580 1873 2 1872 3 3 328 c1 209 6 327 12 327 7 0 9 -117 8 -337 l-3 -338 -1895 0 -1895 0 -3 588 -2 587 -35 0 c-19 0 -35 3 -35 8 0 12 82 233 86 230 1 -2 21 -53 43 -113z m1860 -325 c127 -24 257 -131 301 -246 75 -201 -8 -416 -195 -508 -209 -102 -435 -20 -543 196 -142 286 119 619 437 558z m925 1 c3 -4 24 -11 47 -15 118 -19 247 -132 284 -248 9 -29 19 -60 22 -68 6 -19 6 -111 0 -130 -3 -8 -11 -33 -17 -55 -36 -119 -124 -205 -265 -260 -56 -22 -133 -29 -159 -15 -12 6 -26 10 -32 9 -5 -1 -22 3 -37 9 -16 7 -33 12 -38 12 -6 0 -25 11 -43 25 -18 14 -37 25 -41 25 -14 0 -75 63 -75 77 0 8 -7 16 -15 19 -8 4 -15 14 -15 23 0 9 -9 29 -19 45 -11 17 -17 34 -15 38 3 5 2 14 -4 21 -11 14 -9 163 2 192 47 116 87 175 142 213 42 28 128 64 165 69 22 3 42 10 45 14 7 12 61 12 68 0z"/>
 <path d="M4560 3335 l0 -45 60 0 c50 0 61 3 71 21 8 16 8 28 0 45 -9 21 -17 24 -71 24 l-60 0 0 -45z"/>
 <path d="M4966 3494 c-26 -25 -30 -63 -13 -100 13 -27 23 -34 46 -34 33 0 49 15 57 57 13 67 -48 119 -90 77z"/>
 <path d="M5187 3495 c-23 -23 -30 -71 -15 -102 18 -38 66 -39 86 -3 14 28 10 84 -9 106 -15 18 -44 18 -62 -1z"/>
 <path d="M5820 3401 c0 -33 64 -53 88 -29 26 26 13 38 -38 38 -27 0 -50 -4 -50 -9z"/>
 <path d="M480 2070 l0 -230 230 0 230 0 0 230 0 230 -230 0 -230 0 0 -230z"/>
 <path d="M1320 2070 l0 -230 230 0 230 0 0 230 0 230 -230 0 -230 0 0 -230z"/>
 <path d="M2160 2070 l0 -230 230 0 230 0 0 230 0 230 -230 0 -230 0 0 -230z"/>
 <path d="M3010 2070 l0 -230 230 0 230 0 0 230 0 230 -230 0 -230 0 0 -230z"/>
 <path d="M3301 1100 c-104 -22 -204 -99 -251 -195 -36 -72 -40 -198 -10 -277 56 -151 225 -246 384 -217 219 39 345 264 266 474 -55 147 -234 246 -389 215z m4 -195 l59 -54 57 54 c63 61 90 67 126 33 35 -33 28 -57 -34 -120 l-56 -57 56 -61 c36 -39 57 -70 57 -85 0 -26 -42 -65 -69 -65 -9 0 -43 27 -76 60 l-59 60 -62 -61 c-53 -53 -66 -61 -88 -55 -24 6 -56 50 -56 76 0 6 26 38 57 71 l57 60 -57 57 c-62 63 -68 84 -35 119 32 35 57 28 123 -32z"/>
 <path d="M4243 1097 c-2 -4 -8 -5 -13 -2 -5 3 -17 2 -27 -3 -10 -5 -34 -17 -53 -27 -56 -28 -136 -118 -158 -177 -27 -74 -24 -214 6 -280 47 -107 171 -199 287 -213 141 -18 297 66 356 191 12 27 23 54 24 59 0 6 4 16 9 23 4 7 6 16 3 18 -3 3 -1 19 4 37 10 35 -10 126 -43 191 -25 50 -112 142 -153 161 -59 28 -229 43 -242 22z m169 -294 c98 -97 148 -154 148 -168 0 -32 -43 -69 -67 -57 -10 6 -69 62 -131 125 l-114 116 -42 -45 c-23 -24 -50 -44 -58 -44 -21 0 -56 31 -60 51 -5 27 139 168 171 169 3 0 71 -66 153 -147z"/>
 </g>
<g id="layer116" fill="#9da58e" stroke="none">
 <path d="M0 1990 l0 -1990 3350 0 3350 0 0 1990 0 1990 -3350 0 -3350 0 0 -1990z m4560 1490 l0 -60 65 0 c82 0 115 -25 115 -89 0 -62 -31 -81 -136 -81 l-84 0 0 145 c0 138 1 145 20 145 18 0 20 -7 20 -60z m251 3 c1 -86 10 -107 44 -113 35 -6 45 -35 16 -45 -12 -3 -26 -3 -33 1 -7 4 -25 7 -40 6 l-28 -2 0 105 c0 98 1 105 20 105 18 0 20 -7 21 -57z m263 26 c47 -55 31 -145 -31 -174 -42 -20 -82 -13 -114 21 -19 21 -24 36 -23 80 0 74 28 104 95 104 40 0 51 -4 73 -31z m184 19 c9 -9 12 -9 12 0 0 7 9 12 20 12 19 0 20 -7 20 -145 0 -138 -1 -145 -20 -145 -17 0 -20 7 -20 45 0 25 -2 45 -4 45 -1 0 -16 -5 -33 -10 -44 -16 -81 2 -100 47 -33 79 7 163 77 163 20 0 41 -5 48 -12z m220 0 c9 -9 12 -9 12 0 0 7 9 12 20 12 19 0 20 -7 20 -105 0 -98 -1 -105 -20 -105 -18 0 -20 7 -20 59 0 73 -12 107 -41 116 -38 13 -59 -25 -59 -106 0 -63 -2 -69 -21 -69 -20 0 -21 4 -17 88 2 56 8 95 17 105 16 20 91 23 109 5z m250 -5 c11 -10 23 -28 27 -40 9 -33 -23 -30 -50 4 -52 64 -117 -28 -75 -106 15 -29 63 -28 82 1 8 12 19 18 26 14 35 -22 -12 -71 -68 -71 -70 0 -112 67 -90 144 5 19 17 42 26 52 22 25 94 26 122 2z m209 2 c11 -8 23 -24 26 -35 7 -27 -33 -28 -51 0 -15 24 -49 26 -74 3 -35 -31 -22 -42 55 -45 l72 -3 -2 -34 c-2 -50 -42 -86 -93 -85 -49 2 -76 24 -91 74 -14 46 2 102 34 125 27 19 96 19 124 0z m104 -42 c1 -86 10 -107 44 -113 35 -6 45 -35 16 -45 -12 -3 -26 -3 -33 1 -7 4 -25 7 -40 6 l-28 -2 0 105 c0 98 1 105 20 105 18 0 20 -7 21 -57z m359 -584 c0 -6 -66 -133 -146 -282 -164 -304 -312 -580 -494 -922 -68 -126 -169 -315 -225 -420 -56 -104 -128 -238 -159 -297 l-57 -106 -2 -349 -2 -348 -1895 0 -1895 0 -3 583 -2 582 -40 0 c-22 0 -40 1 -40 3 0 1 12 34 26 72 14 39 30 84 36 100 5 17 15 43 21 59 l11 29 9 -24 c21 -54 59 -157 71 -196 l14 -43 -39 0 -39 0 0 -570 0 -570 1870 0 1869 0 3 333 3 332 -73 140 c-41 77 -86 163 -102 190 -15 28 -48 88 -72 135 -25 47 -96 180 -158 295 -62 116 -166 311 -232 435 -67 124 -167 311 -223 415 -146 272 -225 422 -225 429 0 3 493 6 1095 6 769 0 1095 -3 1095 -11z m-5430 -694 l0 -125 160 0 160 0 0 125 0 125 260 0 259 0 3 -117 3 -118 158 -3 157 -3 0 121 0 120 265 0 265 0 0 -125 0 -125 155 0 155 0 0 125 0 125 265 0 265 0 0 -260 0 -260 -265 0 -265 0 0 125 0 125 -155 0 -155 0 0 -125 0 -125 -265 0 -265 0 0 130 0 130 -160 0 -160 0 0 -130 0 -130 -260 0 -260 0 0 125 0 125 -160 0 -160 0 0 -125 0 -125 -265 0 -265 0 0 260 0 260 265 0 265 0 0 -125z m2469 -1055 c127 -24 257 -131 301 -246 75 -201 -8 -416 -195 -508 -209 -102 -435 -20 -543 196 -142 286 119 619 437 558z m925 1 c3 -4 24 -11 47 -15 118 -19 247 -132 284 -248 9 -29 19 -60 22 -68 6 -19 6 -111 0 -130 -3 -8 -11 -33 -17 -55 -36 -119 -124 -205 -265 -260 -56 -22 -133 -29 -159 -15 -12 6 -26 10 -32 9 -5 -1 -22 3 -37 9 -16 7 -33 12 -38 12 -6 0 -25 11 -43 25 -18 14 -37 25 -41 25 -14 0 -75 63 -75 77 0 8 -7 16 -15 19 -8 4 -15 14 -15 23 0 9 -9 29 -19 45 -11 17 -17 34 -15 38 3 5 2 14 -4 21 -11 14 -9 163 2 192 47 116 87 175 142 213 42 28 128 64 165 69 22 3 42 10 45 14 7 12 61 12 68 0z"/>
 <path d="M4560 3335 l0 -45 60 0 c50 0 61 3 71 21 8 16 8 28 0 45 -9 21 -17 24 -71 24 l-60 0 0 -45z"/>
 <path d="M4966 3494 c-26 -25 -30 -63 -13 -100 13 -27 23 -34 46 -34 33 0 49 15 57 57 13 67 -48 119 -90 77z"/>
 <path d="M5187 3495 c-23 -23 -30 -71 -15 -102 18 -38 66 -39 86 -3 14 28 10 84 -9 106 -15 18 -44 18 -62 -1z"/>
 <path d="M5820 3401 c0 -33 64 -53 88 -29 26 26 13 38 -38 38 -27 0 -50 -4 -50 -9z"/>
 <path d="M480 2070 l0 -230 230 0 230 0 0 230 0 230 -230 0 -230 0 0 -230z"/>
 <path d="M1320 2070 l0 -230 230 0 230 0 0 230 0 230 -230 0 -230 0 0 -230z"/>
 <path d="M2160 2070 l0 -230 230 0 230 0 0 230 0 230 -230 0 -230 0 0 -230z"/>
 <path d="M3010 2070 l0 -230 230 0 230 0 0 230 0 230 -230 0 -230 0 0 -230z"/>
 <path d="M3301 1100 c-104 -22 -204 -99 -251 -195 -36 -72 -40 -198 -10 -277 56 -151 225 -246 384 -217 219 39 345 264 266 474 -55 147 -234 246 -389 215z m4 -195 l59 -54 57 54 c63 61 90 67 126 33 35 -33 28 -57 -34 -120 l-56 -57 56 -61 c36 -39 57 -70 57 -85 0 -26 -42 -65 -69 -65 -9 0 -43 27 -76 60 l-59 60 -62 -61 c-53 -53 -66 -61 -88 -55 -24 6 -56 50 -56 76 0 6 26 38 57 71 l57 60 -57 57 c-62 63 -68 84 -35 119 32 35 57 28 123 -32z"/>
 <path d="M4243 1097 c-2 -4 -8 -5 -13 -2 -5 3 -17 2 -27 -3 -10 -5 -34 -17 -53 -27 -56 -28 -136 -118 -158 -177 -27 -74 -24 -214 6 -280 47 -107 171 -199 287 -213 141 -18 297 66 356 191 12 27 23 54 24 59 0 6 4 16 9 23 4 7 6 16 3 18 -3 3 -1 19 4 37 10 35 -10 126 -43 191 -25 50 -112 142 -153 161 -59 28 -229 43 -242 22z m169 -294 c98 -97 148 -154 148 -168 0 -32 -43 -69 -67 -57 -10 6 -69 62 -131 125 l-114 116 -42 -45 c-23 -24 -50 -44 -58 -44 -21 0 -56 31 -60 51 -5 27 139 168 171 169 3 0 71 -66 153 -147z"/>
 </g>
<g id="layer117" fill="#acce6d" stroke="none">
 <path d="M0 1990 l0 -1990 3350 0 3350 0 0 1990 0 1990 -3350 0 -3350 0 0 -1990z m4560 1490 l0 -60 65 0 c82 0 115 -25 115 -89 0 -62 -31 -81 -136 -81 l-84 0 0 145 c0 138 1 145 20 145 18 0 20 -7 20 -60z m251 3 c1 -86 10 -107 44 -113 35 -6 45 -35 16 -45 -12 -3 -26 -3 -33 1 -7 4 -25 7 -40 6 l-28 -2 0 105 c0 98 1 105 20 105 18 0 20 -7 21 -57z m263 26 c47 -55 31 -145 -31 -174 -42 -20 -82 -13 -114 21 -19 21 -24 36 -23 80 0 74 28 104 95 104 40 0 51 -4 73 -31z m184 19 c9 -9 12 -9 12 0 0 7 9 12 20 12 19 0 20 -7 20 -145 0 -138 -1 -145 -20 -145 -17 0 -20 7 -20 45 0 25 -2 45 -4 45 -1 0 -16 -5 -33 -10 -44 -16 -81 2 -100 47 -33 79 7 163 77 163 20 0 41 -5 48 -12z m220 0 c9 -9 12 -9 12 0 0 7 9 12 20 12 19 0 20 -7 20 -105 0 -98 -1 -105 -20 -105 -18 0 -20 7 -20 59 0 73 -12 107 -41 116 -38 13 -59 -25 -59 -106 0 -63 -2 -69 -21 -69 -20 0 -21 4 -17 88 2 56 8 95 17 105 16 20 91 23 109 5z m250 -5 c11 -10 23 -28 27 -40 9 -33 -23 -30 -50 4 -52 64 -117 -28 -75 -106 15 -29 63 -28 82 1 8 12 19 18 26 14 35 -22 -12 -71 -68 -71 -70 0 -112 67 -90 144 5 19 17 42 26 52 22 25 94 26 122 2z m209 2 c11 -8 23 -24 26 -35 7 -27 -33 -28 -51 0 -15 24 -49 26 -74 3 -35 -31 -22 -42 55 -45 l72 -3 -2 -34 c-2 -50 -42 -86 -93 -85 -49 2 -76 24 -91 74 -14 46 2 102 34 125 27 19 96 19 124 0z m104 -42 c1 -86 10 -107 44 -113 35 -6 45 -35 16 -45 -12 -3 -26 -3 -33 1 -7 4 -25 7 -40 6 l-28 -2 0 105 c0 98 1 105 20 105 18 0 20 -7 21 -57z m359 -584 c0 -6 -66 -133 -146 -282 -164 -304 -312 -580 -494 -922 -68 -126 -169 -315 -225 -420 -56 -104 -128 -238 -159 -297 l-57 -106 -2 -349 -2 -348 -1895 0 -1895 0 -3 583 -2 582 -40 0 c-22 0 -40 1 -40 3 0 1 12 34 26 72 14 39 30 84 36 100 5 17 15 43 21 59 l11 29 9 -24 c21 -54 59 -157 71 -196 l14 -43 -39 0 -39 0 0 -570 0 -570 1870 0 1869 0 3 333 3 332 -73 140 c-41 77 -86 163 -102 190 -15 28 -48 88 -72 135 -25 47 -96 180 -158 295 -62 116 -166 311 -232 435 -67 124 -167 311 -223 415 -146 272 -225 422 -225 429 0 3 493 6 1095 6 769 0 1095 -3 1095 -11z m-5430 -694 l0 -126 158 3 157 3 3 123 3 122 264 0 265 0 0 -120 0 -120 155 0 155 0 0 120 0 120 265 0 265 0 0 -125 0 -125 155 0 155 0 0 125 0 125 265 0 265 0 0 -265 0 -265 -262 2 -263 3 -3 128 -3 127 -154 0 -154 0 -3 -127 -3 -128 -262 -3 -263 -2 0 135 0 135 -155 0 -155 0 0 -135 0 -135 -265 0 -264 0 -3 128 -3 127 -158 3 -158 3 2 -128 1 -128 -263 0 -264 0 -3 263 -2 262 265 0 265 0 0 -125z m2469 -1055 c83 -16 157 -58 221 -126 220 -236 87 -612 -236 -667 -45 -8 -79 -8 -121 0 -62 12 -143 43 -143 55 0 5 -6 8 -13 8 -25 0 -119 106 -143 160 -3 8 -13 30 -20 47 -24 54 -28 150 -10 221 54 211 256 342 465 302z m925 1 c3 -4 24 -11 47 -15 118 -19 247 -132 284 -248 9 -29 19 -60 22 -68 6 -19 6 -111 0 -130 -3 -8 -11 -33 -17 -55 -36 -119 -124 -205 -265 -260 -57 -22 -142 -30 -160 -15 -8 7 -21 10 -30 7 -8 -4 -17 -2 -21 4 -3 6 -12 8 -19 5 -8 -3 -30 6 -50 20 -20 13 -40 24 -46 24 -15 0 -99 81 -99 97 0 7 -7 16 -15 19 -8 4 -15 15 -15 25 0 10 -4 19 -9 19 -11 0 -32 56 -24 64 3 3 1 11 -4 18 -12 15 -10 164 1 193 47 116 87 175 142 213 42 28 128 64 165 69 22 3 42 10 45 14 7 12 61 12 68 0z"/>
 <path d="M4560 3335 l0 -45 60 0 c50 0 61 3 71 21 8 16 8 28 0 45 -9 21 -17 24 -71 24 l-60 0 0 -45z"/>
 <path d="M4966 3494 c-26 -25 -30 -63 -13 -100 13 -27 23 -34 46 -34 33 0 49 15 57 57 13 67 -48 119 -90 77z"/>
 <path d="M5187 3495 c-23 -23 -30 -71 -15 -102 18 -38 66 -39 86 -3 14 28 10 84 -9 106 -15 18 -44 18 -62 -1z"/>
 <path d="M5820 3401 c0 -33 64 -53 88 -29 26 26 13 38 -38 38 -27 0 -50 -4 -50 -9z"/>
 <path d="M480 2070 l0 -230 230 0 230 0 0 230 0 230 -230 0 -230 0 0 -230z"/>
 <path d="M1320 2070 l0 -230 230 0 230 0 0 230 0 230 -230 0 -230 0 0 -230z"/>
 <path d="M2170 2070 l0 -230 225 0 225 0 0 230 0 230 -225 0 -225 0 0 -230z"/>
 <path d="M3010 2070 l0 -230 228 2 227 3 0 225 0 225 -227 3 -228 2 0 -230z"/>
 <path d="M3301 1100 c-104 -22 -204 -99 -251 -195 -36 -72 -40 -198 -10 -277 56 -151 225 -246 384 -217 219 39 345 264 266 474 -55 147 -234 246 -389 215z m4 -195 l59 -54 57 54 c63 61 90 67 126 33 35 -33 28 -57 -34 -120 l-56 -57 56 -61 c36 -39 57 -70 57 -85 0 -26 -42 -65 -69 -65 -9 0 -43 27 -76 60 l-59 60 -62 -61 c-53 -53 -66 -61 -88 -55 -24 6 -56 50 -56 76 0 6 26 38 57 71 l57 60 -57 57 c-62 63 -68 84 -35 119 32 35 57 28 123 -32z"/>
 <path d="M4244 1099 c-3 -5 -9 -7 -14 -4 -5 3 -17 2 -27 -3 -10 -5 -34 -17 -53 -27 -56 -28 -136 -118 -158 -177 -27 -74 -24 -214 6 -280 47 -107 171 -199 287 -213 141 -18 297 66 356 191 12 27 23 54 24 59 0 6 4 16 9 23 4 7 6 16 3 18 -3 3 -1 19 4 37 10 37 -11 128 -46 196 -34 67 -113 140 -177 163 -57 20 -204 32 -214 17z m168 -296 c98 -97 148 -154 148 -168 0 -32 -43 -69 -67 -57 -10 6 -69 62 -131 125 l-114 116 -42 -45 c-23 -24 -50 -44 -58 -44 -21 0 -56 31 -60 51 -5 27 139 168 171 169 3 0 71 -66 153 -147z"/>
 </g>
<g id="layer118" fill="#aeb7a5" stroke="none">
 <path d="M0 1990 l0 -1990 3350 0 3350 0 0 1990 0 1990 -3350 0 -3350 0 0 -1990z m4560 1490 l0 -60 65 0 c82 0 115 -25 115 -89 0 -62 -31 -81 -136 -81 l-84 0 0 145 c0 138 1 145 20 145 18 0 20 -7 20 -60z m251 3 c1 -86 10 -107 44 -113 35 -6 45 -35 16 -45 -12 -3 -26 -3 -33 1 -7 4 -25 7 -40 6 l-28 -2 0 105 c0 98 1 105 20 105 18 0 20 -7 21 -57z m263 26 c47 -55 31 -145 -31 -174 -42 -20 -82 -13 -114 21 -19 21 -24 36 -23 80 0 74 28 104 95 104 40 0 51 -4 73 -31z m184 19 c9 -9 12 -9 12 0 0 7 9 12 20 12 19 0 20 -7 20 -145 0 -138 -1 -145 -20 -145 -17 0 -20 7 -20 45 0 25 -2 45 -4 45 -1 0 -16 -5 -33 -10 -44 -16 -81 2 -100 47 -33 79 7 163 77 163 20 0 41 -5 48 -12z m220 0 c9 -9 12 -9 12 0 0 7 9 12 20 12 19 0 20 -7 20 -105 0 -98 -1 -105 -20 -105 -18 0 -20 7 -20 59 0 73 -12 107 -41 116 -38 13 -59 -25 -59 -106 0 -63 -2 -69 -21 -69 -20 0 -21 4 -17 88 2 56 8 95 17 105 16 20 91 23 109 5z m250 -5 c11 -10 23 -28 27 -40 9 -33 -23 -30 -50 4 -52 64 -117 -28 -75 -106 15 -29 63 -28 82 1 8 12 19 18 26 14 35 -22 -12 -71 -68 -71 -70 0 -112 67 -90 144 5 19 17 42 26 52 22 25 94 26 122 2z m209 2 c11 -8 23 -24 26 -35 7 -27 -33 -28 -51 0 -15 24 -49 26 -74 3 -35 -31 -22 -42 55 -45 l72 -3 -2 -34 c-2 -50 -42 -86 -93 -85 -49 2 -76 24 -91 74 -14 46 2 102 34 125 27 19 96 19 124 0z m104 -42 c1 -86 10 -107 44 -113 35 -6 45 -35 16 -45 -12 -3 -26 -3 -33 1 -7 4 -25 7 -40 6 l-28 -2 0 105 c0 98 1 105 20 105 18 0 20 -7 21 -57z m359 -584 c0 -6 -66 -133 -146 -282 -164 -304 -312 -580 -494 -922 -68 -126 -169 -315 -225 -420 -56 -104 -128 -238 -159 -297 l-57 -106 -2 -349 -2 -348 -1895 0 -1895 0 -3 583 -2 582 -40 0 c-22 0 -40 1 -40 3 0 1 12 34 26 72 14 39 30 84 36 100 5 17 15 43 21 59 l11 29 9 -24 c21 -54 59 -157 71 -196 l14 -43 -39 0 -39 0 0 -570 0 -570 1870 0 1869 0 3 333 3 332 -73 140 c-41 77 -86 163 -102 190 -15 28 -48 88 -72 135 -25 47 -96 180 -158 295 -62 116 -166 311 -232 435 -67 124 -167 311 -223 415 -146 272 -225 422 -225 429 0 3 493 6 1095 6 769 0 1095 -3 1095 -11z m-5430 -694 l0 -126 158 3 157 3 3 123 3 122 264 0 265 0 0 -120 0 -120 155 0 155 0 0 120 0 120 265 0 265 0 0 -125 0 -125 155 0 155 0 0 125 0 125 265 0 265 0 0 -265 0 -265 -262 2 -263 3 -3 128 -3 127 -154 0 -154 0 -3 -127 -3 -128 -262 -3 -263 -2 0 135 0 135 -155 0 -155 0 0 -135 0 -135 -265 0 -264 0 -3 128 -3 127 -158 3 -158 3 2 -128 1 -128 -263 0 -264 0 -3 263 -2 262 265 0 265 0 0 -125z m2469 -1055 c83 -16 157 -58 221 -126 220 -236 87 -612 -236 -667 -45 -8 -79 -8 -121 0 -62 12 -143 43 -143 55 0 5 -6 8 -13 8 -25 0 -119 106 -143 160 -3 8 -13 30 -20 47 -24 54 -28 150 -10 221 54 211 256 342 465 302z m1003 -10 c119 -37 200 -109 255 -226 25 -52 28 -71 28 -159 0 -92 -3 -106 -32 -167 -58 -123 -167 -206 -303 -230 -170 -29 -352 68 -428 230 -24 51 -27 69 -27 167 0 98 3 116 27 167 86 184 290 277 480 218z"/>
 <path d="M4560 3335 l0 -45 60 0 c50 0 61 3 71 21 8 16 8 28 0 45 -9 21 -17 24 -71 24 l-60 0 0 -45z"/>
 <path d="M4966 3494 c-26 -25 -30 -63 -13 -100 13 -27 23 -34 46 -34 33 0 49 15 57 57 13 67 -48 119 -90 77z"/>
 <path d="M5187 3495 c-23 -23 -30 -71 -15 -102 18 -38 66 -39 86 -3 14 28 10 84 -9 106 -15 18 -44 18 -62 -1z"/>
 <path d="M5820 3401 c0 -33 64 -53 88 -29 26 26 13 38 -38 38 -27 0 -50 -4 -50 -9z"/>
 <path d="M480 2070 l0 -230 230 0 230 0 0 230 0 230 -230 0 -230 0 0 -230z"/>
 <path d="M1320 2070 l0 -230 230 0 230 0 0 230 0 230 -230 0 -230 0 0 -230z"/>
 <path d="M2170 2070 l0 -230 225 0 225 0 0 230 0 230 -225 0 -225 0 0 -230z"/>
 <path d="M3010 2070 l0 -230 228 2 227 3 0 225 0 225 -227 3 -228 2 0 -230z"/>
 <path d="M3301 1100 c-104 -22 -204 -99 -251 -195 -36 -72 -40 -198 -10 -277 56 -151 225 -246 384 -217 219 39 345 264 266 474 -55 147 -234 246 -389 215z m4 -195 l59 -54 57 54 c63 61 90 67 126 33 35 -33 28 -57 -34 -120 l-56 -57 56 -61 c36 -39 57 -70 57 -85 0 -26 -42 -65 -69 -65 -9 0 -43 27 -76 60 l-59 60 -62 -61 c-53 -53 -66 -61 -88 -55 -24 6 -56 50 -56 76 0 6 26 38 57 71 l57 60 -57 57 c-62 63 -68 84 -35 119 32 35 57 28 123 -32z"/>
 <path d="M4261 1100 c-244 -51 -359 -334 -220 -544 86 -129 263 -183 414 -125 44 16 76 39 122 84 53 53 64 71 83 134 28 91 23 164 -15 249 -65 145 -232 233 -384 202z m156 -292 c147 -147 166 -173 145 -204 -7 -12 -46 -34 -58 -34 -4 0 -63 55 -130 122 l-123 121 -45 -41 c-50 -46 -61 -49 -93 -27 -45 32 -38 54 46 137 42 43 84 78 92 78 7 0 82 -69 166 -152z"/>
 </g>
<g id="layer119" fill="#ffffff" stroke="none">
 <path d="M0 1990 l0 -1990 3350 0 3350 0 0 1990 0 1990 -3350 0 -3350 0 0 -1990z m4560 1490 l0 -60 65 0 c82 0 115 -25 115 -89 0 -62 -31 -81 -136 -81 l-84 0 0 145 c0 138 1 145 20 145 18 0 20 -7 20 -60z m251 3 c1 -86 10 -107 44 -113 35 -6 45 -35 16 -45 -12 -3 -26 -3 -33 1 -7 4 -25 7 -40 6 l-28 -2 0 105 c0 98 1 105 20 105 18 0 20 -7 21 -57z m263 26 c47 -55 31 -145 -31 -174 -42 -20 -82 -13 -114 21 -19 21 -24 36 -23 80 0 74 28 104 95 104 40 0 51 -4 73 -31z m184 19 c9 -9 12 -9 12 0 0 7 9 12 20 12 19 0 20 -7 20 -145 0 -138 -1 -145 -20 -145 -17 0 -20 7 -20 45 0 25 -2 45 -4 45 -1 0 -16 -5 -33 -10 -44 -16 -81 2 -100 47 -33 79 7 163 77 163 20 0 41 -5 48 -12z m220 0 c9 -9 12 -9 12 0 0 7 9 12 20 12 19 0 20 -7 20 -105 0 -98 -1 -105 -20 -105 -18 0 -20 7 -20 59 0 73 -12 107 -41 116 -38 13 -59 -25 -59 -106 0 -63 -2 -69 -21 -69 -20 0 -21 4 -17 88 2 56 8 95 17 105 16 20 91 23 109 5z m250 -5 c11 -10 23 -28 27 -40 9 -33 -23 -30 -50 4 -52 64 -117 -28 -75 -106 15 -29 63 -28 82 1 8 12 19 18 26 14 35 -22 -12 -71 -68 -71 -70 0 -112 67 -90 144 5 19 17 42 26 52 22 25 94 26 122 2z m209 2 c11 -8 23 -24 26 -35 7 -27 -33 -28 -51 0 -15 24 -49 26 -74 3 -35 -31 -22 -42 55 -45 l72 -3 -2 -34 c-2 -50 -42 -86 -93 -85 -49 2 -76 24 -91 74 -14 46 2 102 34 125 27 19 96 19 124 0z m104 -42 c1 -86 10 -107 44 -113 35 -6 45 -35 16 -45 -12 -3 -26 -3 -33 1 -7 4 -25 7 -40 6 l-28 -2 0 105 c0 98 1 105 20 105 18 0 20 -7 21 -57z m359 -584 c0 -6 -66 -133 -146 -282 -164 -304 -312 -580 -494 -922 -68 -126 -169 -315 -225 -420 -56 -104 -128 -238 -159 -297 l-57 -107 1 -350 0 -351 -1900 0 -1900 0 0 585 0 585 -40 0 c-22 0 -40 2 -40 4 0 8 80 228 89 243 6 11 22 -22 55 -112 25 -70 46 -129 46 -131 0 -2 -18 -4 -40 -4 l-40 0 0 -570 0 -570 1870 0 1869 0 3 333 3 332 -73 140 c-41 77 -86 163 -102 190 -15 28 -48 88 -72 135 -25 47 -96 180 -158 295 -62 116 -166 311 -232 435 -67 124 -167 311 -223 415 -146 272 -225 422 -225 429 0 3 493 6 1095 6 769 0 1095 -3 1095 -11z m-5429 -674 c-1 -61 1 -118 5 -128 5 -15 24 -17 155 -17 l148 0 3 128 3 127 268 3 267 2 0 -119 c0 -99 3 -120 16 -125 20 -8 258 -8 278 0 13 5 16 26 16 125 l0 119 265 0 265 0 0 -130 0 -130 155 0 155 0 0 130 0 130 265 0 265 0 0 -270 0 -270 -265 0 -265 0 0 130 0 130 -155 0 -155 0 0 -130 0 -130 -265 0 -265 0 0 135 0 135 -155 0 -155 0 0 -135 0 -135 -270 0 -269 0 -3 128 -3 127 -144 3 c-109 2 -147 -1 -153 -10 -4 -7 -8 -65 -7 -128 l1 -115 -266 -3 -266 -2 0 270 0 270 266 -2 267 -3 -2 -110z m2468 -1075 c126 -24 256 -130 302 -247 31 -79 32 -215 2 -290 -57 -144 -189 -243 -343 -260 -189 -19 -373 107 -421 289 -23 87 -24 135 -4 212 45 172 203 299 381 305 17 1 54 -3 83 -9z m1003 -10 c119 -37 200 -109 255 -226 25 -52 28 -71 28 -159 0 -92 -3 -106 -32 -167 -58 -123 -167 -206 -303 -230 -170 -29 -352 68 -428 230 -24 51 -27 69 -27 167 0 98 3 116 27 167 86 184 290 277 480 218z"/>
 <path d="M4560 3335 l0 -45 60 0 c50 0 61 3 71 21 8 16 8 28 0 45 -9 21 -17 24 -71 24 l-60 0 0 -45z"/>
 <path d="M4966 3494 c-26 -25 -30 -63 -13 -100 13 -27 23 -34 46 -34 33 0 49 15 57 57 13 67 -48 119 -90 77z"/>
 <path d="M5187 3495 c-23 -23 -30 -71 -15 -102 18 -38 66 -39 86 -3 14 28 10 84 -9 106 -15 18 -44 18 -62 -1z"/>
 <path d="M5820 3401 c0 -33 64 -53 88 -29 26 26 13 38 -38 38 -27 0 -50 -4 -50 -9z"/>
 <path d="M480 2070 l0 -230 225 0 225 0 0 230 0 230 -225 0 -225 0 0 -230z"/>
 <path d="M1320 2070 l0 -230 230 0 230 0 0 230 0 230 -230 0 -230 0 0 -230z"/>
 <path d="M2170 2070 l0 -230 225 0 225 0 0 230 0 230 -225 0 -225 0 0 -230z"/>
 <path d="M3010 2070 l0 -230 225 0 225 0 0 230 0 230 -225 0 -225 0 0 -230z"/>
 <path d="M3301 1100 c-104 -22 -204 -99 -251 -195 -36 -72 -40 -198 -10 -277 56 -151 225 -246 384 -217 217 39 345 265 267 471 -30 79 -117 168 -191 195 -69 26 -142 34 -199 23z m4 -195 l59 -54 57 54 c63 61 90 67 126 33 35 -33 28 -57 -34 -120 l-56 -57 56 -61 c64 -69 71 -97 31 -129 -41 -32 -63 -26 -126 36 l-58 57 -58 -57 c-32 -31 -65 -57 -73 -57 -9 0 -28 9 -43 21 -41 32 -34 62 29 129 l56 58 -56 53 c-61 60 -69 88 -33 126 32 35 57 28 123 -32z"/>
 <path d="M4261 1100 c-244 -51 -359 -334 -220 -544 86 -129 263 -183 414 -125 44 16 76 39 122 84 53 53 64 71 83 134 28 91 23 164 -15 249 -65 145 -232 233 -384 202z m156 -292 c147 -147 166 -173 145 -204 -7 -12 -46 -34 -58 -34 -4 0 -63 55 -130 122 l-123 121 -45 -41 c-50 -46 -61 -49 -93 -27 -45 32 -38 54 46 137 42 43 84 78 92 78 7 0 82 -69 166 -152z"/>
 </g>

</svg>